<?xml version="1.0" encoding="UTF-8" standalone="no"?>
<svg
   xmlns:dc="http://purl.org/dc/elements/1.1/"
   xmlns:cc="http://creativecommons.org/ns#"
   xmlns:rdf="http://www.w3.org/1999/02/22-rdf-syntax-ns#"
   xmlns:svg="http://www.w3.org/2000/svg"
   xmlns="http://www.w3.org/2000/svg"
   xmlns:xlink="http://www.w3.org/1999/xlink"
   xmlns:sodipodi="http://sodipodi.sourceforge.net/DTD/sodipodi-0.dtd"
   xmlns:inkscape="http://www.inkscape.org/namespaces/inkscape"
   version="1.2"
   width="108.84304mm"
   height="14.625997mm"
   viewBox="0 0 61.937702 8.3229997"
   id="svg6052"
   sodipodi:docname="Untitled.svg"
   inkscape:version="1.0.1 (c497b03c, 2020-09-10)">
  <metadata
     id="metadata6058">
    <rdf:RDF>
      <cc:Work
         rdf:about="">
        <dc:format>image/svg+xml</dc:format>
        <dc:type
           rdf:resource="http://purl.org/dc/dcmitype/StillImage" />
      </cc:Work>
    </rdf:RDF>
  </metadata>
  <defs
     id="defs6056" />
  <sodipodi:namedview
     pagecolor="#ffffff"
     bordercolor="#666666"
     borderopacity="1"
     objecttolerance="10"
     gridtolerance="10"
     guidetolerance="10"
     inkscape:pageopacity="0"
     inkscape:pageshadow="2"
     inkscape:window-width="740"
     inkscape:window-height="480"
     id="namedview6054"
     showgrid="false"
     fit-margin-top="0"
     fit-margin-left="0"
     fit-margin-right="0"
     fit-margin-bottom="0"
     inkscape:zoom="0.78872421"
     inkscape:cx="-46.683873"
     inkscape:cy="23.333455"
     inkscape:window-x="0"
     inkscape:window-y="25"
     inkscape:window-maximized="0"
     inkscape:current-layer="svg6052" />
  <style
     text="style/css"
     id="style5904"><![CDATA[
tspan { white-space: pre; }
]]></style>
  <!-- Page: 1/1 -->
  <text
     font-family="serif"
     font-size="2.2001px"
     text-anchor="start"
     fill="currentColor"
     id="text5908"
     x="-8.5358"
     y="-0.98500001"><tspan
       id="tspan5906" /></text>
  <line
     stroke-linejoin="round"
     stroke-linecap="round"
     stroke-width="0.1"
     stroke="currentColor"
     x1="0.050000001"
     y1="5.7789998"
     x2="61.887699"
     y2="5.7789998"
     id="line5910" />
  <line
     stroke-linejoin="round"
     stroke-linecap="round"
     stroke-width="0.1"
     stroke="currentColor"
     x1="0.050000001"
     y1="4.7789998"
     x2="61.887699"
     y2="4.7789998"
     id="line5912" />
  <line
     stroke-linejoin="round"
     stroke-linecap="round"
     stroke-width="0.1"
     stroke="currentColor"
     x1="0.050000001"
     y1="3.779"
     x2="61.887699"
     y2="3.779"
     id="line5914" />
  <line
     stroke-linejoin="round"
     stroke-linecap="round"
     stroke-width="0.1"
     stroke="currentColor"
     x1="0.050000001"
     y1="2.779"
     x2="61.887699"
     y2="2.779"
     id="line5916" />
  <line
     stroke-linejoin="round"
     stroke-linecap="round"
     stroke-width="0.1"
     stroke="currentColor"
     x1="0.050000001"
     y1="1.779"
     x2="61.887699"
     y2="1.779"
     id="line5918" />
  <rect
     x="49.002899"
     y="1.779"
     width="0.19"
     height="4"
     ry="0.0000"
     fill="currentColor"
     id="rect5920" />
  <rect
     x="34.539501"
     y="1.779"
     width="0.19"
     height="4"
     ry="0.0000"
     fill="currentColor"
     id="rect5922" />
  <rect
     x="61.7477"
     y="1.779"
     width="0.19"
     height="4"
     ry="0.0000"
     fill="currentColor"
     id="rect5924" />
  <rect
     x="20.9233"
     y="1.779"
     width="0.19"
     height="4"
     ry="0.0000"
     fill="currentColor"
     id="rect5926" />
  <rect
     x="55.771397"
     y="6.6789999"
     width="1.9563"
     height="0.2"
     ry="0.1"
     fill="currentColor"
     id="rect5928" />
  <rect
     x="55.771397"
     y="7.6789999"
     width="1.9563"
     height="0.2"
     ry="0.1"
     fill="currentColor"
     id="rect5930" />
  <rect
     x="52.7691"
     y="6.6789999"
     width="1.9563"
     height="0.2"
     ry="0.1"
     fill="currentColor"
     id="rect5932" />
  <rect
     x="49.766899"
     y="6.6789999"
     width="1.9563"
     height="0.2"
     ry="0.1"
     fill="currentColor"
     id="rect5934" />
  <rect
     x="14.378501"
     y="6.6789999"
     width="1.9563"
     height="0.2"
     ry="0.1"
     fill="currentColor"
     id="rect5936" />
  <rect
     x="11.376201"
     y="6.6789999"
     width="1.9563"
     height="0.2"
     ry="0.1"
     fill="currentColor"
     id="rect5938" />
  <rect
     x="8.3739996"
     y="6.6789999"
     width="1.9563"
     height="0.2"
     ry="0.1"
     fill="currentColor"
     id="rect5940" />
  <rect
     x="8.3739996"
     y="7.6789999"
     width="1.9563"
     height="0.2"
     ry="0.1"
     fill="currentColor"
     id="rect5942" />
  <a
     style="color:inherit"
     xlink:href="textedit:///private/tmp/Untitled.ly:34:34:35"
     id="a5946"
     transform="translate(-14.2264,-3.8303)">
    <path
       transform="matrix(0.004,0,0,-0.004,70.3238,11.6093)"
       d="m 218,136 c 55,0 108,-28 108,-89 0,-71 -55,-121 -102,-149 -35,-21 -75,-34 -116,-34 -55,0 -108,28 -108,89 0,71 55,121 102,149 35,21 75,34 116,34 z"
       fill="currentColor"
       id="path5944" />
  </a>
  <a
     style="color:inherit"
     xlink:href="textedit:///private/tmp/Untitled.ly:34:32:33"
     id="a5950"
     transform="translate(-14.2264,-3.8303)">
    <path
       transform="matrix(0.004,0,0,-0.004,67.3215,11.1093)"
       d="m 218,136 c 55,0 108,-28 108,-89 0,-71 -55,-121 -102,-149 -35,-21 -75,-34 -116,-34 -55,0 -108,28 -108,89 0,71 55,121 102,149 35,21 75,34 116,34 z"
       fill="currentColor"
       id="path5948" />
  </a>
  <rect
     x="54.269299"
     y="3.779"
     width="0.13"
     height="3.3139"
     ry="0.039999999"
     fill="currentColor"
     id="rect5952" />
  <rect
     x="57.271599"
     y="3.779"
     width="0.13"
     height="3.8139"
     ry="0.039999999"
     fill="currentColor"
     id="rect5954" />
  <a
     style="color:inherit"
     xlink:href="textedit:///private/tmp/Untitled.ly:34:36:37"
     id="a5958"
     transform="translate(-14.2264,-3.8303)">
    <path
       transform="matrix(0.004,0,0,-0.004,73.326,7.6093)"
       d="m -23,-116 c 0,28 11,42 40,42 33,0 78,-13 119,-31 L 4,53 c -7,9 -10,17 -10,25 0,34 50,66 87,99 25,22 37,52 37,83 0,24 -8,49 -25,69 l -35,42 c -3,3 -4,7 -4,10 0,9 9,15 17,15 4,0 8,-1 11,-5 L 233,211 c 7,-9 10,-17 10,-25 0,-34 -50,-66 -87,-99 -25,-22 -37,-52 -37,-83 0,-24 7,-49 24,-69 l 84,-99 c 3,-3 4,-7 4,-10 0,-9 -8,-16 -16,-16 -4,0 -9,2 -12,6 -18,21 -63,38 -97,38 -41,0 -53,-26 -53,-67 0,-35 11,-74 28,-94 7,-8 -5,-19 -12,-11 -45,54 -92,148 -92,202 z"
       fill="currentColor"
       id="path5956" />
  </a>
  <a
     style="color:inherit"
     xlink:href="textedit:///private/tmp/Untitled.ly:34:28:29"
     id="a5962"
     transform="translate(-14.2264,-3.8303)">
    <path
       transform="matrix(0.004,0,0,-0.004,60.0127,10.1093)"
       d="m 218,136 c 55,0 108,-28 108,-89 0,-71 -55,-121 -102,-149 -35,-21 -75,-34 -116,-34 -55,0 -108,28 -108,89 0,71 55,121 102,149 35,21 75,34 116,34 z"
       fill="currentColor"
       id="path5960" />
  </a>
  <rect
     x="46.960499"
     y="2.779"
     width="0.13"
     height="3.3139"
     ry="0.039999999"
     fill="currentColor"
     id="rect5964" />
  <a
     style="color:inherit"
     xlink:href="textedit:///private/tmp/Untitled.ly:34:30:31"
     id="a5968"
     transform="translate(-14.2264,-3.8303)">
    <path
       transform="matrix(0.004,0,0,-0.004,64.3193,10.6093)"
       d="m 218,136 c 55,0 108,-28 108,-89 0,-71 -55,-121 -102,-149 -35,-21 -75,-34 -116,-34 -55,0 -108,28 -108,89 0,71 55,121 102,149 35,21 75,34 116,34 z"
       fill="currentColor"
       id="path5966" />
  </a>
  <rect
     x="51.267101"
     y="3.279"
     width="0.13"
     height="3.3139"
     ry="0.039999999"
     fill="currentColor"
     id="rect5970" />
  <a
     style="color:inherit"
     xlink:href="textedit:///private/tmp/Untitled.ly:34:10:11"
     id="a5974"
     transform="translate(-14.2264,-3.8303)">
    <path
       transform="matrix(0.004,0,0,-0.004,36.2397,9.6093)"
       d="m 218,136 c 55,0 108,-28 108,-89 0,-71 -55,-121 -102,-149 -35,-21 -75,-34 -116,-34 -55,0 -108,28 -108,89 0,71 55,121 102,149 35,21 75,34 116,34 z"
       fill="currentColor"
       id="path5972" />
  </a>
  <a
     style="color:inherit"
     xlink:href="textedit:///private/tmp/Untitled.ly:34:8:9"
     id="a5978"
     transform="translate(-14.2264,-3.8303)">
    <path
       transform="matrix(0.004,0,0,-0.004,31.9331,10.1093)"
       d="m 218,136 c 55,0 108,-28 108,-89 0,-71 -55,-121 -102,-149 -35,-21 -75,-34 -116,-34 -55,0 -108,28 -108,89 0,71 55,121 102,149 35,21 75,34 116,34 z"
       fill="currentColor"
       id="path5976" />
  </a>
  <rect
     x="18.881001"
     y="2.779"
     width="0.13"
     height="3.3139"
     ry="0.039999999"
     fill="currentColor"
     id="rect5980" />
  <rect
     x="15.8787"
     y="3.279"
     width="0.13"
     height="3.3139"
     ry="0.039999999"
     fill="currentColor"
     id="rect5982" />
  <rect
     x="23.1875"
     y="2.279"
     width="0.13"
     height="3.3139"
     ry="0.039999999"
     fill="currentColor"
     id="rect5984" />
  <a
     style="color:inherit"
     xlink:href="textedit:///private/tmp/Untitled.ly:34:4:5"
     id="a5988"
     transform="translate(-14.2264,-3.8303)">
    <path
       transform="matrix(0.004,0,0,-0.004,25.9286,11.1093)"
       d="m 218,136 c 55,0 108,-28 108,-89 0,-71 -55,-121 -102,-149 -35,-21 -75,-34 -116,-34 -55,0 -108,28 -108,89 0,71 55,121 102,149 35,21 75,34 116,34 z"
       fill="currentColor"
       id="path5986" />
  </a>
  <rect
     x="12.8764"
     y="3.779"
     width="0.13"
     height="3.3139"
     ry="0.039999999"
     fill="currentColor"
     id="rect5990" />
  <a
     style="color:inherit"
     xlink:href="textedit:///private/tmp/Untitled.ly:34:6:7"
     id="a5994"
     transform="translate(-14.2264,-3.8303)">
    <path
       transform="matrix(0.004,0,0,-0.004,28.9309,10.6093)"
       d="m 218,136 c 55,0 108,-28 108,-89 0,-71 -55,-121 -102,-149 -35,-21 -75,-34 -116,-34 -55,0 -108,28 -108,89 0,71 55,121 102,149 35,21 75,34 116,34 z"
       fill="currentColor"
       id="path5992" />
  </a>
  <a
     style="color:inherit"
     xlink:href="textedit:///private/tmp/Untitled.ly:34:14:15"
     id="a5998"
     transform="translate(-14.2264,-3.8303)">
    <path
       transform="matrix(0.004,0,0,-0.004,42.5962,8.6093)"
       d="m 218,136 c 55,0 108,-28 108,-89 0,-71 -55,-121 -102,-149 -35,-21 -75,-34 -116,-34 -55,0 -108,28 -108,89 0,71 55,121 102,149 35,21 75,34 116,34 z"
       fill="currentColor"
       id="path5996" />
  </a>
  <a
     style="color:inherit"
     xlink:href="textedit:///private/tmp/Untitled.ly:34:12:13"
     id="a6002"
     transform="translate(-14.2264,-3.8303)">
    <path
       transform="matrix(0.004,0,0,-0.004,39.2419,9.1093)"
       d="m 218,136 c 55,0 108,-28 108,-89 0,-71 -55,-121 -102,-149 -35,-21 -75,-34 -116,-34 -55,0 -108,28 -108,89 0,71 55,121 102,149 35,21 75,34 116,34 z"
       fill="currentColor"
       id="path6000" />
  </a>
  <rect
     x="26.1898"
     y="1.779"
     width="0.13"
     height="3.3139"
     ry="0.039999999"
     fill="currentColor"
     id="rect6004" />
  <rect
     x="29.544001"
     y="1.279"
     width="0.13"
     height="3.3139"
     ry="0.039999999"
     fill="currentColor"
     id="rect6006" />
  <path
     d="m 27.7838,6.027 c 0,0.04 -0.032,0.076 -0.072,0.076 -0.04,0 -0.076,-0.036 -0.076,-0.076 v -0.58 l -0.332,0.124 v 0.632 c 0,0.04 -0.036,0.076 -0.076,0.076 -0.04,0 -0.072,-0.036 -0.072,-0.076 v -0.58 l -0.128,0.048 c -0.008,0.004 -0.02,0.004 -0.028,0.004 -0.044,0 -0.08,-0.036 -0.08,-0.08 v -0.24 c 0,-0.032 0.02,-0.064 0.052,-0.076 l 0.184,-0.064 v -0.64 l -0.128,0.044 c -0.008,0.004 -0.02,0.004 -0.028,0.004 -0.044,0 -0.08,-0.036 -0.08,-0.08 v -0.24 c 0,-0.032 0.02,-0.06 0.052,-0.072 l 0.184,-0.068 V 3.531 c 0,-0.04 0.032,-0.076 0.072,-0.076 0.04,0 0.076,0.036 0.076,0.076 v 0.58 l 0.332,-0.124 V 3.355 c 0,-0.04 0.036,-0.076 0.076,-0.076 0.04,0 0.072,0.036 0.072,0.076 v 0.58 l 0.128,-0.048 c 0.008,-0.004 0.02,-0.004 0.028,-0.004 0.044,0 0.08,0.036 0.08,0.08 v 0.24 c 0,0.032 -0.02,0.064 -0.052,0.076 l -0.184,0.064 v 0.64 l 0.128,-0.044 c 0.008,-0.004 0.02,-0.004 0.028,-0.004 0.044,0 0.08,0.036 0.08,0.08 v 0.24 c 0,0.032 -0.02,0.06 -0.052,0.072 l -0.184,0.068 z m -0.48,-1.508 v 0.64 l 0.332,-0.12 v -0.64 z"
     fill="currentColor"
     id="path6008"
     style="stroke-width:0.004" />
  <a
     style="color:inherit"
     xlink:href="textedit:///private/tmp/Untitled.ly:34:18:19"
     id="a6012"
     transform="translate(-14.2264,-3.8303)">
    <path
       transform="matrix(0.004,0,0,-0.004,45.5984,8.1093)"
       d="m 218,136 c 55,0 108,-28 108,-89 0,-71 -55,-121 -102,-149 -35,-21 -75,-34 -116,-34 -55,0 -108,28 -108,89 0,71 55,121 102,149 35,21 75,34 116,34 z"
       fill="currentColor"
       id="path6010" />
  </a>
  <rect
     x="32.5462"
     y="0.77899998"
     width="0.13"
     height="3.3139"
     ry="0.039999999"
     fill="currentColor"
     id="rect6014" />
  <rect
     x="9.8741999"
     y="3.779"
     width="0.13"
     height="3.8139"
     ry="0.039999999"
     fill="currentColor"
     id="rect6016" />
  <a
     style="color:inherit"
     xlink:href="textedit:///private/tmp/Untitled.ly:34:2:3"
     id="a6020"
     transform="translate(-14.2264,-3.8303)">
    <path
       transform="matrix(0.004,0,0,-0.004,22.9264,11.6093)"
       d="m 218,136 c 55,0 108,-28 108,-89 0,-71 -55,-121 -102,-149 -35,-21 -75,-34 -116,-34 -55,0 -108,28 -108,89 0,71 55,121 102,149 35,21 75,34 116,34 z"
       fill="currentColor"
       id="path6018" />
  </a>
  <path
     d="M 1.864,7.319 H 1.84 c -0.432,0 -0.78,-0.352 -0.78,-0.788 0,-0.232 0.212,-0.412 0.448,-0.412 0.216,0 0.38,0.188 0.38,0.412 0,0.208 -0.172,0.38 -0.38,0.38 -0.044,0 -0.084,-0.008 -0.124,-0.024 0.104,0.156 0.272,0.26 0.468,0.26 H 1.868 Z M 2.644,5.591 C 2.916,5.495 3.096,5.211 3.096,4.935 3.096,4.575 2.832,4.219 2.404,4.175 2.5,4.639 2.588,5.099 2.644,5.591 Z M 1.096,4.667 c 0,0.54 0.516,0.988 1.056,0.988 0.112,0 0.22,-0.008 0.328,-0.024 C 2.424,5.123 2.332,4.651 2.228,4.175 1.912,4.207 1.732,4.419 1.732,4.651 c 0,0.176 0.1,0.364 0.324,0.492 0.02,0.02 0.028,0.04 0.028,0.06 0,0.044 -0.04,0.088 -0.088,0.088 C 1.984,5.291 1.972,5.287 1.96,5.283 1.64,5.111 1.492,4.823 1.492,4.543 1.492,4.191 1.724,3.847 2.132,3.755 2.076,3.523 2.016,3.287 1.948,3.055 1.52,3.539 1.096,4.027 1.096,4.667 Z M 2.14,5.827 C 1.388,5.827 0.808,5.139 0.808,4.331 0.808,3.623 1.332,3.107 1.8,2.567 1.724,2.319 1.652,2.067 1.62,1.807 1.596,1.599 1.592,1.391 1.592,1.183 c 0,-0.46 0.22,-0.896 0.596,-1.168 0.024,-0.02 0.056,-0.02 0.08,0 0.284,0.336 0.532,0.98 0.532,1.432 0,0.572 -0.344,1.02 -0.72,1.456 0.084,0.272 0.156,0.552 0.224,0.828 0.016,0 0.036,-0.004 0.052,-0.004 0.62,0 1.024,0.512 1.024,1.044 0,0.304 -0.132,0.616 -0.428,0.84 C 2.864,5.679 2.764,5.723 2.66,5.755 2.672,5.895 2.68,6.035 2.68,6.175 2.68,6.251 2.676,6.331 2.672,6.407 2.644,6.883 2.32,7.307 1.864,7.319 L 1.868,7.147 C 2.24,7.139 2.48,6.779 2.504,6.383 2.508,6.311 2.512,6.235 2.512,6.163 2.512,6.039 2.508,5.919 2.496,5.795 2.38,5.815 2.264,5.827 2.14,5.827 Z M 2.512,1.115 c 0,-0.22 -0.016,-0.316 -0.08,-0.516 -0.396,0.192 -0.648,0.596 -0.648,1.036 0,0.296 0.072,0.532 0.144,0.776 0.32,-0.388 0.584,-0.792 0.584,-1.296 z"
     fill="currentColor"
     id="path6022"
     style="stroke-width:0.004" />
  <a
     style="color:inherit"
     xlink:href="textedit:///private/tmp/Untitled.ly:32:2:3"
     id="a6024"
     transform="translate(-14.2264,-3.8303)" />
  <path
     d="m 6.436,3.671 c -0.196,0 -0.3,-0.168 -0.3,-0.3 0,-0.152 0.108,-0.308 0.288,-0.308 0.016,0 0.036,0 0.056,0.004 C 6.368,2.919 6.192,2.831 6,2.831 5.576,2.831 5.548,3.123 5.548,3.575 v 0.204 0.204 c 0,0.452 0.028,0.748 0.452,0.748 0.32,0 0.556,-0.28 0.632,-0.604 C 6.64,4.099 6.66,4.087 6.68,4.087 6.704,4.087 6.732,4.103 6.732,4.135 6.732,4.511 6.312,4.831 6,4.831 5.728,4.831 5.452,4.747 5.264,4.551 5.068,4.347 5,4.063 5,3.779 5,3.495 5.068,3.211 5.264,3.007 5.452,2.811 5.728,2.731 6,2.731 c 0.348,0 0.64,0.252 0.7,0.596 0.004,0.02 0.004,0.04 0.004,0.056 0,0.16 -0.12,0.288 -0.268,0.288 z"
     fill="currentColor"
     id="path6026"
     style="stroke-width:0.004" />
  <a
     style="color:inherit"
     xlink:href="textedit:///private/tmp/Untitled.ly:34:24:25"
     id="a6030"
     transform="translate(-14.2264,-3.8303)">
    <path
       transform="matrix(0.004,0,0,-0.004,54.0082,9.1093)"
       d="m 218,136 c 55,0 108,-28 108,-89 0,-71 -55,-121 -102,-149 -35,-21 -75,-34 -116,-34 -55,0 -108,28 -108,89 0,71 55,121 102,149 35,21 75,34 116,34 z"
       fill="currentColor"
       id="path6028" />
  </a>
  <rect
     x="40.956001"
     y="1.779"
     width="0.13"
     height="3.3139"
     ry="0.039999999"
     fill="currentColor"
     id="rect6032" />
  <path
     d="m 36.1935,6.027 c 0,0.04 -0.032,0.076 -0.072,0.076 -0.04,0 -0.076,-0.036 -0.076,-0.076 v -0.58 l -0.332,0.124 v 0.632 c 0,0.04 -0.036,0.076 -0.076,0.076 -0.04,0 -0.072,-0.036 -0.072,-0.076 v -0.58 l -0.128,0.048 c -0.008,0.004 -0.02,0.004 -0.028,0.004 -0.044,0 -0.08,-0.036 -0.08,-0.08 v -0.24 c 0,-0.032 0.02,-0.064 0.052,-0.076 l 0.184,-0.064 v -0.64 l -0.128,0.044 c -0.008,0.004 -0.02,0.004 -0.028,0.004 -0.044,0 -0.08,-0.036 -0.08,-0.08 v -0.24 c 0,-0.032 0.02,-0.06 0.052,-0.072 l 0.184,-0.068 V 3.531 c 0,-0.04 0.032,-0.076 0.072,-0.076 0.04,0 0.076,0.036 0.076,0.076 v 0.58 l 0.332,-0.124 V 3.355 c 0,-0.04 0.036,-0.076 0.076,-0.076 0.04,0 0.072,0.036 0.072,0.076 v 0.58 l 0.128,-0.048 c 0.008,-0.004 0.02,-0.004 0.028,-0.004 0.044,0 0.08,0.036 0.08,0.08 v 0.24 c 0,0.032 -0.02,0.064 -0.052,0.076 l -0.184,0.064 v 0.64 l 0.128,-0.044 c 0.008,-0.004 0.02,-0.004 0.028,-0.004 0.044,0 0.08,0.036 0.08,0.08 v 0.24 c 0,0.032 -0.02,0.06 -0.052,0.072 l -0.184,0.068 z m -0.48,-1.508 v 0.64 l 0.332,-0.12 v -0.64 z"
     fill="currentColor"
     id="path6034"
     style="stroke-width:0.004" />
  <rect
     x="43.958302"
     y="2.279"
     width="0.13"
     height="3.3139"
     ry="0.039999999"
     fill="currentColor"
     id="rect6036" />
  <a
     style="color:inherit"
     xlink:href="textedit:///private/tmp/Untitled.ly:34:26:27"
     id="a6040"
     transform="translate(-14.2264,-3.8303)">
    <path
       transform="matrix(0.004,0,0,-0.004,57.0105,9.6093)"
       d="m 218,136 c 55,0 108,-28 108,-89 0,-71 -55,-121 -102,-149 -35,-21 -75,-34 -116,-34 -55,0 -108,28 -108,89 0,71 55,121 102,149 35,21 75,34 116,34 z"
       fill="currentColor"
       id="path6038" />
  </a>
  <a
     style="color:inherit"
     xlink:href="textedit:///private/tmp/Untitled.ly:34:20:21"
     id="a6044"
     transform="translate(-14.2264,-3.8303)">
    <path
       transform="matrix(0.004,0,0,-0.004,51.0059,8.6093)"
       d="m 218,136 c 55,0 108,-28 108,-89 0,-71 -55,-121 -102,-149 -35,-21 -75,-34 -116,-34 -55,0 -108,28 -108,89 0,71 55,121 102,149 35,21 75,34 116,34 z"
       fill="currentColor"
       id="path6042" />
  </a>
  <rect
     x="37.9538"
     y="1.279"
     width="0.13"
     height="3.3139"
     ry="0.039999999"
     fill="currentColor"
     id="rect6046" />
  <text
     font-family="serif"
     font-size="2.2001px"
     text-anchor="start"
     fill="currentColor"
     id="text6050"
     x="45.524399"
     y="161.76469"><tspan
       id="tspan6048" /></text>
</svg>
