<?xml version="1.0" encoding="UTF-8" standalone="no"?>
<svg
   xmlns:dc="http://purl.org/dc/elements/1.1/"
   xmlns:cc="http://creativecommons.org/ns#"
   xmlns:rdf="http://www.w3.org/1999/02/22-rdf-syntax-ns#"
   xmlns:svg="http://www.w3.org/2000/svg"
   xmlns="http://www.w3.org/2000/svg"
   xmlns:xlink="http://www.w3.org/1999/xlink"
   xmlns:sodipodi="http://sodipodi.sourceforge.net/DTD/sodipodi-0.dtd"
   xmlns:inkscape="http://www.inkscape.org/namespaces/inkscape"
   version="1.2"
   width="111.5962mm"
   height="13.250032mm"
   viewBox="0 0 63.504402 7.5400001"
   id="svg2476"
   sodipodi:docname="Untitled.svg"
   inkscape:version="1.0.1 (c497b03c, 2020-09-10)">
  <metadata
     id="metadata2482">
    <rdf:RDF>
      <cc:Work
         rdf:about="">
        <dc:format>image/svg+xml</dc:format>
        <dc:type
           rdf:resource="http://purl.org/dc/dcmitype/StillImage" />
      </cc:Work>
    </rdf:RDF>
  </metadata>
  <defs
     id="defs2480" />
  <sodipodi:namedview
     pagecolor="#ffffff"
     bordercolor="#666666"
     borderopacity="1"
     objecttolerance="10"
     gridtolerance="10"
     guidetolerance="10"
     inkscape:pageopacity="0"
     inkscape:pageshadow="2"
     inkscape:window-width="740"
     inkscape:window-height="480"
     id="namedview2478"
     showgrid="false"
     fit-margin-top="0"
     fit-margin-left="0"
     fit-margin-right="0"
     fit-margin-bottom="0"
     inkscape:zoom="0.56925505"
     inkscape:cx="-86.397957"
     inkscape:cy="-85.989041"
     inkscape:window-x="0"
     inkscape:window-y="25"
     inkscape:window-maximized="0"
     inkscape:current-layer="svg2476" />
  <style
     text="style/css"
     id="style2340"><![CDATA[
tspan { white-space: pre; }
]]></style>
  <!-- Page: 1/1 -->
  <text
     font-family="serif"
     font-size="2.2001px"
     text-anchor="start"
     fill="currentColor"
     id="text2344"
     x="-8.5358"
     y="-1"><tspan
       id="tspan2342" /></text>
  <line
     stroke-linejoin="round"
     stroke-linecap="round"
     stroke-width="0.1"
     stroke="currentColor"
     x1="0.050000001"
     y1="6"
     x2="63.454399"
     y2="6"
     id="line2346" />
  <line
     stroke-linejoin="round"
     stroke-linecap="round"
     stroke-width="0.1"
     stroke="currentColor"
     x1="0.050000001"
     y1="5"
     x2="63.454399"
     y2="5"
     id="line2348" />
  <line
     stroke-linejoin="round"
     stroke-linecap="round"
     stroke-width="0.1"
     stroke="currentColor"
     x1="0.050000001"
     y1="4"
     x2="63.454399"
     y2="4"
     id="line2350" />
  <line
     stroke-linejoin="round"
     stroke-linecap="round"
     stroke-width="0.1"
     stroke="currentColor"
     x1="0.050000001"
     y1="3"
     x2="63.454399"
     y2="3"
     id="line2352" />
  <line
     stroke-linejoin="round"
     stroke-linecap="round"
     stroke-width="0.1"
     stroke="currentColor"
     x1="0.050000001"
     y1="2"
     x2="63.454399"
     y2="2"
     id="line2354" />
  <rect
     x="37.386101"
     y="2"
     width="0.19"
     height="4"
     ry="0.0000"
     fill="currentColor"
     id="rect2356" />
  <rect
     x="50.455601"
     y="2"
     width="0.19"
     height="4"
     ry="0.0000"
     fill="currentColor"
     id="rect2358" />
  <rect
     x="63.314301"
     y="2"
     width="0.19"
     height="4"
     ry="0.0000"
     fill="currentColor"
     id="rect2360" />
  <rect
     x="34.236401"
     y="0.89999998"
     width="1.9563"
     height="0.2"
     ry="0.1"
     fill="currentColor"
     id="rect2362" />
  <rect
     x="24.2763"
     y="2"
     width="0.19"
     height="4"
     ry="0.0000"
     fill="currentColor"
     id="rect2364" />
  <a
     style="color:inherit"
     xlink:href="textedit:///private/tmp/Untitled.ly:34:33:34"
     id="a2368"
     transform="translate(-14.2264,-3.8453)">
    <path
       transform="matrix(0.004,0,0,-0.004,74.8927,7.8453)"
       d="m -23,-116 c 0,28 11,42 40,42 33,0 78,-13 119,-31 L 4,53 c -7,9 -10,17 -10,25 0,34 50,66 87,99 25,22 37,52 37,83 0,24 -8,49 -25,69 l -35,42 c -3,3 -4,7 -4,10 0,9 9,15 17,15 4,0 8,-1 11,-5 L 233,211 c 7,-9 10,-17 10,-25 0,-34 -50,-66 -87,-99 -25,-22 -37,-52 -37,-83 0,-24 7,-49 24,-69 l 84,-99 c 3,-3 4,-7 4,-10 0,-9 -8,-16 -16,-16 -4,0 -9,2 -12,6 -18,21 -63,38 -97,38 -41,0 -53,-26 -53,-67 0,-35 11,-74 28,-94 7,-8 -5,-19 -12,-11 -45,54 -92,148 -92,202 z"
       fill="currentColor"
       id="path2366" />
  </a>
  <a
     style="color:inherit"
     xlink:href="textedit:///private/tmp/Untitled.ly:34:29:30"
     id="a2372"
     transform="translate(-14.2264,-3.8453)">
    <path
       transform="matrix(0.004,0,0,-0.004,68.9064,7.8453)"
       d="m 218,136 c 55,0 108,-28 108,-89 0,-71 -55,-121 -102,-149 -35,-21 -75,-34 -116,-34 -55,0 -108,28 -108,89 0,71 55,121 102,149 35,21 75,34 116,34 z"
       fill="currentColor"
       id="path2370" />
  </a>
  <rect
     x="54.68"
     y="4.1861"
     width="0.13"
     height="3.1472001"
     ry="0.039999999"
     fill="currentColor"
     id="rect2374" />
  <a
     style="color:inherit"
     xlink:href="textedit:///private/tmp/Untitled.ly:34:31:32"
     id="a2378"
     transform="translate(-14.2264,-3.8453)">
    <path
       transform="matrix(0.004,0,0,-0.004,71.8904,8.3453)"
       d="m 218,136 c 55,0 108,-28 108,-89 0,-71 -55,-121 -102,-149 -35,-21 -75,-34 -116,-34 -55,0 -108,28 -108,89 0,71 55,121 102,149 35,21 75,34 116,34 z"
       fill="currentColor"
       id="path2376" />
  </a>
  <rect
     x="58.838299"
     y="1"
     width="0.13"
     height="3.3139"
     ry="0.039999999"
     fill="currentColor"
     id="rect2380" />
  <a
     style="color:inherit"
     xlink:href="textedit:///private/tmp/Untitled.ly:34:25:26"
     id="a2384"
     transform="translate(-14.2264,-3.8453)">
    <path
       transform="matrix(0.004,0,0,-0.004,61.8807,6.8453)"
       d="m 218,136 c 55,0 108,-28 108,-89 0,-71 -55,-121 -102,-149 -35,-21 -75,-34 -116,-34 -55,0 -108,28 -108,89 0,71 55,121 102,149 35,21 75,34 116,34 z"
       fill="currentColor"
       id="path2382" />
  </a>
  <rect
     x="47.654301"
     y="3.1861"
     width="0.13"
     height="3.3139"
     ry="0.039999999"
     fill="currentColor"
     id="rect2386" />
  <a
     style="color:inherit"
     xlink:href="textedit:///private/tmp/Untitled.ly:34:27:28"
     id="a2390"
     transform="translate(-14.2264,-3.8453)">
    <path
       transform="matrix(0.004,0,0,-0.004,65.9042,7.3453)"
       d="m 218,136 c 55,0 108,-28 108,-89 0,-71 -55,-121 -102,-149 -35,-21 -75,-34 -116,-34 -55,0 -108,28 -108,89 0,71 55,121 102,149 35,21 75,34 116,34 z"
       fill="currentColor"
       id="path2388" />
  </a>
  <rect
     x="51.677799"
     y="3.6861"
     width="0.13"
     height="3.3139"
     ry="0.039999999"
     fill="currentColor"
     id="rect2392" />
  <a
     style="color:inherit"
     xlink:href="textedit:///private/tmp/Untitled.ly:34:7:8"
     id="a2396"
     transform="translate(-14.2264,-3.8453)">
    <path
       transform="matrix(0.004,0,0,-0.004,32.6992,7.3453)"
       d="m 218,136 c 55,0 108,-28 108,-89 0,-71 -55,-121 -102,-149 -35,-21 -75,-34 -116,-34 -55,0 -108,28 -108,89 0,71 55,121 102,149 35,21 75,34 116,34 z"
       fill="currentColor"
       id="path2394" />
  </a>
  <rect
     x="18.472799"
     y="3.6861"
     width="0.13"
     height="3.3139"
     ry="0.039999999"
     fill="currentColor"
     id="rect2398" />
  <a
     style="color:inherit"
     xlink:href="textedit:///private/tmp/Untitled.ly:34:9:10"
     id="a2402"
     transform="translate(-14.2264,-3.8453)">
    <path
       transform="matrix(0.004,0,0,-0.004,35.7014,6.8453)"
       d="m 218,136 c 55,0 108,-28 108,-89 0,-71 -55,-121 -102,-149 -35,-21 -75,-34 -116,-34 -55,0 -108,28 -108,89 0,71 55,121 102,149 35,21 75,34 116,34 z"
       fill="currentColor"
       id="path2400" />
  </a>
  <rect
     x="21.475"
     y="3.1861"
     width="0.13"
     height="3.3139"
     ry="0.039999999"
     fill="currentColor"
     id="rect2404" />
  <a
     style="color:inherit"
     xlink:href="textedit:///private/tmp/Untitled.ly:34:11:12"
     id="a2408"
     transform="translate(-14.2264,-3.8453)">
    <path
       transform="matrix(0.004,0,0,-0.004,39.782,6.3453)"
       d="m 218,136 c 55,0 108,-28 108,-89 0,-71 -55,-121 -102,-149 -35,-21 -75,-34 -116,-34 -55,0 -108,28 -108,89 0,71 55,121 102,149 35,21 75,34 116,34 z"
       fill="currentColor"
       id="path2406" />
  </a>
  <rect
     x="25.555599"
     y="2.6861"
     width="0.13"
     height="3.3139"
     ry="0.039999999"
     fill="currentColor"
     id="rect2410" />
  <a
     style="color:inherit"
     xlink:href="textedit:///private/tmp/Untitled.ly:34:5:6"
     id="a2414"
     transform="translate(-14.2264,-3.8453)">
    <path
       transform="matrix(0.004,0,0,-0.004,29.6969,7.8453)"
       d="m 218,136 c 55,0 108,-28 108,-89 0,-71 -55,-121 -102,-149 -35,-21 -75,-34 -116,-34 -55,0 -108,28 -108,89 0,71 55,121 102,149 35,21 75,34 116,34 z"
       fill="currentColor"
       id="path2412" />
  </a>
  <rect
     x="15.4705"
     y="4.1861"
     width="0.13"
     height="3.1472001"
     ry="0.039999999"
     fill="currentColor"
     id="rect2416" />
  <rect
     x="28.557899"
     y="2.1861"
     width="0.13"
     height="3.3139"
     ry="0.039999999"
     fill="currentColor"
     id="rect2418" />
  <a
     style="color:inherit"
     xlink:href="textedit:///private/tmp/Untitled.ly:34:13:14"
     id="a2422"
     transform="translate(-14.2264,-3.8453)">
    <path
       transform="matrix(0.004,0,0,-0.004,42.7843,5.8453)"
       d="m 218,136 c 55,0 108,-28 108,-89 0,-71 -55,-121 -102,-149 -35,-21 -75,-34 -116,-34 -55,0 -108,28 -108,89 0,71 55,121 102,149 35,21 75,34 116,34 z"
       fill="currentColor"
       id="path2420" />
  </a>
  <a
     style="color:inherit"
     xlink:href="textedit:///private/tmp/Untitled.ly:34:15:16"
     id="a2426"
     transform="translate(-14.2264,-3.8453)">
    <path
       transform="matrix(0.004,0,0,-0.004,45.7866,5.3453)"
       d="m 218,136 c 55,0 108,-28 108,-89 0,-71 -55,-121 -102,-149 -35,-21 -75,-34 -116,-34 -55,0 -108,28 -108,89 0,71 55,121 102,149 35,21 75,34 116,34 z"
       fill="currentColor"
       id="path2424" />
  </a>
  <rect
     x="13.6242"
     y="1"
     width="0.13"
     height="3.3139"
     ry="0.039999999"
     fill="currentColor"
     id="rect2428" />
  <a
     style="color:inherit"
     xlink:href="textedit:///private/tmp/Untitled.ly:34:2:3"
     id="a2432"
     transform="translate(-14.2264,-3.8453)">
    <path
       transform="matrix(0.004,0,0,-0.004,26.6764,8.3453)"
       d="m 218,136 c 55,0 108,-28 108,-89 0,-71 -55,-121 -102,-149 -35,-21 -75,-34 -116,-34 -55,0 -108,28 -108,89 0,71 55,121 102,149 35,21 75,34 116,34 z"
       fill="currentColor"
       id="path2430" />
  </a>
  <path
     d="M 1.864,7.54 H 1.84 C 1.408,7.54 1.06,7.188 1.06,6.752 1.06,6.52 1.272,6.34 1.508,6.34 c 0.216,0 0.38,0.188 0.38,0.412 0,0.208 -0.172,0.38 -0.38,0.38 -0.044,0 -0.084,-0.008 -0.124,-0.024 0.104,0.156 0.272,0.26 0.468,0.26 H 1.868 Z M 2.644,5.812 C 2.916,5.716 3.096,5.432 3.096,5.156 3.096,4.796 2.832,4.44 2.404,4.396 2.5,4.86 2.588,5.32 2.644,5.812 Z M 1.096,4.888 c 0,0.54 0.516,0.988 1.056,0.988 0.112,0 0.22,-0.008 0.328,-0.024 C 2.424,5.344 2.332,4.872 2.228,4.396 1.912,4.428 1.732,4.64 1.732,4.872 c 0,0.176 0.1,0.364 0.324,0.492 0.02,0.02 0.028,0.04 0.028,0.06 0,0.044 -0.04,0.088 -0.088,0.088 C 1.984,5.512 1.972,5.508 1.96,5.504 1.64,5.332 1.492,5.044 1.492,4.764 1.492,4.412 1.724,4.068 2.132,3.976 2.076,3.744 2.016,3.508 1.948,3.276 1.52,3.76 1.096,4.248 1.096,4.888 Z M 2.14,6.048 C 1.388,6.048 0.808,5.36 0.808,4.552 0.808,3.844 1.332,3.328 1.8,2.788 1.724,2.54 1.652,2.288 1.62,2.028 1.596,1.82 1.592,1.612 1.592,1.404 c 0,-0.46 0.22,-0.896 0.596,-1.168 0.024,-0.02 0.056,-0.02 0.08,0 0.284,0.336 0.532,0.98 0.532,1.432 0,0.572 -0.344,1.02 -0.72,1.456 0.084,0.272 0.156,0.552 0.224,0.828 0.016,0 0.036,-0.004 0.052,-0.004 0.62,0 1.024,0.512 1.024,1.044 0,0.304 -0.132,0.616 -0.428,0.84 C 2.864,5.9 2.764,5.944 2.66,5.976 2.672,6.116 2.68,6.256 2.68,6.396 2.68,6.472 2.676,6.552 2.672,6.628 2.644,7.104 2.32,7.528 1.864,7.54 L 1.868,7.368 C 2.24,7.36 2.48,7 2.504,6.604 2.508,6.532 2.512,6.456 2.512,6.384 2.512,6.26 2.508,6.14 2.496,6.016 2.38,6.036 2.264,6.048 2.14,6.048 Z M 2.512,1.336 C 2.512,1.116 2.496,1.02 2.432,0.82 2.036,1.012 1.784,1.416 1.784,1.856 1.784,2.152 1.856,2.388 1.928,2.632 2.248,2.244 2.512,1.84 2.512,1.336 Z"
     fill="currentColor"
     id="path2434"
     style="stroke-width:0.004" />
  <a
     style="color:inherit"
     xlink:href="textedit:///private/tmp/Untitled.ly:32:2:3"
     id="a2442"
     transform="translate(-14.2264,-3.8453)">
    <path
       transform="matrix(0.004,0,0,-0.004,18.5264,5.8453)"
       d="m 216,-312 c 0,-10 -8,-19 -18,-19 -10,0 -19,9 -19,19 v 145 l -83,-31 v -158 c 0,-10 -9,-19 -19,-19 -10,0 -18,9 -18,19 v 145 l -32,-12 c -2,-1 -5,-1 -7,-1 -11,0 -20,9 -20,20 v 60 c 0,8 5,16 13,19 l 46,16 V 51 L 27,40 C 25,39 22,39 20,39 9,39 0,48 0,59 v 60 c 0,8 5,15 13,18 l 46,17 v 158 c 0,10 8,19 18,19 10,0 19,-9 19,-19 V 167 l 83,31 v 158 c 0,10 9,19 19,19 10,0 18,-9 18,-19 V 211 l 32,12 c 2,1 5,1 7,1 11,0 20,-9 20,-20 v -60 c 0,-8 -5,-16 -13,-19 L 216,109 V -51 l 32,11 c 2,1 5,1 7,1 11,0 20,-9 20,-20 v -60 c 0,-8 -5,-15 -13,-18 l -46,-17 z M 96,65 V -95 l 83,30 V 95 Z"
       fill="currentColor"
       id="path2436" />
    <path
       transform="matrix(0.004,0,0,-0.004,19.6264,7.3453)"
       d="m 216,-312 c 0,-10 -8,-19 -18,-19 -10,0 -19,9 -19,19 v 145 l -83,-31 v -158 c 0,-10 -9,-19 -19,-19 -10,0 -18,9 -18,19 v 145 l -32,-12 c -2,-1 -5,-1 -7,-1 -11,0 -20,9 -20,20 v 60 c 0,8 5,16 13,19 l 46,16 V 51 L 27,40 C 25,39 22,39 20,39 9,39 0,48 0,59 v 60 c 0,8 5,15 13,18 l 46,17 v 158 c 0,10 8,19 18,19 10,0 19,-9 19,-19 V 167 l 83,31 v 158 c 0,10 9,19 19,19 10,0 18,-9 18,-19 V 211 l 32,12 c 2,1 5,1 7,1 11,0 20,-9 20,-20 v -60 c 0,-8 -5,-16 -13,-19 L 216,109 V -51 l 32,11 c 2,1 5,1 7,1 11,0 20,-9 20,-20 v -60 c 0,-8 -5,-15 -13,-18 l -46,-17 z M 96,65 V -95 l 83,30 V 95 Z"
       fill="currentColor"
       id="path2438" />
    <path
       transform="matrix(0.004,0,0,-0.004,20.7264,5.3453)"
       d="m 216,-312 c 0,-10 -8,-19 -18,-19 -10,0 -19,9 -19,19 v 145 l -83,-31 v -158 c 0,-10 -9,-19 -19,-19 -10,0 -18,9 -18,19 v 145 l -32,-12 c -2,-1 -5,-1 -7,-1 -11,0 -20,9 -20,20 v 60 c 0,8 5,16 13,19 l 46,16 V 51 L 27,40 C 25,39 22,39 20,39 9,39 0,48 0,59 v 60 c 0,8 5,15 13,18 l 46,17 v 158 c 0,10 8,19 18,19 10,0 19,-9 19,-19 V 167 l 83,31 v 158 c 0,10 9,19 19,19 10,0 18,-9 18,-19 V 211 l 32,12 c 2,1 5,1 7,1 11,0 20,-9 20,-20 v -60 c 0,-8 -5,-16 -13,-19 L 216,109 V -51 l 32,11 c 2,1 5,1 7,1 11,0 20,-9 20,-20 v -60 c 0,-8 -5,-15 -13,-18 l -46,-17 z M 96,65 V -95 l 83,30 V 95 Z"
       fill="currentColor"
       id="path2440" />
  </a>
  <path
     d="m 10.186,3.892 c -0.196,0 -0.3,-0.168 -0.3,-0.3 0,-0.152 0.108,-0.308 0.288,-0.308 0.016,0 0.036,0 0.056,0.004 C 10.118,3.14 9.942,3.052 9.75,3.052 9.326,3.052 9.298,3.344 9.298,3.796 V 4 4.204 c 0,0.452 0.028,0.748 0.452,0.748 0.32,0 0.556,-0.28 0.632,-0.604 0.008,-0.028 0.028,-0.04 0.048,-0.04 0.024,0 0.052,0.016 0.052,0.048 0,0.376 -0.42,0.696 -0.732,0.696 C 9.478,5.052 9.202,4.968 9.014,4.772 8.818,4.568 8.75,4.284 8.75,4 8.75,3.716 8.818,3.432 9.014,3.228 9.202,3.032 9.478,2.952 9.75,2.952 c 0.348,0 0.64,0.252 0.7,0.596 0.004,0.02 0.004,0.04 0.004,0.056 0,0.16 -0.12,0.288 -0.268,0.288 z"
     fill="currentColor"
     id="path2444"
     style="stroke-width:0.004" />
  <rect
     x="31.5602"
     y="1.6861"
     width="0.13"
     height="3.3139"
     ry="0.039999999"
     fill="currentColor"
     id="rect2446" />
  <a
     style="color:inherit"
     xlink:href="textedit:///private/tmp/Untitled.ly:34:21:22"
     id="a2450"
     transform="translate(-14.2264,-3.8453)">
    <path
       transform="matrix(0.004,0,0,-0.004,55.8762,5.8453)"
       d="m 218,136 c 55,0 108,-28 108,-89 0,-71 -55,-121 -102,-149 -35,-21 -75,-34 -116,-34 -55,0 -108,28 -108,89 0,71 55,121 102,149 35,21 75,34 116,34 z"
       fill="currentColor"
       id="path2448" />
  </a>
  <rect
     x="41.649799"
     y="2.1861"
     width="0.13"
     height="3.3139"
     ry="0.039999999"
     fill="currentColor"
     id="rect2452" />
  <a
     style="color:inherit"
     xlink:href="textedit:///private/tmp/Untitled.ly:34:23:24"
     id="a2456"
     transform="translate(-14.2264,-3.8453)">
    <path
       transform="matrix(0.004,0,0,-0.004,58.8784,6.3453)"
       d="m 218,136 c 55,0 108,-28 108,-89 0,-71 -55,-121 -102,-149 -35,-21 -75,-34 -116,-34 -55,0 -108,28 -108,89 0,71 55,121 102,149 35,21 75,34 116,34 z"
       fill="currentColor"
       id="path2454" />
  </a>
  <rect
     x="44.652"
     y="2.6861"
     width="0.13"
     height="3.3139"
     ry="0.039999999"
     fill="currentColor"
     id="rect2458" />
  <rect
     x="34.562401"
     y="1.1861"
     width="0.13"
     height="3.3139"
     ry="0.039999999"
     fill="currentColor"
     id="rect2460" />
  <a
     style="color:inherit"
     xlink:href="textedit:///private/tmp/Untitled.ly:34:19:20"
     id="a2464"
     transform="translate(-14.2264,-3.8453)">
    <path
       transform="matrix(0.004,0,0,-0.004,52.8739,5.3453)"
       d="m 218,136 c 55,0 108,-28 108,-89 0,-71 -55,-121 -102,-149 -35,-21 -75,-34 -116,-34 -55,0 -108,28 -108,89 0,71 55,121 102,149 35,21 75,34 116,34 z"
       fill="currentColor"
       id="path2462" />
  </a>
  <a
     style="color:inherit"
     xlink:href="textedit:///private/tmp/Untitled.ly:34:17:18"
     id="a2468"
     transform="translate(-14.2264,-3.8453)">
    <path
       transform="matrix(0.004,0,0,-0.004,48.7888,4.8453)"
       d="m 218,136 c 55,0 108,-28 108,-89 0,-71 -55,-121 -102,-149 -35,-21 -75,-34 -116,-34 -55,0 -108,28 -108,89 0,71 55,121 102,149 35,21 75,34 116,34 z"
       fill="currentColor"
       id="path2466" />
  </a>
  <rect
     x="38.647499"
     y="1.6861"
     width="0.13"
     height="3.3139"
     ry="0.039999999"
     fill="currentColor"
     id="rect2470" />
  <text
     font-family="serif"
     font-size="2.2001px"
     text-anchor="start"
     fill="currentColor"
     id="text2474"
     x="45.524399"
     y="161.74969"><tspan
       id="tspan2472" /></text>
</svg>
