<svg xmlns="http://www.w3.org/2000/svg" xmlns:xlink="http://www.w3.org/1999/xlink" version="1.2" width="100.00mm" height="17.00mm" viewBox="0 0 56.9055 9.6739">
<style text="style/css">
<![CDATA[
tspan { white-space: pre; }
]]>
</style>
<!-- Page: 1/1 -->
<text transform="translate(0.0000, -0.0000)" font-family="serif" font-size="2.2001" text-anchor="start" fill="currentColor">
<tspan/>
</text>
<line transform="translate(2.5607, 6.5000)" stroke-linejoin="round" stroke-linecap="round" stroke-width="0.1000" stroke="currentColor" x1="0.0500" y1="-0.0000" x2="52.8721" y2="-0.0000"/>
<line transform="translate(2.5607, 5.5000)" stroke-linejoin="round" stroke-linecap="round" stroke-width="0.1000" stroke="currentColor" x1="0.0500" y1="-0.0000" x2="52.8721" y2="-0.0000"/>
<line transform="translate(2.5607, 4.5000)" stroke-linejoin="round" stroke-linecap="round" stroke-width="0.1000" stroke="currentColor" x1="0.0500" y1="-0.0000" x2="52.8721" y2="-0.0000"/>
<line transform="translate(2.5607, 3.5000)" stroke-linejoin="round" stroke-linecap="round" stroke-width="0.1000" stroke="currentColor" x1="0.0500" y1="-0.0000" x2="52.8721" y2="-0.0000"/>
<line transform="translate(2.5607, 2.5000)" stroke-linejoin="round" stroke-linecap="round" stroke-width="0.1000" stroke="currentColor" x1="0.0500" y1="-0.0000" x2="52.8721" y2="-0.0000"/>
<rect transform="translate(45.4821, 4.5000)" x="0.0000" y="-2.0000" width="0.1900" height="4.0000" ry="0.0000" fill="currentColor"/>
<rect transform="translate(32.0369, 4.5000)" x="0.0000" y="-2.0000" width="0.1900" height="4.0000" ry="0.0000" fill="currentColor"/>
<rect transform="translate(55.2929, 4.5000)" x="0.0000" y="-2.0000" width="0.1900" height="4.0000" ry="0.0000" fill="currentColor"/>
<rect transform="translate(20.2909, 4.5000)" x="0.0000" y="-2.0000" width="0.1900" height="4.0000" ry="0.0000" fill="currentColor"/>
<rect transform="translate(52.2977, 4.5000)" x="-0.0650" y="-2.5000" width="0.1300" height="3.3139" ry="0.0400" fill="currentColor"/>
<a style="color:inherit;" xlink:href="textedit:///tmp/temp.ly:19:38:39">
<path transform="translate(48.7642, 5.0000) scale(0.0040, -0.0040)" d="M218 136c55 0 108 -28 108 -89c0 -71 -55 -121 -102 -149c-35 -21 -75 -34 -116 -34c-55 0 -108 28 -108 89c0 71 55 121 102 149c35 21 75 34 116 34z" fill="currentColor"/>
</a>
<rect transform="translate(50.0034, 4.5000)" x="-0.0650" y="-3.0000" width="0.1300" height="3.3139" ry="0.0400" fill="currentColor"/>
<a style="color:inherit;" xlink:href="textedit:///tmp/temp.ly:19:40:41">
<path transform="translate(51.0585, 5.5000) scale(0.0040, -0.0040)" d="M218 136c55 0 108 -28 108 -89c0 -71 -55 -121 -102 -149c-35 -21 -75 -34 -116 -34c-55 0 -108 28 -108 89c0 71 55 121 102 149c35 21 75 34 116 34z" fill="currentColor"/>
</a>
<a style="color:inherit;" xlink:href="textedit:///tmp/temp.ly:19:34:35">
<path transform="translate(43.3531, 4.0000) scale(0.0040, -0.0040)" d="M218 136c55 0 108 -28 108 -89c0 -71 -55 -121 -102 -149c-35 -21 -75 -34 -116 -34c-55 0 -108 28 -108 89c0 71 55 121 102 149c35 21 75 34 116 34z" fill="currentColor"/>
</a>
<rect transform="translate(43.4181, 4.5000)" x="-0.0650" y="-0.3139" width="0.1300" height="3.3139" ry="0.0400" fill="currentColor"/>
<a style="color:inherit;" xlink:href="textedit:///tmp/temp.ly:19:36:37">
<path transform="translate(46.4881, 4.5000) scale(0.0040, -0.0040)" d="M218 136c55 0 108 -28 108 -89c0 -71 -55 -121 -102 -149c-35 -21 -75 -34 -116 -34c-55 0 -108 28 -108 89c0 71 55 121 102 149c35 21 75 34 116 34z" fill="currentColor"/>
</a>
<rect transform="translate(46.5531, 4.5000)" x="-0.0650" y="0.1861" width="0.1300" height="3.1472" ry="0.0400" fill="currentColor"/>
<a style="color:inherit;" xlink:href="textedit:///tmp/temp.ly:19:10:11">
<path transform="translate(15.8676, 4.5000) scale(0.0040, -0.0040)" d="M218 136c55 0 108 -28 108 -89c0 -71 -55 -121 -102 -149c-35 -21 -75 -34 -116 -34c-55 0 -108 28 -108 89c0 71 55 121 102 149c35 21 75 34 116 34z" fill="currentColor"/>
</a>
<a style="color:inherit;" xlink:href="textedit:///tmp/temp.ly:19:8:9">
<path transform="translate(13.5550, 5.0000) scale(0.0040, -0.0040)" d="M218 136c55 0 108 -28 108 -89c0 -71 -55 -121 -102 -149c-35 -21 -75 -34 -116 -34c-55 0 -108 28 -108 89c0 71 55 121 102 149c35 21 75 34 116 34z" fill="currentColor"/>
</a>
<rect transform="translate(14.7943, 4.5000)" x="-0.0650" y="-3.0000" width="0.1300" height="3.3139" ry="0.0400" fill="currentColor"/>
<a style="color:inherit;" xlink:href="textedit:///tmp/temp.ly:19:14:15">
<path transform="translate(21.3541, 3.5000) scale(0.0040, -0.0040)" d="M218 136c55 0 108 -28 108 -89c0 -71 -55 -121 -102 -149c-35 -21 -75 -34 -116 -34c-55 0 -108 28 -108 89c0 71 55 121 102 149c35 21 75 34 116 34z" fill="currentColor"/>
</a>
<rect transform="translate(15.9326, 4.5000)" x="-0.0650" y="0.1861" width="0.1300" height="3.1472" ry="0.0400" fill="currentColor"/>
<a style="color:inherit;" xlink:href="textedit:///tmp/temp.ly:19:12:13">
<path transform="translate(18.1619, 4.0000) scale(0.0040, -0.0040)" d="M218 136c55 0 108 -28 108 -89c0 -71 -55 -121 -102 -149c-35 -21 -75 -34 -116 -34c-55 0 -108 28 -108 89c0 71 55 121 102 149c35 21 75 34 116 34z" fill="currentColor"/>
</a>
<rect transform="translate(18.2269, 4.5000)" x="-0.0650" y="-0.3139" width="0.1300" height="3.3139" ry="0.0400" fill="currentColor"/>
<rect transform="translate(21.4191, 4.5000)" x="-0.0650" y="-0.8139" width="0.1300" height="3.3139" ry="0.0400" fill="currentColor"/>
<a style="color:inherit;" xlink:href="textedit:///tmp/temp.ly:19:42:43">
<path transform="translate(53.3528, 4.5000) scale(0.0040, -0.0040)" d="M-23 -116c0 28 11 42 40 42c33 0 78 -13 119 -31l-132 158c-7 9 -10 17 -10 25c0 34 50 66 87 99c25 22 37 52 37 83c0 24 -8 49 -25 69l-35 42c-3 3 -4 7 -4 10c0 9 9 15 17 15c4 0 8 -1 11 -5l151 -180c7 -9 10 -17 10 -25c0 -34 -50 -66 -87 -99
c-25 -22 -37 -52 -37 -83c0 -24 7 -49 24 -69l84 -99c3 -3 4 -7 4 -10c0 -9 -8 -16 -16 -16c-4 0 -9 2 -12 6c-18 21 -63 38 -97 38c-41 0 -53 -26 -53 -67c0 -35 11 -74 28 -94c7 -8 -5 -19 -12 -11c-45 54 -92 148 -92 202z" fill="currentColor"/>
</a>
<a style="color:inherit;" xlink:href="textedit:///tmp/temp.ly:19:16:17">
<path transform="translate(24.5083, 3.0000) scale(0.0040, -0.0040)" d="M218 136c55 0 108 -28 108 -89c0 -71 -55 -121 -102 -149c-35 -21 -75 -34 -116 -34c-55 0 -108 28 -108 89c0 71 55 121 102 149c35 21 75 34 116 34z" fill="currentColor"/>
</a>
<rect transform="translate(24.5733, 4.5000)" x="-0.0650" y="-1.3139" width="0.1300" height="3.3139" ry="0.0400" fill="currentColor"/>
<path transform="translate(23.0583, 3.0000) scale(0.0040, -0.0040)" d="M216 -312c0 -10 -8 -19 -18 -19s-19 9 -19 19v145l-83 -31v-158c0 -10 -9 -19 -19 -19s-18 9 -18 19v145l-32 -12c-2 -1 -5 -1 -7 -1c-11 0 -20 9 -20 20v60c0 8 5 16 13 19l46 16v160l-32 -11c-2 -1 -5 -1 -7 -1c-11 0 -20 9 -20 20v60c0 8 5 15 13 18l46 17v158
c0 10 8 19 18 19s19 -9 19 -19v-145l83 31v158c0 10 9 19 19 19s18 -9 18 -19v-145l32 12c2 1 5 1 7 1c11 0 20 -9 20 -20v-60c0 -8 -5 -16 -13 -19l-46 -16v-160l32 11c2 1 5 1 7 1c11 0 20 -9 20 -20v-60c0 -8 -5 -15 -13 -18l-46 -17v-158zM96 65v-160l83 30v160z" fill="currentColor"/>
<a style="color:inherit;" xlink:href="textedit:///tmp/temp.ly:19:20:21">
<path transform="translate(27.6625, 2.5000) scale(0.0040, -0.0040)" d="M218 136c55 0 108 -28 108 -89c0 -71 -55 -121 -102 -149c-35 -21 -75 -34 -116 -34c-55 0 -108 28 -108 89c0 71 55 121 102 149c35 21 75 34 116 34z" fill="currentColor"/>
</a>
<rect transform="translate(27.7275, 4.5000)" x="-0.0650" y="-1.8139" width="0.1300" height="3.3139" ry="0.0400" fill="currentColor"/>
<path transform="translate(26.2125, 2.5000) scale(0.0040, -0.0040)" d="M216 -312c0 -10 -8 -19 -18 -19s-19 9 -19 19v145l-83 -31v-158c0 -10 -9 -19 -19 -19s-18 9 -18 19v145l-32 -12c-2 -1 -5 -1 -7 -1c-11 0 -20 9 -20 20v60c0 8 5 16 13 19l46 16v160l-32 -11c-2 -1 -5 -1 -7 -1c-11 0 -20 9 -20 20v60c0 8 5 15 13 18l46 17v158
c0 10 8 19 18 19s19 -9 19 -19v-145l83 31v158c0 10 9 19 19 19s18 -9 18 -19v-145l32 12c2 1 5 1 7 1c11 0 20 -9 20 -20v-60c0 -8 -5 -16 -13 -19l-46 -16v-160l32 11c2 1 5 1 7 1c11 0 20 -9 20 -20v-60c0 -8 -5 -15 -13 -18l-46 -17v-158zM96 65v-160l83 30v160z" fill="currentColor"/>
<path transform="translate(7.5607, 4.5000) scale(0.0040, -0.0040)" d="M359 27c-49 0 -75 42 -75 75c0 38 27 77 72 77c4 0 9 0 14 -1c-28 37 -72 59 -120 59c-106 0 -113 -73 -113 -186v-51v-51c0 -113 7 -187 113 -187c80 0 139 70 158 151c2 7 7 10 12 10c6 0 13 -4 13 -12c0 -94 -105 -174 -183 -174c-68 0 -137 21 -184 70
c-49 51 -66 122 -66 193s17 142 66 193c47 49 116 69 184 69c87 0 160 -63 175 -149c1 -5 1 -10 1 -14c0 -40 -30 -72 -67 -72z" fill="currentColor"/>
<a style="color:inherit;" xlink:href="textedit:///tmp/temp.ly:19:6:7">
<path transform="translate(11.2607, 5.5000) scale(0.0040, -0.0040)" d="M218 136c55 0 108 -28 108 -89c0 -71 -55 -121 -102 -149c-35 -21 -75 -34 -116 -34c-55 0 -108 28 -108 89c0 71 55 121 102 149c35 21 75 34 116 34z" fill="currentColor"/>
</a>
<path transform="translate(3.3607, 4.5000) scale(0.0040, -0.0040)" d="M318 0c0 -33 7 -73 45 -73c29 0 57 31 88 31c123 0 229 -89 229 -208c0 -169 -93 -250 -265 -250c-83 0 -152 61 -152 142c0 42 34 77 76 77s76 -35 76 -77c0 -39 -49 -37 -49 -76c0 -23 24 -38 49 -38c116 0 140 90 140 222c0 106 -12 180 -104 180
c-72 0 -119 -71 -119 -149c0 -9 -7 -14 -14 -14s-13 5 -13 14c0 76 -31 147 -84 200v-471c0 -6 -4 -10 -10 -10h-21c-6 0 -10 4 -10 10v980c0 6 4 10 10 10h21c6 0 10 -4 10 -10v-471c53 53 84 124 84 200c0 9 6 14 13 14s14 -5 14 -14c0 -78 47 -149 119 -149
c92 0 104 74 104 180c0 132 -24 222 -140 222c-25 0 -49 -15 -49 -38c0 -39 49 -37 49 -76c0 -42 -34 -77 -76 -77s-76 35 -76 77c0 81 69 142 152 142c172 0 265 -81 265 -250c0 -119 -106 -208 -229 -208c-31 0 -59 31 -88 31c-38 0 -45 -40 -45 -73zM129 -500h-119
c-6 0 -10 4 -10 10v980c0 6 4 10 10 10h119c6 0 10 -4 10 -10v-980c0 -6 -4 -10 -10 -10z" fill="currentColor"/>
<a style="color:inherit;" xlink:href="textedit:///tmp/temp.ly:18:4:5">
</a>
<rect transform="translate(41.1238, 4.5000)" x="-0.0650" y="-0.8139" width="0.1300" height="3.3139" ry="0.0400" fill="currentColor"/>
<rect transform="translate(12.5000, 4.5000)" x="-0.0650" y="-2.5000" width="0.1300" height="3.3139" ry="0.0400" fill="currentColor"/>
<rect transform="translate(38.8295, 4.5000)" x="-0.0650" y="-1.3139" width="0.1300" height="3.3139" ry="0.0400" fill="currentColor"/>
<a style="color:inherit;" xlink:href="textedit:///tmp/temp.ly:19:29:30">
<path transform="translate(38.7645, 3.0000) scale(0.0040, -0.0040)" d="M218 136c55 0 108 -28 108 -89c0 -71 -55 -121 -102 -149c-35 -21 -75 -34 -116 -34c-55 0 -108 28 -108 89c0 71 55 121 102 149c35 21 75 34 116 34z" fill="currentColor"/>
</a>
<a style="color:inherit;" xlink:href="textedit:///tmp/temp.ly:19:24:25">
<path transform="translate(29.9568, 2.0000) scale(0.0040, -0.0040)" d="M218 136c55 0 108 -28 108 -89c0 -71 -55 -121 -102 -149c-35 -21 -75 -34 -116 -34c-55 0 -108 28 -108 89c0 71 55 121 102 149c35 21 75 34 116 34z" fill="currentColor"/>
</a>
<path transform="translate(37.8144, 3.0000) scale(0.0040, -0.0040)" d="M100 0c0 85 -11 173 -60 243c-2 2 -3 5 -3 7c0 7 6 13 13 13c4 0 7 -2 10 -6c53 -76 90 -164 90 -257s-37 -181 -90 -257c-3 -4 -6 -6 -10 -6c-7 0 -13 6 -13 13c0 2 1 5 3 7c49 70 60 158 60 243z" fill="currentColor"/>
<path transform="translate(37.1478, 3.0000) scale(0.0040, -0.0040)" d="M-100 0c0 -85 11 -173 60 -243c2 -2 3 -5 3 -7c0 -7 -6 -13 -13 -13c-4 0 -7 2 -10 6c-53 76 -90 164 -90 257s37 181 90 257c3 4 6 6 10 6c7 0 13 -6 13 -13c0 -2 -1 -5 -3 -7c-49 -70 -60 -158 -60 -243z" fill="currentColor"/>
<path transform="translate(37.1478, 3.0000) scale(0.0040, -0.0040)" d="M-8 375c8 4 17 7 26 7s16 -3 24 -7l-2 -183l106 20h3c10 0 18 -7 18 -17l7 -570c-8 -4 -16 -7 -25 -7s-17 3 -25 7l3 183l-106 -20h-3c-10 0 -18 7 -18 17zM131 112l-92 -17l-3 -207l92 17z" fill="currentColor"/>
<a style="color:inherit;" xlink:href="textedit:///tmp/temp.ly:19:32:33">
<path transform="translate(41.0588, 3.5000) scale(0.0040, -0.0040)" d="M218 136c55 0 108 -28 108 -89c0 -71 -55 -121 -102 -149c-35 -21 -75 -34 -116 -34c-55 0 -108 28 -108 89c0 71 55 121 102 149c35 21 75 34 116 34z" fill="currentColor"/>
</a>
<path transform="translate(33.9935, 2.5000) scale(0.0040, -0.0040)" d="M100 0c0 85 -11 173 -60 243c-2 2 -3 5 -3 7c0 7 6 13 13 13c4 0 7 -2 10 -6c53 -76 90 -164 90 -257s-37 -181 -90 -257c-3 -4 -6 -6 -10 -6c-7 0 -13 6 -13 13c0 2 1 5 3 7c49 70 60 158 60 243z" fill="currentColor"/>
<path transform="translate(33.3269, 2.5000) scale(0.0040, -0.0040)" d="M-100 0c0 -85 11 -173 60 -243c2 -2 3 -5 3 -7c0 -7 -6 -13 -13 -13c-4 0 -7 2 -10 6c-53 76 -90 164 -90 257s37 181 90 257c3 4 6 6 10 6c7 0 13 -6 13 -13c0 -2 -1 -5 -3 -7c-49 -70 -60 -158 -60 -243z" fill="currentColor"/>
<path transform="translate(33.3269, 2.5000) scale(0.0040, -0.0040)" d="M-8 375c8 4 17 7 26 7s16 -3 24 -7l-2 -183l106 20h3c10 0 18 -7 18 -17l7 -570c-8 -4 -16 -7 -25 -7s-17 3 -25 7l3 183l-106 -20h-3c-10 0 -18 7 -18 17zM131 112l-92 -17l-3 -207l92 17z" fill="currentColor"/>
<rect transform="translate(30.0218, 4.5000)" x="-0.0650" y="-2.3139" width="0.1300" height="3.3139" ry="0.0400" fill="currentColor"/>
<a style="color:inherit;" xlink:href="textedit:///tmp/temp.ly:19:26:27">
<path transform="translate(34.9436, 2.5000) scale(0.0040, -0.0040)" d="M218 136c55 0 108 -28 108 -89c0 -71 -55 -121 -102 -149c-35 -21 -75 -34 -116 -34c-55 0 -108 28 -108 89c0 71 55 121 102 149c35 21 75 34 116 34z" fill="currentColor"/>
</a>
<rect transform="translate(35.0086, 4.5000)" x="-0.0650" y="-1.8139" width="0.1300" height="3.3139" ry="0.0400" fill="currentColor"/>
<text transform="translate(28.4528, 9.6739)" font-family="serif" font-size="2.2001" text-anchor="start" fill="currentColor">
<tspan/>
</text>
</svg>
