<?xml version="1.0" encoding="UTF-8" standalone="no"?>
<svg
   xmlns:dc="http://purl.org/dc/elements/1.1/"
   xmlns:cc="http://creativecommons.org/ns#"
   xmlns:rdf="http://www.w3.org/1999/02/22-rdf-syntax-ns#"
   xmlns:svg="http://www.w3.org/2000/svg"
   xmlns="http://www.w3.org/2000/svg"
   xmlns:xlink="http://www.w3.org/1999/xlink"
   xmlns:sodipodi="http://sodipodi.sourceforge.net/DTD/sodipodi-0.dtd"
   xmlns:inkscape="http://www.inkscape.org/namespaces/inkscape"
   version="1.2"
   width="116.6776mm"
   height="13.747348mm"
   viewBox="0 0 66.396002 7.823"
   id="svg8390"
   sodipodi:docname="Untitled.svg"
   inkscape:version="1.0.1 (c497b03c, 2020-09-10)">
  <metadata
     id="metadata8396">
    <rdf:RDF>
      <cc:Work
         rdf:about="">
        <dc:format>image/svg+xml</dc:format>
        <dc:type
           rdf:resource="http://purl.org/dc/dcmitype/StillImage" />
      </cc:Work>
    </rdf:RDF>
  </metadata>
  <defs
     id="defs8394" />
  <sodipodi:namedview
     pagecolor="#ffffff"
     bordercolor="#666666"
     borderopacity="1"
     objecttolerance="10"
     gridtolerance="10"
     guidetolerance="10"
     inkscape:pageopacity="0"
     inkscape:pageshadow="2"
     inkscape:window-width="740"
     inkscape:window-height="480"
     id="namedview8392"
     showgrid="false"
     fit-margin-top="0"
     fit-margin-left="0"
     fit-margin-right="0"
     fit-margin-bottom="0"
     inkscape:zoom="0.78872421"
     inkscape:cx="165.36633"
     inkscape:cy="-28.75303"
     inkscape:window-x="0"
     inkscape:window-y="25"
     inkscape:window-maximized="0"
     inkscape:current-layer="svg8390" />
  <style
     text="style/css"
     id="style8236"><![CDATA[
tspan { white-space: pre; }
]]></style>
  <!-- Page: 1/1 -->
  <text
     font-family="serif"
     font-size="2.2001px"
     text-anchor="start"
     fill="currentColor"
     id="text8240"
     x="-8.5358"
     y="-0.98500001"><tspan
       id="tspan8238" /></text>
  <line
     stroke-linejoin="round"
     stroke-linecap="round"
     stroke-width="0.1"
     stroke="currentColor"
     x1="0.050000001"
     y1="5.7789998"
     x2="66.346001"
     y2="5.7789998"
     id="line8242" />
  <line
     stroke-linejoin="round"
     stroke-linecap="round"
     stroke-width="0.1"
     stroke="currentColor"
     x1="0.050000001"
     y1="4.7789998"
     x2="66.346001"
     y2="4.7789998"
     id="line8244" />
  <line
     stroke-linejoin="round"
     stroke-linecap="round"
     stroke-width="0.1"
     stroke="currentColor"
     x1="0.050000001"
     y1="3.779"
     x2="66.346001"
     y2="3.779"
     id="line8246" />
  <line
     stroke-linejoin="round"
     stroke-linecap="round"
     stroke-width="0.1"
     stroke="currentColor"
     x1="0.050000001"
     y1="2.779"
     x2="66.346001"
     y2="2.779"
     id="line8248" />
  <line
     stroke-linejoin="round"
     stroke-linecap="round"
     stroke-width="0.1"
     stroke="currentColor"
     x1="0.050000001"
     y1="1.779"
     x2="66.346001"
     y2="1.779"
     id="line8250" />
  <rect
     x="53.461201"
     y="1.779"
     width="0.19"
     height="4"
     ry="0.0000"
     fill="currentColor"
     id="rect8252" />
  <rect
     x="38.983501"
     y="1.779"
     width="0.19"
     height="4"
     ry="0.0000"
     fill="currentColor"
     id="rect8254" />
  <rect
     x="60.229702"
     y="6.6789999"
     width="1.9563"
     height="0.2"
     ry="0.1"
     fill="currentColor"
     id="rect8256" />
  <rect
     x="57.227497"
     y="6.6789999"
     width="1.9563"
     height="0.2"
     ry="0.1"
     fill="currentColor"
     id="rect8258" />
  <rect
     x="16.426298"
     y="6.6789999"
     width="1.9563"
     height="0.2"
     ry="0.1"
     fill="currentColor"
     id="rect8260" />
  <rect
     x="13.424001"
     y="6.6789999"
     width="1.9563"
     height="0.2"
     ry="0.1"
     fill="currentColor"
     id="rect8262" />
  <rect
     x="66.206001"
     y="1.779"
     width="0.19"
     height="4"
     ry="0.0000"
     fill="currentColor"
     id="rect8264" />
  <rect
     x="25.9958"
     y="1.779"
     width="0.19"
     height="4"
     ry="0.0000"
     fill="currentColor"
     id="rect8266" />
  <rect
     x="61.7299"
     y="3.779"
     width="0.13"
     height="3.3139"
     ry="0.039999999"
     fill="currentColor"
     id="rect8268" />
  <a
     style="color:inherit"
     xlink:href="textedit:///private/tmp/Untitled.ly:34:34:35"
     id="a8272"
     transform="translate(-14.2264,-3.8303)">
    <path
       transform="matrix(0.004,0,0,-0.004,71.7799,10.6093)"
       d="m 218,136 c 55,0 108,-28 108,-89 0,-71 -55,-121 -102,-149 -35,-21 -75,-34 -116,-34 -55,0 -108,28 -108,89 0,71 55,121 102,149 35,21 75,34 116,34 z"
       fill="currentColor"
       id="path8270" />
  </a>
  <rect
     x="58.727699"
     y="3.279"
     width="0.13"
     height="3.3139"
     ry="0.039999999"
     fill="currentColor"
     id="rect8274" />
  <a
     style="color:inherit"
     xlink:href="textedit:///private/tmp/Untitled.ly:34:36:37"
     id="a8278"
     transform="translate(-14.2264,-3.8303)">
    <path
       transform="matrix(0.004,0,0,-0.004,74.7821,11.1093)"
       d="m 218,136 c 55,0 108,-28 108,-89 0,-71 -55,-121 -102,-149 -35,-21 -75,-34 -116,-34 -55,0 -108,28 -108,89 0,71 55,121 102,149 35,21 75,34 116,34 z"
       fill="currentColor"
       id="path8276" />
  </a>
  <a
     style="color:inherit"
     xlink:href="textedit:///private/tmp/Untitled.ly:34:30:31"
     id="a8282"
     transform="translate(-14.2264,-3.8303)">
    <path
       transform="matrix(0.004,0,0,-0.004,64.4486,9.6093)"
       d="m 218,136 c 55,0 108,-28 108,-89 0,-71 -55,-121 -102,-149 -35,-21 -75,-34 -116,-34 -55,0 -108,28 -108,89 0,71 55,121 102,149 35,21 75,34 116,34 z"
       fill="currentColor"
       id="path8280" />
  </a>
  <rect
     x="51.3965"
     y="2.279"
     width="0.13"
     height="3.3139"
     ry="0.039999999"
     fill="currentColor"
     id="rect8284" />
  <a
     style="color:inherit"
     xlink:href="textedit:///private/tmp/Untitled.ly:34:32:33"
     id="a8288"
     transform="translate(-14.2264,-3.8303)">
    <path
       transform="matrix(0.004,0,0,-0.004,68.7776,10.1093)"
       d="m 218,136 c 55,0 108,-28 108,-89 0,-71 -55,-121 -102,-149 -35,-21 -75,-34 -116,-34 -55,0 -108,28 -108,89 0,71 55,121 102,149 35,21 75,34 116,34 z"
       fill="currentColor"
       id="path8286" />
  </a>
  <rect
     x="55.725399"
     y="2.779"
     width="0.13"
     height="3.3139"
     ry="0.039999999"
     fill="currentColor"
     id="rect8290" />
  <a
     style="color:inherit"
     xlink:href="textedit:///private/tmp/Untitled.ly:34:6:7"
     id="a8294"
     transform="translate(-14.2264,-3.8303)">
    <path
       transform="matrix(0.004,0,0,-0.004,33.981,10.1093)"
       d="m 218,136 c 55,0 108,-28 108,-89 0,-71 -55,-121 -102,-149 -35,-21 -75,-34 -116,-34 -55,0 -108,28 -108,89 0,71 55,121 102,149 35,21 75,34 116,34 z"
       fill="currentColor"
       id="path8292" />
  </a>
  <a
     style="color:inherit"
     xlink:href="textedit:///private/tmp/Untitled.ly:34:4:5"
     id="a8298"
     transform="translate(-14.2264,-3.8303)">
    <path
       transform="matrix(0.004,0,0,-0.004,30.9787,10.6093)"
       d="m 218,136 c 55,0 108,-28 108,-89 0,-71 -55,-121 -102,-149 -35,-21 -75,-34 -116,-34 -55,0 -108,28 -108,89 0,71 55,121 102,149 35,21 75,34 116,34 z"
       fill="currentColor"
       id="path8296" />
  </a>
  <rect
     x="17.9265"
     y="3.279"
     width="0.13"
     height="3.3139"
     ry="0.039999999"
     fill="currentColor"
     id="rect8300" />
  <a
     style="color:inherit"
     xlink:href="textedit:///private/tmp/Untitled.ly:34:10:11"
     id="a8304"
     transform="translate(-14.2264,-3.8303)">
    <path
       transform="matrix(0.004,0,0,-0.004,41.3122,9.1093)"
       d="m 218,136 c 55,0 108,-28 108,-89 0,-71 -55,-121 -102,-149 -35,-21 -75,-34 -116,-34 -55,0 -108,28 -108,89 0,71 55,121 102,149 35,21 75,34 116,34 z"
       fill="currentColor"
       id="path8302" />
  </a>
  <rect
     x="20.928801"
     y="2.779"
     width="0.13"
     height="3.3139"
     ry="0.039999999"
     fill="currentColor"
     id="rect8306" />
  <a
     style="color:inherit"
     xlink:href="textedit:///private/tmp/Untitled.ly:34:8:9"
     id="a8310"
     transform="translate(-14.2264,-3.8303)">
    <path
       transform="matrix(0.004,0,0,-0.004,36.9832,9.6093)"
       d="m 218,136 c 55,0 108,-28 108,-89 0,-71 -55,-121 -102,-149 -35,-21 -75,-34 -116,-34 -55,0 -108,28 -108,89 0,71 55,121 102,149 35,21 75,34 116,34 z"
       fill="currentColor"
       id="path8308" />
  </a>
  <rect
     x="23.931"
     y="2.279"
     width="0.13"
     height="3.3139"
     ry="0.039999999"
     fill="currentColor"
     id="rect8312" />
  <rect
     x="28.26"
     y="1.779"
     width="0.13"
     height="3.3139"
     ry="0.039999999"
     fill="currentColor"
     id="rect8314" />
  <a
     style="color:inherit"
     xlink:href="textedit:///private/tmp/Untitled.ly:34:38:39"
     id="a8318"
     transform="translate(-14.2264,-3.8303)">
    <path
       transform="matrix(0.004,0,0,-0.004,77.7844,7.6093)"
       d="m -23,-116 c 0,28 11,42 40,42 33,0 78,-13 119,-31 L 4,53 c -7,9 -10,17 -10,25 0,34 50,66 87,99 25,22 37,52 37,83 0,24 -8,49 -25,69 l -35,42 c -3,3 -4,7 -4,10 0,9 9,15 17,15 4,0 8,-1 11,-5 L 233,211 c 7,-9 10,-17 10,-25 0,-34 -50,-66 -87,-99 -25,-22 -37,-52 -37,-83 0,-24 7,-49 24,-69 l 84,-99 c 3,-3 4,-7 4,-10 0,-9 -8,-16 -16,-16 -4,0 -9,2 -12,6 -18,21 -63,38 -97,38 -41,0 -53,-26 -53,-67 0,-35 11,-74 28,-94 7,-8 -5,-19 -12,-11 -45,54 -92,148 -92,202 z"
       fill="currentColor"
       id="path8316" />
  </a>
  <a
     style="color:inherit"
     xlink:href="textedit:///private/tmp/Untitled.ly:34:12:13"
     id="a8322"
     transform="translate(-14.2264,-3.8303)">
    <path
       transform="matrix(0.004,0,0,-0.004,44.3144,8.6093)"
       d="m 218,136 c 55,0 108,-28 108,-89 0,-71 -55,-121 -102,-149 -35,-21 -75,-34 -116,-34 -55,0 -108,28 -108,89 0,71 55,121 102,149 35,21 75,34 116,34 z"
       fill="currentColor"
       id="path8320" />
  </a>
  <rect
     x="31.262199"
     y="1.279"
     width="0.13"
     height="3.3139"
     ry="0.039999999"
     fill="currentColor"
     id="rect8324" />
  <path
     d="m 29.0156,3.279 c 0.032,-0.016 0.068,-0.028 0.104,-0.028 0.036,0 0.064,0.012 0.096,0.028 l -0.008,0.732 0.424,-0.08 h 0.012 c 0.04,0 0.072,0.028 0.072,0.068 l 0.028,2.28 c -0.032,0.016 -0.064,0.028 -0.1,0.028 -0.036,0 -0.068,-0.012 -0.1,-0.028 l 0.012,-0.732 -0.424,0.08 h -0.012 c -0.04,0 -0.072,-0.028 -0.072,-0.068 z m 0.556,1.052 -0.368,0.068 -0.012,0.828 0.368,-0.068 z"
     fill="currentColor"
     id="path8326"
     style="stroke-width:0.004" />
  <a
     style="color:inherit"
     xlink:href="textedit:///private/tmp/Untitled.ly:34:16:17"
     id="a8330"
     transform="translate(-14.2264,-3.8303)">
    <path
       transform="matrix(0.004,0,0,-0.004,47.3167,8.1093)"
       d="m 218,136 c 55,0 108,-28 108,-89 0,-71 -55,-121 -102,-149 -35,-21 -75,-34 -116,-34 -55,0 -108,28 -108,89 0,71 55,121 102,149 35,21 75,34 116,34 z"
       fill="currentColor"
       id="path8328" />
  </a>
  <rect
     x="34.2645"
     y="0.77899998"
     width="0.13"
     height="3.3139"
     ry="0.039999999"
     fill="currentColor"
     id="rect8332" />
  <path
     d="m 32.0179,2.779 c 0.032,-0.016 0.068,-0.028 0.104,-0.028 0.036,0 0.064,0.012 0.096,0.028 l -0.008,0.732 0.424,-0.08 h 0.012 c 0.04,0 0.072,0.028 0.072,0.068 l 0.028,2.28 c -0.032,0.016 -0.064,0.028 -0.1,0.028 -0.036,0 -0.068,-0.012 -0.1,-0.028 l 0.012,-0.732 -0.424,0.08 h -0.012 c -0.04,0 -0.072,-0.028 -0.072,-0.068 z m 0.556,1.052 -0.368,0.068 -0.012,0.828 0.368,-0.068 z"
     fill="currentColor"
     id="path8334"
     style="stroke-width:0.004" />
  <path
     d="m 11.486,3.671 c -0.196,0 -0.3,-0.168 -0.3,-0.3 0,-0.152 0.108,-0.308 0.288,-0.308 0.016,0 0.036,0 0.056,0.004 -0.112,-0.148 -0.288,-0.236 -0.48,-0.236 -0.424,0 -0.452,0.292 -0.452,0.744 v 0.204 0.204 c 0,0.452 0.028,0.748 0.452,0.748 0.32,0 0.556,-0.28 0.632,-0.604 0.008,-0.028 0.028,-0.04 0.048,-0.04 0.024,0 0.052,0.016 0.052,0.048 0,0.376 -0.42,0.696 -0.732,0.696 -0.272,0 -0.548,-0.084 -0.736,-0.28 C 10.118,4.347 10.05,4.063 10.05,3.779 c 0,-0.284 0.068,-0.568 0.264,-0.772 0.188,-0.196 0.464,-0.276 0.736,-0.276 0.348,0 0.64,0.252 0.7,0.596 0.004,0.02 0.004,0.04 0.004,0.056 0,0.16 -0.12,0.288 -0.268,0.288 z"
     fill="currentColor"
     id="path8336"
     style="stroke-width:0.004" />
  <a
     style="color:inherit"
     xlink:href="textedit:///private/tmp/Untitled.ly:34:2:3"
     id="a8340"
     transform="translate(-14.2264,-3.8303)">
    <path
       transform="matrix(0.004,0,0,-0.004,27.9764,11.1093)"
       d="m 218,136 c 55,0 108,-28 108,-89 0,-71 -55,-121 -102,-149 -35,-21 -75,-34 -116,-34 -55,0 -108,28 -108,89 0,71 55,121 102,149 35,21 75,34 116,34 z"
       fill="currentColor"
       id="path8338" />
  </a>
  <path
     d="M 1.864,7.319 H 1.84 c -0.432,0 -0.78,-0.352 -0.78,-0.788 0,-0.232 0.212,-0.412 0.448,-0.412 0.216,0 0.38,0.188 0.38,0.412 0,0.208 -0.172,0.38 -0.38,0.38 -0.044,0 -0.084,-0.008 -0.124,-0.024 0.104,0.156 0.272,0.26 0.468,0.26 H 1.868 Z M 2.644,5.591 C 2.916,5.495 3.096,5.211 3.096,4.935 3.096,4.575 2.832,4.219 2.404,4.175 2.5,4.639 2.588,5.099 2.644,5.591 Z M 1.096,4.667 c 0,0.54 0.516,0.988 1.056,0.988 0.112,0 0.22,-0.008 0.328,-0.024 C 2.424,5.123 2.332,4.651 2.228,4.175 1.912,4.207 1.732,4.419 1.732,4.651 c 0,0.176 0.1,0.364 0.324,0.492 0.02,0.02 0.028,0.04 0.028,0.06 0,0.044 -0.04,0.088 -0.088,0.088 C 1.984,5.291 1.972,5.287 1.96,5.283 1.64,5.111 1.492,4.823 1.492,4.543 1.492,4.191 1.724,3.847 2.132,3.755 2.076,3.523 2.016,3.287 1.948,3.055 1.52,3.539 1.096,4.027 1.096,4.667 Z M 2.14,5.827 C 1.388,5.827 0.808,5.139 0.808,4.331 0.808,3.623 1.332,3.107 1.8,2.567 1.724,2.319 1.652,2.067 1.62,1.807 1.596,1.599 1.592,1.391 1.592,1.183 c 0,-0.46 0.22,-0.896 0.596,-1.168 0.024,-0.02 0.056,-0.02 0.08,0 0.284,0.336 0.532,0.98 0.532,1.432 0,0.572 -0.344,1.02 -0.72,1.456 0.084,0.272 0.156,0.552 0.224,0.828 0.016,0 0.036,-0.004 0.052,-0.004 0.62,0 1.024,0.512 1.024,1.044 0,0.304 -0.132,0.616 -0.428,0.84 C 2.864,5.679 2.764,5.723 2.66,5.755 2.672,5.895 2.68,6.035 2.68,6.175 2.68,6.251 2.676,6.331 2.672,6.407 2.644,6.883 2.32,7.307 1.864,7.319 L 1.868,7.147 C 2.24,7.139 2.48,6.779 2.504,6.383 2.508,6.311 2.512,6.235 2.512,6.163 2.512,6.039 2.508,5.919 2.496,5.795 2.38,5.815 2.264,5.827 2.14,5.827 Z M 2.512,1.115 c 0,-0.22 -0.016,-0.316 -0.08,-0.516 -0.396,0.192 -0.648,0.596 -0.648,1.036 0,0.296 0.072,0.532 0.144,0.776 0.32,-0.388 0.584,-0.792 0.584,-1.296 z"
     fill="currentColor"
     id="path8342"
     style="stroke-width:0.004" />
  <a
     style="color:inherit"
     xlink:href="textedit:///private/tmp/Untitled.ly:32:2:3"
     id="a8354"
     transform="translate(-14.2264,-3.8303)">
    <path
       transform="matrix(0.004,0,0,-0.004,18.6464,7.6093)"
       d="m 27,41 -1,-66 v -11 c 0,-22 1,-44 4,-66 45,38 93,80 93,139 0,33 -14,67 -43,67 C 49,104 28,74 27,41 Z m -42,-179 -12,595 c 8,5 18,8 27,8 9,0 19,-3 27,-8 L 20,112 c 25,21 58,34 91,34 52,0 89,-48 89,-102 0,-80 -86,-117 -147,-169 -15,-13 -24,-38 -45,-38 -13,0 -23,11 -23,25 z"
       fill="currentColor"
       id="path8344" />
    <path
       transform="matrix(0.004,0,0,-0.004,19.5664,6.1093)"
       d="m 27,41 -1,-66 v -11 c 0,-22 1,-44 4,-66 45,38 93,80 93,139 0,33 -14,67 -43,67 C 49,104 28,74 27,41 Z m -42,-179 -12,595 c 8,5 18,8 27,8 9,0 19,-3 27,-8 L 20,112 c 25,21 58,34 91,34 52,0 89,-48 89,-102 0,-80 -86,-117 -147,-169 -15,-13 -24,-38 -45,-38 -13,0 -23,11 -23,25 z"
       fill="currentColor"
       id="path8346" />
    <path
       transform="matrix(0.004,0,0,-0.004,20.4864,8.1093)"
       d="m 27,41 -1,-66 v -11 c 0,-22 1,-44 4,-66 45,38 93,80 93,139 0,33 -14,67 -43,67 C 49,104 28,74 27,41 Z m -42,-179 -12,595 c 8,5 18,8 27,8 9,0 19,-3 27,-8 L 20,112 c 25,21 58,34 91,34 52,0 89,-48 89,-102 0,-80 -86,-117 -147,-169 -15,-13 -24,-38 -45,-38 -13,0 -23,11 -23,25 z"
       fill="currentColor"
       id="path8348" />
    <path
       transform="matrix(0.004,0,0,-0.004,21.4064,6.6093)"
       d="m 27,41 -1,-66 v -11 c 0,-22 1,-44 4,-66 45,38 93,80 93,139 0,33 -14,67 -43,67 C 49,104 28,74 27,41 Z m -42,-179 -12,595 c 8,5 18,8 27,8 9,0 19,-3 27,-8 L 20,112 c 25,21 58,34 91,34 52,0 89,-48 89,-102 0,-80 -86,-117 -147,-169 -15,-13 -24,-38 -45,-38 -13,0 -23,11 -23,25 z"
       fill="currentColor"
       id="path8350" />
    <path
       transform="matrix(0.004,0,0,-0.004,22.3264,8.6093)"
       d="m 27,41 -1,-66 v -11 c 0,-22 1,-44 4,-66 45,38 93,80 93,139 0,33 -14,67 -43,67 C 49,104 28,74 27,41 Z m -42,-179 -12,595 c 8,5 18,8 27,8 9,0 19,-3 27,-8 L 20,112 c 25,21 58,34 91,34 52,0 89,-48 89,-102 0,-80 -86,-117 -147,-169 -15,-13 -24,-38 -45,-38 -13,0 -23,11 -23,25 z"
       fill="currentColor"
       id="path8352" />
  </a>
  <rect
     x="48.394199"
     y="1.779"
     width="0.13"
     height="3.3139"
     ry="0.039999999"
     fill="currentColor"
     id="rect8356" />
  <rect
     x="14.9243"
     y="3.779"
     width="0.13"
     height="3.3139"
     ry="0.039999999"
     fill="currentColor"
     id="rect8358" />
  <rect
     x="45.391899"
     y="1.279"
     width="0.13"
     height="3.3139"
     ry="0.039999999"
     fill="currentColor"
     id="rect8360" />
  <a
     style="color:inherit"
     xlink:href="textedit:///private/tmp/Untitled.ly:34:25:26"
     id="a8364"
     transform="translate(-14.2264,-3.8303)">
    <path
       transform="matrix(0.004,0,0,-0.004,58.4441,8.6093)"
       d="m 218,136 c 55,0 108,-28 108,-89 0,-71 -55,-121 -102,-149 -35,-21 -75,-34 -116,-34 -55,0 -108,28 -108,89 0,71 55,121 102,149 35,21 75,34 116,34 z"
       fill="currentColor"
       id="path8362" />
  </a>
  <a
     style="color:inherit"
     xlink:href="textedit:///private/tmp/Untitled.ly:34:20:21"
     id="a8368"
     transform="translate(-14.2264,-3.8303)">
    <path
       transform="matrix(0.004,0,0,-0.004,50.3372,7.6093)"
       d="m 218,136 c 55,0 108,-28 108,-89 0,-71 -55,-121 -102,-149 -35,-21 -75,-34 -116,-34 -55,0 -108,28 -108,89 0,71 55,121 102,149 35,21 75,34 116,34 z"
       fill="currentColor"
       id="path8366" />
  </a>
  <path
     d="m 43.1757,4.615 -0.004,0.264 v 0.044 c 0,0.088 0.004,0.176 0.016,0.264 0.18,-0.152 0.372,-0.32 0.372,-0.556 0,-0.132 -0.056,-0.268 -0.172,-0.268 -0.124,0 -0.208,0.12 -0.212,0.252 z m -0.168,0.716 -0.048,-2.38 c 0.032,-0.02 0.072,-0.032 0.108,-0.032 0.036,0 0.076,0.012 0.108,0.032 l -0.028,1.38 c 0.1,-0.084 0.232,-0.136 0.364,-0.136 0.208,0 0.356,0.192 0.356,0.408 0,0.32 -0.344,0.468 -0.588,0.676 -0.06,0.052 -0.096,0.152 -0.18,0.152 -0.052,0 -0.092,-0.044 -0.092,-0.1 z"
     fill="currentColor"
     id="path8370"
     style="stroke-width:0.004" />
  <a
     style="color:inherit"
     xlink:href="textedit:///private/tmp/Untitled.ly:34:28:29"
     id="a8374"
     transform="translate(-14.2264,-3.8303)">
    <path
       transform="matrix(0.004,0,0,-0.004,61.4464,9.1093)"
       d="m 218,136 c 55,0 108,-28 108,-89 0,-71 -55,-121 -102,-149 -35,-21 -75,-34 -116,-34 -55,0 -108,28 -108,89 0,71 55,121 102,149 35,21 75,34 116,34 z"
       fill="currentColor"
       id="path8372" />
  </a>
  <path
     d="m 40.0015,4.115 -0.004,0.264 v 0.044 c 0,0.088 0.004,0.176 0.016,0.264 0.18,-0.152 0.372,-0.32 0.372,-0.556 0,-0.132 -0.056,-0.268 -0.172,-0.268 -0.124,0 -0.208,0.12 -0.212,0.252 z m -0.168,0.716 -0.048,-2.38 c 0.032,-0.02 0.072,-0.032 0.108,-0.032 0.036,0 0.076,0.012 0.108,0.032 l -0.028,1.38 c 0.1,-0.084 0.232,-0.136 0.364,-0.136 0.208,0 0.356,0.192 0.356,0.408 0,0.32 -0.344,0.468 -0.588,0.676 -0.06,0.052 -0.096,0.152 -0.18,0.152 -0.052,0 -0.092,-0.044 -0.092,-0.1 z"
     fill="currentColor"
     id="path8376"
     style="stroke-width:0.004" />
  <rect
     x="36.110802"
     y="3.9651"
     width="0.13"
     height="3.1472001"
     ry="0.039999999"
     fill="currentColor"
     id="rect8378" />
  <a
     style="color:inherit"
     xlink:href="textedit:///private/tmp/Untitled.ly:34:22:23"
     id="a8382"
     transform="translate(-14.2264,-3.8303)">
    <path
       transform="matrix(0.004,0,0,-0.004,55.2699,8.1093)"
       d="m 218,136 c 55,0 108,-28 108,-89 0,-71 -55,-121 -102,-149 -35,-21 -75,-34 -116,-34 -55,0 -108,28 -108,89 0,71 55,121 102,149 35,21 75,34 116,34 z"
       fill="currentColor"
       id="path8380" />
  </a>
  <rect
     x="42.217701"
     y="0.77899998"
     width="0.13"
     height="3.3139"
     ry="0.039999999"
     fill="currentColor"
     id="rect8384" />
  <text
     font-family="serif"
     font-size="2.2001px"
     text-anchor="start"
     fill="currentColor"
     id="text8388"
     x="45.524399"
     y="161.76469"><tspan
       id="tspan8386" /></text>
</svg>
