<?xml version="1.0" encoding="UTF-8" standalone="no"?>
<svg
   xmlns:dc="http://purl.org/dc/elements/1.1/"
   xmlns:cc="http://creativecommons.org/ns#"
   xmlns:rdf="http://www.w3.org/1999/02/22-rdf-syntax-ns#"
   xmlns:svg="http://www.w3.org/2000/svg"
   xmlns="http://www.w3.org/2000/svg"
   xmlns:xlink="http://www.w3.org/1999/xlink"
   xmlns:sodipodi="http://sodipodi.sourceforge.net/DTD/sodipodi-0.dtd"
   xmlns:inkscape="http://www.inkscape.org/namespaces/inkscape"
   version="1.2"
   width="108.9678mm"
   height="13.327353mm"
   viewBox="0 0 62.0087 7.584"
   id="svg2622"
   sodipodi:docname="Untitled.svg"
   inkscape:version="1.0.1 (c497b03c, 2020-09-10)">
  <metadata
     id="metadata2628">
    <rdf:RDF>
      <cc:Work
         rdf:about="">
        <dc:format>image/svg+xml</dc:format>
        <dc:type
           rdf:resource="http://purl.org/dc/dcmitype/StillImage" />
      </cc:Work>
    </rdf:RDF>
  </metadata>
  <defs
     id="defs2626" />
  <sodipodi:namedview
     pagecolor="#ffffff"
     bordercolor="#666666"
     borderopacity="1"
     objecttolerance="10"
     gridtolerance="10"
     guidetolerance="10"
     inkscape:pageopacity="0"
     inkscape:pageshadow="2"
     inkscape:window-width="740"
     inkscape:window-height="480"
     id="namedview2624"
     showgrid="false"
     fit-margin-top="0"
     fit-margin-left="0"
     fit-margin-right="0"
     fit-margin-bottom="0"
     inkscape:zoom="0.56925505"
     inkscape:cx="-180.88627"
     inkscape:cy="-111.53524"
     inkscape:window-x="0"
     inkscape:window-y="25"
     inkscape:window-maximized="0"
     inkscape:current-layer="svg2622" />
  <style
     text="style/css"
     id="style2484"><![CDATA[
tspan { white-space: pre; }
]]></style>
  <!-- Page: 1/1 -->
  <text
     font-family="serif"
     font-size="2.2001px"
     text-anchor="start"
     fill="currentColor"
     id="text2488"
     x="-8.5358"
     y="-1.001"><tspan
       id="tspan2486" /></text>
  <line
     stroke-linejoin="round"
     stroke-linecap="round"
     stroke-width="0.1"
     stroke="currentColor"
     x1="0.050000001"
     y1="6.0440001"
     x2="61.958698"
     y2="6.0440001"
     id="line2490" />
  <line
     stroke-linejoin="round"
     stroke-linecap="round"
     stroke-width="0.1"
     stroke="currentColor"
     x1="0.050000001"
     y1="5.0440001"
     x2="61.958698"
     y2="5.0440001"
     id="line2492" />
  <line
     stroke-linejoin="round"
     stroke-linecap="round"
     stroke-width="0.1"
     stroke="currentColor"
     x1="0.050000001"
     y1="4.0440001"
     x2="61.958698"
     y2="4.0440001"
     id="line2494" />
  <line
     stroke-linejoin="round"
     stroke-linecap="round"
     stroke-width="0.1"
     stroke="currentColor"
     x1="0.050000001"
     y1="3.0439999"
     x2="61.958698"
     y2="3.0439999"
     id="line2496" />
  <line
     stroke-linejoin="round"
     stroke-linecap="round"
     stroke-width="0.1"
     stroke="currentColor"
     x1="0.050000001"
     y1="2.0439999"
     x2="61.958698"
     y2="2.0439999"
     id="line2498" />
  <rect
     x="35.907902"
     y="2.0439999"
     width="0.19"
     height="4"
     ry="0.0000"
     fill="currentColor"
     id="rect2500" />
  <rect
     x="48.912998"
     y="2.0439999"
     width="0.19"
     height="4"
     ry="0.0000"
     fill="currentColor"
     id="rect2502" />
  <rect
     x="61.8186"
     y="2.0439999"
     width="0.19"
     height="4"
     ry="0.0000"
     fill="currentColor"
     id="rect2504" />
  <rect
     x="36.814697"
     y="0.94400001"
     width="1.9563"
     height="0.2"
     ry="0.1"
     fill="currentColor"
     id="rect2506" />
  <rect
     x="32.7225"
     y="0.94400001"
     width="1.9563"
     height="0.2"
     ry="0.1"
     fill="currentColor"
     id="rect2508" />
  <rect
     x="29.7202"
     y="0.94400001"
     width="1.9563"
     height="0.2"
     ry="0.1"
     fill="currentColor"
     id="rect2510" />
  <rect
     x="22.7623"
     y="2.0439999"
     width="0.19"
     height="4"
     ry="0.0000"
     fill="currentColor"
     id="rect2512" />
  <a
     style="color:inherit"
     xlink:href="textedit:///private/tmp/Untitled.ly:34:33:34"
     id="a2516"
     transform="translate(-14.2264,-3.8463)">
    <path
       transform="matrix(0.004,0,0,-0.004,73.397,7.8903)"
       d="m -23,-116 c 0,28 11,42 40,42 33,0 78,-13 119,-31 L 4,53 c -7,9 -10,17 -10,25 0,34 50,66 87,99 25,22 37,52 37,83 0,24 -8,49 -25,69 l -35,42 c -3,3 -4,7 -4,10 0,9 9,15 17,15 4,0 8,-1 11,-5 L 233,211 c 7,-9 10,-17 10,-25 0,-34 -50,-66 -87,-99 -25,-22 -37,-52 -37,-83 0,-24 7,-49 24,-69 l 84,-99 c 3,-3 4,-7 4,-10 0,-9 -8,-16 -16,-16 -4,0 -9,2 -12,6 -18,21 -63,38 -97,38 -41,0 -53,-26 -53,-67 0,-35 11,-74 28,-94 7,-8 -5,-19 -12,-11 -45,54 -92,148 -92,202 z"
       fill="currentColor"
       id="path2514" />
  </a>
  <a
     style="color:inherit"
     xlink:href="textedit:///private/tmp/Untitled.ly:34:29:30"
     id="a2520"
     transform="translate(-14.2264,-3.8463)">
    <path
       transform="matrix(0.004,0,0,-0.004,67.3925,7.3903)"
       d="m 218,136 c 55,0 108,-28 108,-89 0,-71 -55,-121 -102,-149 -35,-21 -75,-34 -116,-34 -55,0 -108,28 -108,89 0,71 55,121 102,149 35,21 75,34 116,34 z"
       fill="currentColor"
       id="path2518" />
  </a>
  <rect
     x="53.1661"
     y="3.7300999"
     width="0.13"
     height="3.3139"
     ry="0.039999999"
     fill="currentColor"
     id="rect2522" />
  <a
     style="color:inherit"
     xlink:href="textedit:///private/tmp/Untitled.ly:34:31:32"
     id="a2526"
     transform="translate(-14.2264,-3.8463)">
    <path
       transform="matrix(0.004,0,0,-0.004,70.3947,7.8903)"
       d="m 218,136 c 55,0 108,-28 108,-89 0,-71 -55,-121 -102,-149 -35,-21 -75,-34 -116,-34 -55,0 -108,28 -108,89 0,71 55,121 102,149 35,21 75,34 116,34 z"
       fill="currentColor"
       id="path2524" />
  </a>
  <rect
     x="56.168301"
     y="4.2301002"
     width="0.13"
     height="3.1472001"
     ry="0.039999999"
     fill="currentColor"
     id="rect2528" />
  <a
     style="color:inherit"
     xlink:href="textedit:///private/tmp/Untitled.ly:34:25:26"
     id="a2532"
     transform="translate(-14.2264,-3.8463)">
    <path
       transform="matrix(0.004,0,0,-0.004,60.3739,6.3903)"
       d="m 218,136 c 55,0 108,-28 108,-89 0,-71 -55,-121 -102,-149 -35,-21 -75,-34 -116,-34 -55,0 -108,28 -108,89 0,71 55,121 102,149 35,21 75,34 116,34 z"
       fill="currentColor"
       id="path2530" />
  </a>
  <rect
     x="46.147499"
     y="2.7300999"
     width="0.13"
     height="3.3139"
     ry="0.039999999"
     fill="currentColor"
     id="rect2534" />
  <a
     style="color:inherit"
     xlink:href="textedit:///private/tmp/Untitled.ly:34:27:28"
     id="a2538"
     transform="translate(-14.2264,-3.8463)">
    <path
       transform="matrix(0.004,0,0,-0.004,64.3902,6.8903)"
       d="m 218,136 c 55,0 108,-28 108,-89 0,-71 -55,-121 -102,-149 -35,-21 -75,-34 -116,-34 -55,0 -108,28 -108,89 0,71 55,121 102,149 35,21 75,34 116,34 z"
       fill="currentColor"
       id="path2536" />
  </a>
  <rect
     x="50.163799"
     y="3.2300999"
     width="0.13"
     height="3.3139"
     ry="0.039999999"
     fill="currentColor"
     id="rect2540" />
  <a
     style="color:inherit"
     xlink:href="textedit:///private/tmp/Untitled.ly:34:7:8"
     id="a2544"
     transform="translate(-14.2264,-3.8463)">
    <path
       transform="matrix(0.004,0,0,-0.004,31.2209,6.8903)"
       d="m 218,136 c 55,0 108,-28 108,-89 0,-71 -55,-121 -102,-149 -35,-21 -75,-34 -116,-34 -55,0 -108,28 -108,89 0,71 55,121 102,149 35,21 75,34 116,34 z"
       fill="currentColor"
       id="path2542" />
  </a>
  <rect
     x="16.994499"
     y="3.2300999"
     width="0.13"
     height="3.3139"
     ry="0.039999999"
     fill="currentColor"
     id="rect2546" />
  <a
     style="color:inherit"
     xlink:href="textedit:///private/tmp/Untitled.ly:34:9:10"
     id="a2550"
     transform="translate(-14.2264,-3.8463)">
    <path
       transform="matrix(0.004,0,0,-0.004,34.2232,6.3903)"
       d="m 218,136 c 55,0 108,-28 108,-89 0,-71 -55,-121 -102,-149 -35,-21 -75,-34 -116,-34 -55,0 -108,28 -108,89 0,71 55,121 102,149 35,21 75,34 116,34 z"
       fill="currentColor"
       id="path2548" />
  </a>
  <rect
     x="19.996799"
     y="2.7300999"
     width="0.13"
     height="3.3139"
     ry="0.039999999"
     fill="currentColor"
     id="rect2552" />
  <a
     style="color:inherit"
     xlink:href="textedit:///private/tmp/Untitled.ly:34:11:12"
     id="a2556"
     transform="translate(-14.2264,-3.8463)">
    <path
       transform="matrix(0.004,0,0,-0.004,38.2681,5.8903)"
       d="m 218,136 c 55,0 108,-28 108,-89 0,-71 -55,-121 -102,-149 -35,-21 -75,-34 -116,-34 -55,0 -108,28 -108,89 0,71 55,121 102,149 35,21 75,34 116,34 z"
       fill="currentColor"
       id="path2554" />
  </a>
  <rect
     x="24.0417"
     y="2.2300999"
     width="0.13"
     height="3.3139"
     ry="0.039999999"
     fill="currentColor"
     id="rect2558" />
  <a
     style="color:inherit"
     xlink:href="textedit:///private/tmp/Untitled.ly:34:5:6"
     id="a2562"
     transform="translate(-14.2264,-3.8463)">
    <path
       transform="matrix(0.004,0,0,-0.004,28.2187,7.3903)"
       d="m 218,136 c 55,0 108,-28 108,-89 0,-71 -55,-121 -102,-149 -35,-21 -75,-34 -116,-34 -55,0 -108,28 -108,89 0,71 55,121 102,149 35,21 75,34 116,34 z"
       fill="currentColor"
       id="path2560" />
  </a>
  <rect
     x="13.9923"
     y="3.7300999"
     width="0.13"
     height="3.3139"
     ry="0.039999999"
     fill="currentColor"
     id="rect2564" />
  <rect
     x="27.0439"
     y="1.7301"
     width="0.13"
     height="3.3139"
     ry="0.039999999"
     fill="currentColor"
     id="rect2566" />
  <a
     style="color:inherit"
     xlink:href="textedit:///private/tmp/Untitled.ly:34:13:14"
     id="a2570"
     transform="translate(-14.2264,-3.8463)">
    <path
       transform="matrix(0.004,0,0,-0.004,41.2703,5.3903)"
       d="m 218,136 c 55,0 108,-28 108,-89 0,-71 -55,-121 -102,-149 -35,-21 -75,-34 -116,-34 -55,0 -108,28 -108,89 0,71 55,121 102,149 35,21 75,34 116,34 z"
       fill="currentColor"
       id="path2568" />
  </a>
  <a
     style="color:inherit"
     xlink:href="textedit:///private/tmp/Untitled.ly:34:15:16"
     id="a2574"
     transform="translate(-14.2264,-3.8463)">
    <path
       transform="matrix(0.004,0,0,-0.004,44.2726,4.8903)"
       d="m 218,136 c 55,0 108,-28 108,-89 0,-71 -55,-121 -102,-149 -35,-21 -75,-34 -116,-34 -55,0 -108,28 -108,89 0,71 55,121 102,149 35,21 75,34 116,34 z"
       fill="currentColor"
       id="path2572" />
  </a>
  <rect
     x="10.99"
     y="4.2301002"
     width="0.13"
     height="3.1472001"
     ry="0.039999999"
     fill="currentColor"
     id="rect2576" />
  <a
     style="color:inherit"
     xlink:href="textedit:///private/tmp/Untitled.ly:34:2:3"
     id="a2580"
     transform="translate(-14.2264,-3.8463)">
    <path
       transform="matrix(0.004,0,0,-0.004,25.2164,7.8903)"
       d="m 218,136 c 55,0 108,-28 108,-89 0,-71 -55,-121 -102,-149 -35,-21 -75,-34 -116,-34 -55,0 -108,28 -108,89 0,71 55,121 102,149 35,21 75,34 116,34 z"
       fill="currentColor"
       id="path2578" />
  </a>
  <path
     d="M 1.864,7.584 H 1.84 c -0.432,0 -0.78,-0.352 -0.78,-0.788 0,-0.232 0.212,-0.412 0.448,-0.412 0.216,0 0.38,0.188 0.38,0.412 0,0.208 -0.172,0.38 -0.38,0.38 -0.044,0 -0.084,-0.008 -0.124,-0.024 0.104,0.156 0.272,0.26 0.468,0.26 H 1.868 Z M 2.644,5.856 C 2.916,5.76 3.096,5.476 3.096,5.2 3.096,4.84 2.832,4.484 2.404,4.44 2.5,4.904 2.588,5.364 2.644,5.856 Z M 1.096,4.932 c 0,0.54 0.516,0.988 1.056,0.988 0.112,0 0.22,-0.008 0.328,-0.024 C 2.424,5.388 2.332,4.916 2.228,4.44 1.912,4.472 1.732,4.684 1.732,4.916 c 0,0.176 0.1,0.364 0.324,0.492 0.02,0.02 0.028,0.04 0.028,0.06 0,0.044 -0.04,0.088 -0.088,0.088 C 1.984,5.556 1.972,5.552 1.96,5.548 1.64,5.376 1.492,5.088 1.492,4.808 1.492,4.456 1.724,4.112 2.132,4.02 2.076,3.788 2.016,3.552 1.948,3.32 1.52,3.804 1.096,4.292 1.096,4.932 Z M 2.14,6.092 C 1.388,6.092 0.808,5.404 0.808,4.596 0.808,3.888 1.332,3.372 1.8,2.832 1.724,2.584 1.652,2.332 1.62,2.072 1.596,1.864 1.592,1.656 1.592,1.448 1.592,0.988 1.812,0.552 2.188,0.28 2.212,0.26 2.244,0.26 2.268,0.28 2.552,0.616 2.8,1.26 2.8,1.712 2.8,2.284 2.456,2.732 2.08,3.168 2.164,3.44 2.236,3.72 2.304,3.996 2.32,3.996 2.34,3.992 2.356,3.992 2.976,3.992 3.38,4.504 3.38,5.036 3.38,5.34 3.248,5.652 2.952,5.876 2.864,5.944 2.764,5.988 2.66,6.02 2.672,6.16 2.68,6.3 2.68,6.44 2.68,6.516 2.676,6.596 2.672,6.672 2.644,7.148 2.32,7.572 1.864,7.584 L 1.868,7.412 C 2.24,7.404 2.48,7.044 2.504,6.648 2.508,6.576 2.512,6.5 2.512,6.428 2.512,6.304 2.508,6.184 2.496,6.06 2.38,6.08 2.264,6.092 2.14,6.092 Z M 2.512,1.38 C 2.512,1.16 2.496,1.064 2.432,0.864 2.036,1.056 1.784,1.46 1.784,1.9 1.784,2.196 1.856,2.432 1.928,2.676 2.248,2.288 2.512,1.884 2.512,1.38 Z"
     fill="currentColor"
     id="path2582"
     style="stroke-width:0.004" />
  <a
     style="color:inherit"
     xlink:href="textedit:///private/tmp/Untitled.ly:32:2:3"
     id="a2588"
     transform="translate(-14.2264,-3.8463)">
    <path
       transform="matrix(0.004,0,0,-0.004,18.6464,7.8903)"
       d="m 27,41 -1,-66 v -11 c 0,-22 1,-44 4,-66 45,38 93,80 93,139 0,33 -14,67 -43,67 C 49,104 28,74 27,41 Z m -42,-179 -12,595 c 8,5 18,8 27,8 9,0 19,-3 27,-8 L 20,112 c 25,21 58,34 91,34 52,0 89,-48 89,-102 0,-80 -86,-117 -147,-169 -15,-13 -24,-38 -45,-38 -13,0 -23,11 -23,25 z"
       fill="currentColor"
       id="path2584" />
    <path
       transform="matrix(0.004,0,0,-0.004,19.5664,6.3903)"
       d="m 27,41 -1,-66 v -11 c 0,-22 1,-44 4,-66 45,38 93,80 93,139 0,33 -14,67 -43,67 C 49,104 28,74 27,41 Z m -42,-179 -12,595 c 8,5 18,8 27,8 9,0 19,-3 27,-8 L 20,112 c 25,21 58,34 91,34 52,0 89,-48 89,-102 0,-80 -86,-117 -147,-169 -15,-13 -24,-38 -45,-38 -13,0 -23,11 -23,25 z"
       fill="currentColor"
       id="path2586" />
  </a>
  <path
     d="m 8.726,3.936 c -0.196,0 -0.3,-0.168 -0.3,-0.3 0,-0.152 0.108,-0.308 0.288,-0.308 0.016,0 0.036,0 0.056,0.004 C 8.658,3.184 8.482,3.096 8.29,3.096 7.866,3.096 7.838,3.388 7.838,3.84 v 0.204 0.204 c 0,0.452 0.028,0.748 0.452,0.748 0.32,0 0.556,-0.28 0.632,-0.604 C 8.93,4.364 8.95,4.352 8.97,4.352 8.994,4.352 9.022,4.368 9.022,4.4 9.022,4.776 8.602,5.096 8.29,5.096 8.018,5.096 7.742,5.012 7.554,4.816 7.358,4.612 7.29,4.328 7.29,4.044 7.29,3.76 7.358,3.476 7.554,3.272 7.742,3.076 8.018,2.996 8.29,2.996 c 0.348,0 0.64,0.252 0.7,0.596 0.004,0.02 0.004,0.04 0.004,0.056 0,0.16 -0.12,0.288 -0.268,0.288 z"
     fill="currentColor"
     id="path2590"
     style="stroke-width:0.004" />
  <rect
     x="30.0462"
     y="1.2301"
     width="0.13"
     height="3.3139"
     ry="0.039999999"
     fill="currentColor"
     id="rect2592" />
  <a
     style="color:inherit"
     xlink:href="textedit:///private/tmp/Untitled.ly:34:21:22"
     id="a2596"
     transform="translate(-14.2264,-3.8463)">
    <path
       transform="matrix(0.004,0,0,-0.004,54.3694,5.3903)"
       d="m 218,136 c 55,0 108,-28 108,-89 0,-71 -55,-121 -102,-149 -35,-21 -75,-34 -116,-34 -55,0 -108,28 -108,89 0,71 55,121 102,149 35,21 75,34 116,34 z"
       fill="currentColor"
       id="path2594" />
  </a>
  <rect
     x="40.143002"
     y="1.7301"
     width="0.13"
     height="3.3139"
     ry="0.039999999"
     fill="currentColor"
     id="rect2598" />
  <a
     style="color:inherit"
     xlink:href="textedit:///private/tmp/Untitled.ly:34:23:24"
     id="a2602"
     transform="translate(-14.2264,-3.8463)">
    <path
       transform="matrix(0.004,0,0,-0.004,57.3716,5.8903)"
       d="m 218,136 c 55,0 108,-28 108,-89 0,-71 -55,-121 -102,-149 -35,-21 -75,-34 -116,-34 -55,0 -108,28 -108,89 0,71 55,121 102,149 35,21 75,34 116,34 z"
       fill="currentColor"
       id="path2600" />
  </a>
  <rect
     x="43.145199"
     y="2.2300999"
     width="0.13"
     height="3.3139"
     ry="0.039999999"
     fill="currentColor"
     id="rect2604" />
  <rect
     x="33.0485"
     y="0.73010004"
     width="0.13"
     height="3.3139"
     ry="0.039999999"
     fill="currentColor"
     id="rect2606" />
  <a
     style="color:inherit"
     xlink:href="textedit:///private/tmp/Untitled.ly:34:19:20"
     id="a2610"
     transform="translate(-14.2264,-3.8463)">
    <path
       transform="matrix(0.004,0,0,-0.004,51.3671,4.8903)"
       d="m 218,136 c 55,0 108,-28 108,-89 0,-71 -55,-121 -102,-149 -35,-21 -75,-34 -116,-34 -55,0 -108,28 -108,89 0,71 55,121 102,149 35,21 75,34 116,34 z"
       fill="currentColor"
       id="path2608" />
  </a>
  <a
     style="color:inherit"
     xlink:href="textedit:///private/tmp/Untitled.ly:34:17:18"
     id="a2614"
     transform="translate(-14.2264,-3.8463)">
    <path
       transform="matrix(0.004,0,0,-0.004,47.2749,4.3903)"
       d="m 218,136 c 55,0 108,-28 108,-89 0,-71 -55,-121 -102,-149 -35,-21 -75,-34 -116,-34 -55,0 -108,28 -108,89 0,71 55,121 102,149 35,21 75,34 116,34 z"
       fill="currentColor"
       id="path2612" />
  </a>
  <rect
     x="37.140701"
     y="1.2301"
     width="0.13"
     height="3.3139"
     ry="0.039999999"
     fill="currentColor"
     id="rect2616" />
  <text
     font-family="serif"
     font-size="2.2001px"
     text-anchor="start"
     fill="currentColor"
     id="text2620"
     x="45.524399"
     y="161.7487"><tspan
       id="tspan2618" /></text>
</svg>
