<?xml version="1.0" encoding="UTF-8" standalone="no"?>
<svg
   xmlns:dc="http://purl.org/dc/elements/1.1/"
   xmlns:cc="http://creativecommons.org/ns#"
   xmlns:rdf="http://www.w3.org/1999/02/22-rdf-syntax-ns#"
   xmlns:svg="http://www.w3.org/2000/svg"
   xmlns="http://www.w3.org/2000/svg"
   xmlns:xlink="http://www.w3.org/1999/xlink"
   xmlns:sodipodi="http://sodipodi.sourceforge.net/DTD/sodipodi-0.dtd"
   xmlns:inkscape="http://www.inkscape.org/namespaces/inkscape"
   version="1.2"
   width="115.39951mm"
   height="13.327353mm"
   viewBox="0 0 65.668697 7.584"
   id="svg2926"
   sodipodi:docname="Untitled.svg"
   inkscape:version="1.0.1 (c497b03c, 2020-09-10)">
  <metadata
     id="metadata2932">
    <rdf:RDF>
      <cc:Work
         rdf:about="">
        <dc:format>image/svg+xml</dc:format>
        <dc:type
           rdf:resource="http://purl.org/dc/dcmitype/StillImage" />
      </cc:Work>
    </rdf:RDF>
  </metadata>
  <defs
     id="defs2930" />
  <sodipodi:namedview
     pagecolor="#ffffff"
     bordercolor="#666666"
     borderopacity="1"
     objecttolerance="10"
     gridtolerance="10"
     guidetolerance="10"
     inkscape:pageopacity="0"
     inkscape:pageshadow="2"
     inkscape:window-width="740"
     inkscape:window-height="480"
     id="namedview2928"
     showgrid="false"
     fit-margin-top="0"
     fit-margin-left="0"
     fit-margin-right="0"
     fit-margin-bottom="0"
     inkscape:zoom="0.42610385"
     inkscape:cx="110.55702"
     inkscape:cy="57.004688"
     inkscape:window-x="0"
     inkscape:window-y="25"
     inkscape:window-maximized="0"
     inkscape:current-layer="svg2926" />
  <style
     text="style/css"
     id="style2782"><![CDATA[
tspan { white-space: pre; }
]]></style>
  <!-- Page: 1/1 -->
  <text
     font-family="serif"
     font-size="2.2001px"
     text-anchor="start"
     fill="currentColor"
     id="text2786"
     x="-8.5358"
     y="-1.001"><tspan
       id="tspan2784" /></text>
  <line
     stroke-linejoin="round"
     stroke-linecap="round"
     stroke-width="0.1"
     stroke="currentColor"
     x1="0.050000001"
     y1="6.0440001"
     x2="65.618698"
     y2="6.0440001"
     id="line2788" />
  <line
     stroke-linejoin="round"
     stroke-linecap="round"
     stroke-width="0.1"
     stroke="currentColor"
     x1="0.050000001"
     y1="5.0440001"
     x2="65.618698"
     y2="5.0440001"
     id="line2790" />
  <line
     stroke-linejoin="round"
     stroke-linecap="round"
     stroke-width="0.1"
     stroke="currentColor"
     x1="0.050000001"
     y1="4.0440001"
     x2="65.618698"
     y2="4.0440001"
     id="line2792" />
  <line
     stroke-linejoin="round"
     stroke-linecap="round"
     stroke-width="0.1"
     stroke="currentColor"
     x1="0.050000001"
     y1="3.0439999"
     x2="65.618698"
     y2="3.0439999"
     id="line2794" />
  <line
     stroke-linejoin="round"
     stroke-linecap="round"
     stroke-width="0.1"
     stroke="currentColor"
     x1="0.050000001"
     y1="2.0439999"
     x2="65.618698"
     y2="2.0439999"
     id="line2796" />
  <rect
     x="39.567902"
     y="2.0439999"
     width="0.19"
     height="4"
     ry="0.0000"
     fill="currentColor"
     id="rect2798" />
  <rect
     x="52.573002"
     y="2.0439999"
     width="0.19"
     height="4"
     ry="0.0000"
     fill="currentColor"
     id="rect2800" />
  <rect
     x="65.4786"
     y="2.0439999"
     width="0.19"
     height="4"
     ry="0.0000"
     fill="currentColor"
     id="rect2802" />
  <rect
     x="40.474701"
     y="0.94400001"
     width="1.9563"
     height="0.2"
     ry="0.1"
     fill="currentColor"
     id="rect2804" />
  <rect
     x="36.3825"
     y="0.94400001"
     width="1.9563"
     height="0.2"
     ry="0.1"
     fill="currentColor"
     id="rect2806" />
  <rect
     x="33.380199"
     y="0.94400001"
     width="1.9563"
     height="0.2"
     ry="0.1"
     fill="currentColor"
     id="rect2808" />
  <rect
     x="26.4223"
     y="2.0439999"
     width="0.19"
     height="4"
     ry="0.0000"
     fill="currentColor"
     id="rect2810" />
  <a
     style="color:inherit"
     xlink:href="textedit:///private/tmp/Untitled.ly:34:33:34"
     id="a2814"
     transform="translate(-14.2264,-3.8463)">
    <path
       transform="matrix(0.004,0,0,-0.004,77.057,7.8903)"
       d="m -23,-116 c 0,28 11,42 40,42 33,0 78,-13 119,-31 L 4,53 c -7,9 -10,17 -10,25 0,34 50,66 87,99 25,22 37,52 37,83 0,24 -8,49 -25,69 l -35,42 c -3,3 -4,7 -4,10 0,9 9,15 17,15 4,0 8,-1 11,-5 L 233,211 c 7,-9 10,-17 10,-25 0,-34 -50,-66 -87,-99 -25,-22 -37,-52 -37,-83 0,-24 7,-49 24,-69 l 84,-99 c 3,-3 4,-7 4,-10 0,-9 -8,-16 -16,-16 -4,0 -9,2 -12,6 -18,21 -63,38 -97,38 -41,0 -53,-26 -53,-67 0,-35 11,-74 28,-94 7,-8 -5,-19 -12,-11 -45,54 -92,148 -92,202 z"
       fill="currentColor"
       id="path2812" />
  </a>
  <a
     style="color:inherit"
     xlink:href="textedit:///private/tmp/Untitled.ly:34:29:30"
     id="a2818"
     transform="translate(-14.2264,-3.8463)">
    <path
       transform="matrix(0.004,0,0,-0.004,71.0525,7.3903)"
       d="m 218,136 c 55,0 108,-28 108,-89 0,-71 -55,-121 -102,-149 -35,-21 -75,-34 -116,-34 -55,0 -108,28 -108,89 0,71 55,121 102,149 35,21 75,34 116,34 z"
       fill="currentColor"
       id="path2816" />
  </a>
  <rect
     x="56.826099"
     y="3.7300999"
     width="0.13"
     height="3.3139"
     ry="0.039999999"
     fill="currentColor"
     id="rect2820" />
  <a
     style="color:inherit"
     xlink:href="textedit:///private/tmp/Untitled.ly:34:31:32"
     id="a2824"
     transform="translate(-14.2264,-3.8463)">
    <path
       transform="matrix(0.004,0,0,-0.004,74.0547,7.8903)"
       d="m 218,136 c 55,0 108,-28 108,-89 0,-71 -55,-121 -102,-149 -35,-21 -75,-34 -116,-34 -55,0 -108,28 -108,89 0,71 55,121 102,149 35,21 75,34 116,34 z"
       fill="currentColor"
       id="path2822" />
  </a>
  <rect
     x="59.8283"
     y="4.2301002"
     width="0.13"
     height="3.1472001"
     ry="0.039999999"
     fill="currentColor"
     id="rect2826" />
  <a
     style="color:inherit"
     xlink:href="textedit:///private/tmp/Untitled.ly:34:25:26"
     id="a2830"
     transform="translate(-14.2264,-3.8463)">
    <path
       transform="matrix(0.004,0,0,-0.004,64.0339,6.3903)"
       d="m 218,136 c 55,0 108,-28 108,-89 0,-71 -55,-121 -102,-149 -35,-21 -75,-34 -116,-34 -55,0 -108,28 -108,89 0,71 55,121 102,149 35,21 75,34 116,34 z"
       fill="currentColor"
       id="path2828" />
  </a>
  <rect
     x="49.807499"
     y="2.7300999"
     width="0.13"
     height="3.3139"
     ry="0.039999999"
     fill="currentColor"
     id="rect2832" />
  <a
     style="color:inherit"
     xlink:href="textedit:///private/tmp/Untitled.ly:34:27:28"
     id="a2836"
     transform="translate(-14.2264,-3.8463)">
    <path
       transform="matrix(0.004,0,0,-0.004,68.0502,6.8903)"
       d="m 218,136 c 55,0 108,-28 108,-89 0,-71 -55,-121 -102,-149 -35,-21 -75,-34 -116,-34 -55,0 -108,28 -108,89 0,71 55,121 102,149 35,21 75,34 116,34 z"
       fill="currentColor"
       id="path2834" />
  </a>
  <rect
     x="53.823799"
     y="3.2300999"
     width="0.13"
     height="3.3139"
     ry="0.039999999"
     fill="currentColor"
     id="rect2838" />
  <a
     style="color:inherit"
     xlink:href="textedit:///private/tmp/Untitled.ly:34:7:8"
     id="a2842"
     transform="translate(-14.2264,-3.8463)">
    <path
       transform="matrix(0.004,0,0,-0.004,34.8809,6.8903)"
       d="m 218,136 c 55,0 108,-28 108,-89 0,-71 -55,-121 -102,-149 -35,-21 -75,-34 -116,-34 -55,0 -108,28 -108,89 0,71 55,121 102,149 35,21 75,34 116,34 z"
       fill="currentColor"
       id="path2840" />
  </a>
  <rect
     x="20.654499"
     y="3.2300999"
     width="0.13"
     height="3.3139"
     ry="0.039999999"
     fill="currentColor"
     id="rect2844" />
  <a
     style="color:inherit"
     xlink:href="textedit:///private/tmp/Untitled.ly:34:9:10"
     id="a2848"
     transform="translate(-14.2264,-3.8463)">
    <path
       transform="matrix(0.004,0,0,-0.004,37.8832,6.3903)"
       d="m 218,136 c 55,0 108,-28 108,-89 0,-71 -55,-121 -102,-149 -35,-21 -75,-34 -116,-34 -55,0 -108,28 -108,89 0,71 55,121 102,149 35,21 75,34 116,34 z"
       fill="currentColor"
       id="path2846" />
  </a>
  <rect
     x="23.656799"
     y="2.7300999"
     width="0.13"
     height="3.3139"
     ry="0.039999999"
     fill="currentColor"
     id="rect2850" />
  <a
     style="color:inherit"
     xlink:href="textedit:///private/tmp/Untitled.ly:34:11:12"
     id="a2854"
     transform="translate(-14.2264,-3.8463)">
    <path
       transform="matrix(0.004,0,0,-0.004,41.9281,5.8903)"
       d="m 218,136 c 55,0 108,-28 108,-89 0,-71 -55,-121 -102,-149 -35,-21 -75,-34 -116,-34 -55,0 -108,28 -108,89 0,71 55,121 102,149 35,21 75,34 116,34 z"
       fill="currentColor"
       id="path2852" />
  </a>
  <rect
     x="27.7017"
     y="2.2300999"
     width="0.13"
     height="3.3139"
     ry="0.039999999"
     fill="currentColor"
     id="rect2856" />
  <a
     style="color:inherit"
     xlink:href="textedit:///private/tmp/Untitled.ly:34:5:6"
     id="a2860"
     transform="translate(-14.2264,-3.8463)">
    <path
       transform="matrix(0.004,0,0,-0.004,31.8787,7.3903)"
       d="m 218,136 c 55,0 108,-28 108,-89 0,-71 -55,-121 -102,-149 -35,-21 -75,-34 -116,-34 -55,0 -108,28 -108,89 0,71 55,121 102,149 35,21 75,34 116,34 z"
       fill="currentColor"
       id="path2858" />
  </a>
  <rect
     x="17.6523"
     y="3.7300999"
     width="0.13"
     height="3.3139"
     ry="0.039999999"
     fill="currentColor"
     id="rect2862" />
  <rect
     x="30.703899"
     y="1.7301"
     width="0.13"
     height="3.3139"
     ry="0.039999999"
     fill="currentColor"
     id="rect2864" />
  <a
     style="color:inherit"
     xlink:href="textedit:///private/tmp/Untitled.ly:34:13:14"
     id="a2868"
     transform="translate(-14.2264,-3.8463)">
    <path
       transform="matrix(0.004,0,0,-0.004,44.9303,5.3903)"
       d="m 218,136 c 55,0 108,-28 108,-89 0,-71 -55,-121 -102,-149 -35,-21 -75,-34 -116,-34 -55,0 -108,28 -108,89 0,71 55,121 102,149 35,21 75,34 116,34 z"
       fill="currentColor"
       id="path2866" />
  </a>
  <a
     style="color:inherit"
     xlink:href="textedit:///private/tmp/Untitled.ly:34:15:16"
     id="a2872"
     transform="translate(-14.2264,-3.8463)">
    <path
       transform="matrix(0.004,0,0,-0.004,47.9326,4.8903)"
       d="m 218,136 c 55,0 108,-28 108,-89 0,-71 -55,-121 -102,-149 -35,-21 -75,-34 -116,-34 -55,0 -108,28 -108,89 0,71 55,121 102,149 35,21 75,34 116,34 z"
       fill="currentColor"
       id="path2870" />
  </a>
  <rect
     x="14.65"
     y="4.2301002"
     width="0.13"
     height="3.1472001"
     ry="0.039999999"
     fill="currentColor"
     id="rect2874" />
  <a
     style="color:inherit"
     xlink:href="textedit:///private/tmp/Untitled.ly:34:2:3"
     id="a2878"
     transform="translate(-14.2264,-3.8463)">
    <path
       transform="matrix(0.004,0,0,-0.004,28.8764,7.8903)"
       d="m 218,136 c 55,0 108,-28 108,-89 0,-71 -55,-121 -102,-149 -35,-21 -75,-34 -116,-34 -55,0 -108,28 -108,89 0,71 55,121 102,149 35,21 75,34 116,34 z"
       fill="currentColor"
       id="path2876" />
  </a>
  <path
     d="M 1.864,7.584 H 1.84 c -0.432,0 -0.78,-0.352 -0.78,-0.788 0,-0.232 0.212,-0.412 0.448,-0.412 0.216,0 0.38,0.188 0.38,0.412 0,0.208 -0.172,0.38 -0.38,0.38 -0.044,0 -0.084,-0.008 -0.124,-0.024 0.104,0.156 0.272,0.26 0.468,0.26 H 1.868 Z M 2.644,5.856 C 2.916,5.76 3.096,5.476 3.096,5.2 3.096,4.84 2.832,4.484 2.404,4.44 2.5,4.904 2.588,5.364 2.644,5.856 Z M 1.096,4.932 c 0,0.54 0.516,0.988 1.056,0.988 0.112,0 0.22,-0.008 0.328,-0.024 C 2.424,5.388 2.332,4.916 2.228,4.44 1.912,4.472 1.732,4.684 1.732,4.916 c 0,0.176 0.1,0.364 0.324,0.492 0.02,0.02 0.028,0.04 0.028,0.06 0,0.044 -0.04,0.088 -0.088,0.088 C 1.984,5.556 1.972,5.552 1.96,5.548 1.64,5.376 1.492,5.088 1.492,4.808 1.492,4.456 1.724,4.112 2.132,4.02 2.076,3.788 2.016,3.552 1.948,3.32 1.52,3.804 1.096,4.292 1.096,4.932 Z M 2.14,6.092 C 1.388,6.092 0.808,5.404 0.808,4.596 0.808,3.888 1.332,3.372 1.8,2.832 1.724,2.584 1.652,2.332 1.62,2.072 1.596,1.864 1.592,1.656 1.592,1.448 1.592,0.988 1.812,0.552 2.188,0.28 2.212,0.26 2.244,0.26 2.268,0.28 2.552,0.616 2.8,1.26 2.8,1.712 2.8,2.284 2.456,2.732 2.08,3.168 2.164,3.44 2.236,3.72 2.304,3.996 2.32,3.996 2.34,3.992 2.356,3.992 2.976,3.992 3.38,4.504 3.38,5.036 3.38,5.34 3.248,5.652 2.952,5.876 2.864,5.944 2.764,5.988 2.66,6.02 2.672,6.16 2.68,6.3 2.68,6.44 2.68,6.516 2.676,6.596 2.672,6.672 2.644,7.148 2.32,7.572 1.864,7.584 L 1.868,7.412 C 2.24,7.404 2.48,7.044 2.504,6.648 2.508,6.576 2.512,6.5 2.512,6.428 2.512,6.304 2.508,6.184 2.496,6.06 2.38,6.08 2.264,6.092 2.14,6.092 Z M 2.512,1.38 C 2.512,1.16 2.496,1.064 2.432,0.864 2.036,1.056 1.784,1.46 1.784,1.9 1.784,2.196 1.856,2.432 1.928,2.676 2.248,2.288 2.512,1.884 2.512,1.38 Z"
     fill="currentColor"
     id="path2880"
     style="stroke-width:0.004" />
  <a
     style="color:inherit"
     xlink:href="textedit:///private/tmp/Untitled.ly:32:2:3"
     id="a2892"
     transform="translate(-14.2264,-3.8463)">
    <path
       transform="matrix(0.004,0,0,-0.004,18.5264,5.8903)"
       d="m 216,-312 c 0,-10 -8,-19 -18,-19 -10,0 -19,9 -19,19 v 145 l -83,-31 v -158 c 0,-10 -9,-19 -19,-19 -10,0 -18,9 -18,19 v 145 l -32,-12 c -2,-1 -5,-1 -7,-1 -11,0 -20,9 -20,20 v 60 c 0,8 5,16 13,19 l 46,16 V 51 L 27,40 C 25,39 22,39 20,39 9,39 0,48 0,59 v 60 c 0,8 5,15 13,18 l 46,17 v 158 c 0,10 8,19 18,19 10,0 19,-9 19,-19 V 167 l 83,31 v 158 c 0,10 9,19 19,19 10,0 18,-9 18,-19 V 211 l 32,12 c 2,1 5,1 7,1 11,0 20,-9 20,-20 v -60 c 0,-8 -5,-16 -13,-19 L 216,109 V -51 l 32,11 c 2,1 5,1 7,1 11,0 20,-9 20,-20 v -60 c 0,-8 -5,-15 -13,-18 l -46,-17 z M 96,65 V -95 l 83,30 V 95 Z"
       fill="currentColor"
       id="path2882" />
    <path
       transform="matrix(0.004,0,0,-0.004,19.6264,7.3903)"
       d="m 216,-312 c 0,-10 -8,-19 -18,-19 -10,0 -19,9 -19,19 v 145 l -83,-31 v -158 c 0,-10 -9,-19 -19,-19 -10,0 -18,9 -18,19 v 145 l -32,-12 c -2,-1 -5,-1 -7,-1 -11,0 -20,9 -20,20 v 60 c 0,8 5,16 13,19 l 46,16 V 51 L 27,40 C 25,39 22,39 20,39 9,39 0,48 0,59 v 60 c 0,8 5,15 13,18 l 46,17 v 158 c 0,10 8,19 18,19 10,0 19,-9 19,-19 V 167 l 83,31 v 158 c 0,10 9,19 19,19 10,0 18,-9 18,-19 V 211 l 32,12 c 2,1 5,1 7,1 11,0 20,-9 20,-20 v -60 c 0,-8 -5,-16 -13,-19 L 216,109 V -51 l 32,11 c 2,1 5,1 7,1 11,0 20,-9 20,-20 v -60 c 0,-8 -5,-15 -13,-18 l -46,-17 z M 96,65 V -95 l 83,30 V 95 Z"
       fill="currentColor"
       id="path2884" />
    <path
       transform="matrix(0.004,0,0,-0.004,20.7264,5.3903)"
       d="m 216,-312 c 0,-10 -8,-19 -18,-19 -10,0 -19,9 -19,19 v 145 l -83,-31 v -158 c 0,-10 -9,-19 -19,-19 -10,0 -18,9 -18,19 v 145 l -32,-12 c -2,-1 -5,-1 -7,-1 -11,0 -20,9 -20,20 v 60 c 0,8 5,16 13,19 l 46,16 V 51 L 27,40 C 25,39 22,39 20,39 9,39 0,48 0,59 v 60 c 0,8 5,15 13,18 l 46,17 v 158 c 0,10 8,19 18,19 10,0 19,-9 19,-19 V 167 l 83,31 v 158 c 0,10 9,19 19,19 10,0 18,-9 18,-19 V 211 l 32,12 c 2,1 5,1 7,1 11,0 20,-9 20,-20 v -60 c 0,-8 -5,-16 -13,-19 L 216,109 V -51 l 32,11 c 2,1 5,1 7,1 11,0 20,-9 20,-20 v -60 c 0,-8 -5,-15 -13,-18 l -46,-17 z M 96,65 V -95 l 83,30 V 95 Z"
       fill="currentColor"
       id="path2886" />
    <path
       transform="matrix(0.004,0,0,-0.004,21.8264,6.8903)"
       d="m 216,-312 c 0,-10 -8,-19 -18,-19 -10,0 -19,9 -19,19 v 145 l -83,-31 v -158 c 0,-10 -9,-19 -19,-19 -10,0 -18,9 -18,19 v 145 l -32,-12 c -2,-1 -5,-1 -7,-1 -11,0 -20,9 -20,20 v 60 c 0,8 5,16 13,19 l 46,16 V 51 L 27,40 C 25,39 22,39 20,39 9,39 0,48 0,59 v 60 c 0,8 5,15 13,18 l 46,17 v 158 c 0,10 8,19 18,19 10,0 19,-9 19,-19 V 167 l 83,31 v 158 c 0,10 9,19 19,19 10,0 18,-9 18,-19 V 211 l 32,12 c 2,1 5,1 7,1 11,0 20,-9 20,-20 v -60 c 0,-8 -5,-16 -13,-19 L 216,109 V -51 l 32,11 c 2,1 5,1 7,1 11,0 20,-9 20,-20 v -60 c 0,-8 -5,-15 -13,-18 l -46,-17 z M 96,65 V -95 l 83,30 V 95 Z"
       fill="currentColor"
       id="path2888" />
    <path
       transform="matrix(0.004,0,0,-0.004,22.9264,8.3903)"
       d="m 216,-312 c 0,-10 -8,-19 -18,-19 -10,0 -19,9 -19,19 v 145 l -83,-31 v -158 c 0,-10 -9,-19 -19,-19 -10,0 -18,9 -18,19 v 145 l -32,-12 c -2,-1 -5,-1 -7,-1 -11,0 -20,9 -20,20 v 60 c 0,8 5,16 13,19 l 46,16 V 51 L 27,40 C 25,39 22,39 20,39 9,39 0,48 0,59 v 60 c 0,8 5,15 13,18 l 46,17 v 158 c 0,10 8,19 18,19 10,0 19,-9 19,-19 V 167 l 83,31 v 158 c 0,10 9,19 19,19 10,0 18,-9 18,-19 V 211 l 32,12 c 2,1 5,1 7,1 11,0 20,-9 20,-20 v -60 c 0,-8 -5,-16 -13,-19 L 216,109 V -51 l 32,11 c 2,1 5,1 7,1 11,0 20,-9 20,-20 v -60 c 0,-8 -5,-15 -13,-18 l -46,-17 z M 96,65 V -95 l 83,30 V 95 Z"
       fill="currentColor"
       id="path2890" />
  </a>
  <path
     d="m 12.386,3.936 c -0.196,0 -0.3,-0.168 -0.3,-0.3 0,-0.152 0.108,-0.308 0.288,-0.308 0.016,0 0.036,0 0.056,0.004 -0.112,-0.148 -0.288,-0.236 -0.48,-0.236 -0.424,0 -0.452,0.292 -0.452,0.744 v 0.204 0.204 c 0,0.452 0.028,0.748 0.452,0.748 0.32,0 0.556,-0.28 0.632,-0.604 0.008,-0.028 0.028,-0.04 0.048,-0.04 0.024,0 0.052,0.016 0.052,0.048 0,0.376 -0.42,0.696 -0.732,0.696 -0.272,0 -0.548,-0.084 -0.736,-0.28 C 11.018,4.612 10.95,4.328 10.95,4.044 c 0,-0.284 0.068,-0.568 0.264,-0.772 0.188,-0.196 0.464,-0.276 0.736,-0.276 0.348,0 0.64,0.252 0.7,0.596 0.004,0.02 0.004,0.04 0.004,0.056 0,0.16 -0.12,0.288 -0.268,0.288 z"
     fill="currentColor"
     id="path2894"
     style="stroke-width:0.004" />
  <rect
     x="33.7062"
     y="1.2301"
     width="0.13"
     height="3.3139"
     ry="0.039999999"
     fill="currentColor"
     id="rect2896" />
  <a
     style="color:inherit"
     xlink:href="textedit:///private/tmp/Untitled.ly:34:21:22"
     id="a2900"
     transform="translate(-14.2264,-3.8463)">
    <path
       transform="matrix(0.004,0,0,-0.004,58.0294,5.3903)"
       d="m 218,136 c 55,0 108,-28 108,-89 0,-71 -55,-121 -102,-149 -35,-21 -75,-34 -116,-34 -55,0 -108,28 -108,89 0,71 55,121 102,149 35,21 75,34 116,34 z"
       fill="currentColor"
       id="path2898" />
  </a>
  <rect
     x="43.803001"
     y="1.7301"
     width="0.13"
     height="3.3139"
     ry="0.039999999"
     fill="currentColor"
     id="rect2902" />
  <a
     style="color:inherit"
     xlink:href="textedit:///private/tmp/Untitled.ly:34:23:24"
     id="a2906"
     transform="translate(-14.2264,-3.8463)">
    <path
       transform="matrix(0.004,0,0,-0.004,61.0316,5.8903)"
       d="m 218,136 c 55,0 108,-28 108,-89 0,-71 -55,-121 -102,-149 -35,-21 -75,-34 -116,-34 -55,0 -108,28 -108,89 0,71 55,121 102,149 35,21 75,34 116,34 z"
       fill="currentColor"
       id="path2904" />
  </a>
  <rect
     x="46.805199"
     y="2.2300999"
     width="0.13"
     height="3.3139"
     ry="0.039999999"
     fill="currentColor"
     id="rect2908" />
  <rect
     x="36.7085"
     y="0.73010004"
     width="0.13"
     height="3.3139"
     ry="0.039999999"
     fill="currentColor"
     id="rect2910" />
  <a
     style="color:inherit"
     xlink:href="textedit:///private/tmp/Untitled.ly:34:19:20"
     id="a2914"
     transform="translate(-14.2264,-3.8463)">
    <path
       transform="matrix(0.004,0,0,-0.004,55.0271,4.8903)"
       d="m 218,136 c 55,0 108,-28 108,-89 0,-71 -55,-121 -102,-149 -35,-21 -75,-34 -116,-34 -55,0 -108,28 -108,89 0,71 55,121 102,149 35,21 75,34 116,34 z"
       fill="currentColor"
       id="path2912" />
  </a>
  <a
     style="color:inherit"
     xlink:href="textedit:///private/tmp/Untitled.ly:34:17:18"
     id="a2918"
     transform="translate(-14.2264,-3.8463)">
    <path
       transform="matrix(0.004,0,0,-0.004,50.9349,4.3903)"
       d="m 218,136 c 55,0 108,-28 108,-89 0,-71 -55,-121 -102,-149 -35,-21 -75,-34 -116,-34 -55,0 -108,28 -108,89 0,71 55,121 102,149 35,21 75,34 116,34 z"
       fill="currentColor"
       id="path2916" />
  </a>
  <rect
     x="40.800701"
     y="1.2301"
     width="0.13"
     height="3.3139"
     ry="0.039999999"
     fill="currentColor"
     id="rect2920" />
  <text
     font-family="serif"
     font-size="2.2001px"
     text-anchor="start"
     fill="currentColor"
     id="text2924"
     x="45.524399"
     y="161.7487"><tspan
       id="tspan2922" /></text>
</svg>
