<svg xmlns="http://www.w3.org/2000/svg" xmlns:xlink="http://www.w3.org/1999/xlink" version="1.2" width="120.00mm" height="35.00mm" viewBox="0 0 68.2866 19.9169">
<style text="style/css">
<![CDATA[
tspan { white-space: pre; }
]]>
</style>
<!-- Page: 1/1 -->
<text transform="translate(0.0000, 0.5691)" font-family="serif" font-size="2.2001" text-anchor="start" fill="currentColor">
<tspan/>
</text>
<line transform="translate(3.6989, 9.4690)" stroke-linejoin="round" stroke-linecap="round" stroke-width="0.1000" stroke="currentColor" x1="0.0500" y1="-0.0000" x2="63.1151" y2="-0.0000"/>
<line transform="translate(3.6989, 8.4690)" stroke-linejoin="round" stroke-linecap="round" stroke-width="0.1000" stroke="currentColor" x1="0.0500" y1="-0.0000" x2="63.1151" y2="-0.0000"/>
<line transform="translate(3.6989, 7.4690)" stroke-linejoin="round" stroke-linecap="round" stroke-width="0.1000" stroke="currentColor" x1="0.0500" y1="-0.0000" x2="63.1151" y2="-0.0000"/>
<line transform="translate(3.6989, 6.4690)" stroke-linejoin="round" stroke-linecap="round" stroke-width="0.1000" stroke="currentColor" x1="0.0500" y1="-0.0000" x2="63.1151" y2="-0.0000"/>
<line transform="translate(3.6989, 5.4690)" stroke-linejoin="round" stroke-linecap="round" stroke-width="0.1000" stroke="currentColor" x1="0.0500" y1="-0.0000" x2="63.1151" y2="-0.0000"/>
<rect transform="translate(-1.4226, 10.4690)" x="62.9200" y="-0.1000" width="1.9563" height="0.2000" ry="0.1000" fill="currentColor"/>
<rect transform="translate(-1.4226, 11.4690)" x="62.9200" y="-0.1000" width="1.9563" height="0.2000" ry="0.1000" fill="currentColor"/>
<rect transform="translate(-1.4226, 12.4690)" x="62.9200" y="-0.1000" width="1.9563" height="0.2000" ry="0.1000" fill="currentColor"/>
<rect transform="translate(-1.4226, 13.4690)" x="62.9200" y="-0.1000" width="1.9563" height="0.2000" ry="0.1000" fill="currentColor"/>
<rect transform="translate(-1.4226, 10.4690)" x="60.3177" y="-0.1000" width="1.9563" height="0.2000" ry="0.1000" fill="currentColor"/>
<rect transform="translate(-1.4226, 11.4690)" x="60.3177" y="-0.1000" width="1.9563" height="0.2000" ry="0.1000" fill="currentColor"/>
<rect transform="translate(-1.4226, 12.4690)" x="60.3177" y="-0.1000" width="1.9563" height="0.2000" ry="0.1000" fill="currentColor"/>
<rect transform="translate(-1.4226, 10.4690)" x="57.7153" y="-0.1000" width="1.9563" height="0.2000" ry="0.1000" fill="currentColor"/>
<rect transform="translate(-1.4226, 11.4690)" x="57.7153" y="-0.1000" width="1.9563" height="0.2000" ry="0.1000" fill="currentColor"/>
<rect transform="translate(-1.4226, 12.4690)" x="57.7153" y="-0.1000" width="1.9563" height="0.2000" ry="0.1000" fill="currentColor"/>
<rect transform="translate(-1.4226, 10.4690)" x="53.8671" y="-0.1000" width="1.9563" height="0.2000" ry="0.1000" fill="currentColor"/>
<rect transform="translate(-1.4226, 11.4690)" x="53.8671" y="-0.1000" width="1.9563" height="0.2000" ry="0.1000" fill="currentColor"/>
<rect transform="translate(-1.4226, 4.4690)" x="51.2648" y="-0.1000" width="1.9563" height="0.2000" ry="0.1000" fill="currentColor"/>
<rect transform="translate(-1.4226, 10.4690)" x="51.2648" y="-0.1000" width="1.9563" height="0.2000" ry="0.1000" fill="currentColor"/>
<rect transform="translate(-1.4226, 11.4690)" x="51.2648" y="-0.1000" width="1.9563" height="0.2000" ry="0.1000" fill="currentColor"/>
<rect transform="translate(-1.4226, 4.4690)" x="49.3134" y="-0.1000" width="1.8053" height="0.2000" ry="0.1000" fill="currentColor"/>
<rect transform="translate(-1.4226, 10.4690)" x="49.3134" y="-0.1000" width="1.8053" height="0.2000" ry="0.1000" fill="currentColor"/>
<rect transform="translate(-1.4226, 3.4690)" x="45.2392" y="-0.1000" width="1.8053" height="0.2000" ry="0.1000" fill="currentColor"/>
<rect transform="translate(-1.4226, 4.4690)" x="45.0881" y="-0.1000" width="1.9563" height="0.2000" ry="0.1000" fill="currentColor"/>
<rect transform="translate(-1.4226, 10.4690)" x="45.2392" y="-0.1000" width="1.8053" height="0.2000" ry="0.1000" fill="currentColor"/>
<rect transform="translate(-1.4226, 3.4690)" x="39.5757" y="-0.1000" width="1.9563" height="0.2000" ry="0.1000" fill="currentColor"/>
<rect transform="translate(-1.4226, 4.4690)" x="39.5757" y="-0.1000" width="1.9563" height="0.2000" ry="0.1000" fill="currentColor"/>
<rect transform="translate(-1.4226, 3.4690)" x="37.1098" y="-0.1000" width="1.8199" height="0.2000" ry="0.1000" fill="currentColor"/>
<rect transform="translate(-1.4226, 4.4690)" x="36.9734" y="-0.1000" width="1.9563" height="0.2000" ry="0.1000" fill="currentColor"/>
<rect transform="translate(-1.4226, 10.4690)" x="37.1098" y="-0.1000" width="1.8199" height="0.2000" ry="0.1000" fill="currentColor"/>
<rect transform="translate(-1.4226, 4.4690)" x="34.3596" y="-0.1000" width="1.8199" height="0.2000" ry="0.1000" fill="currentColor"/>
<rect transform="translate(-1.4226, 10.4690)" x="34.3596" y="-0.1000" width="1.8199" height="0.2000" ry="0.1000" fill="currentColor"/>
<rect transform="translate(-1.4226, 4.4690)" x="31.1208" y="-0.1000" width="1.9563" height="0.2000" ry="0.1000" fill="currentColor"/>
<rect transform="translate(-1.4226, 10.4690)" x="31.1208" y="-0.1000" width="1.9563" height="0.2000" ry="0.1000" fill="currentColor"/>
<rect transform="translate(-1.4226, 11.4690)" x="31.1208" y="-0.1000" width="1.9563" height="0.2000" ry="0.1000" fill="currentColor"/>
<rect transform="translate(-1.4226, 10.4690)" x="27.2726" y="-0.1000" width="1.9563" height="0.2000" ry="0.1000" fill="currentColor"/>
<rect transform="translate(-1.4226, 11.4690)" x="27.2726" y="-0.1000" width="1.9563" height="0.2000" ry="0.1000" fill="currentColor"/>
<rect transform="translate(-1.4226, 10.4690)" x="24.6703" y="-0.1000" width="1.9563" height="0.2000" ry="0.1000" fill="currentColor"/>
<rect transform="translate(-1.4226, 11.4690)" x="24.6703" y="-0.1000" width="1.9563" height="0.2000" ry="0.1000" fill="currentColor"/>
<rect transform="translate(-1.4226, 12.4690)" x="24.6703" y="-0.1000" width="1.9563" height="0.2000" ry="0.1000" fill="currentColor"/>
<rect transform="translate(-1.4226, 10.4690)" x="22.0679" y="-0.1000" width="1.9563" height="0.2000" ry="0.1000" fill="currentColor"/>
<rect transform="translate(-1.4226, 11.4690)" x="22.0679" y="-0.1000" width="1.9563" height="0.2000" ry="0.1000" fill="currentColor"/>
<rect transform="translate(-1.4226, 12.4690)" x="22.0679" y="-0.1000" width="1.9563" height="0.2000" ry="0.1000" fill="currentColor"/>
<rect transform="translate(-1.4226, 10.4690)" x="19.4655" y="-0.1000" width="1.9563" height="0.2000" ry="0.1000" fill="currentColor"/>
<rect transform="translate(-1.4226, 11.4690)" x="19.4655" y="-0.1000" width="1.9563" height="0.2000" ry="0.1000" fill="currentColor"/>
<rect transform="translate(-1.4226, 12.4690)" x="19.4655" y="-0.1000" width="1.9563" height="0.2000" ry="0.1000" fill="currentColor"/>
<rect transform="translate(-1.4226, 13.4690)" x="19.4655" y="-0.1000" width="1.9563" height="0.2000" ry="0.1000" fill="currentColor"/>
<rect transform="translate(66.6740, 7.4690)" x="0.0000" y="-2.0000" width="0.1900" height="4.0000" ry="0.0000" fill="currentColor"/>
<rect transform="translate(55.6229, 7.4690)" x="0.0000" y="-2.0000" width="0.1900" height="4.0000" ry="0.0000" fill="currentColor"/>
<rect transform="translate(29.0284, 7.4690)" x="0.0000" y="-2.0000" width="0.1900" height="4.0000" ry="0.0000" fill="currentColor"/>
<rect transform="translate(40.8315, 7.4690)" x="0.0000" y="-2.0000" width="0.1900" height="4.0000" ry="0.0000" fill="currentColor"/>
<a style="color:inherit;" xlink:href="textedit:///tmp/temp.ly:19:37:38">
<path transform="translate(26.1760, 11.9690) scale(0.0040, -0.0040)" d="M218 136c55 0 108 -28 108 -89c0 -71 -55 -121 -102 -149c-35 -21 -75 -34 -116 -34c-55 0 -108 28 -108 89c0 71 55 121 102 149c35 21 75 34 116 34z" fill="currentColor"/>
</a>
<a style="color:inherit;" xlink:href="textedit:///tmp/temp.ly:19:17:18">
<path transform="translate(20.9713, 12.9690) scale(0.0040, -0.0040)" d="M218 136c55 0 108 -28 108 -89c0 -71 -55 -121 -102 -149c-35 -21 -75 -34 -116 -34c-55 0 -108 28 -108 89c0 71 55 121 102 149c35 21 75 34 116 34z" fill="currentColor"/>
</a>
<a style="color:inherit;" xlink:href="textedit:///tmp/temp.ly:19:19:20">
<path transform="translate(20.9713, 9.4690) scale(0.0040, -0.0040)" d="M218 136c55 0 108 -28 108 -89c0 -71 -55 -121 -102 -149c-35 -21 -75 -34 -116 -34c-55 0 -108 28 -108 89c0 71 55 121 102 149c35 21 75 34 116 34z" fill="currentColor"/>
</a>
<a style="color:inherit;" xlink:href="textedit:///tmp/temp.ly:19:22:23">
<path transform="translate(20.9713, 5.9690) scale(0.0040, -0.0040)" d="M218 136c55 0 108 -28 108 -89c0 -71 -55 -121 -102 -149c-35 -21 -75 -34 -116 -34c-55 0 -108 28 -108 89c0 71 55 121 102 149c35 21 75 34 116 34z" fill="currentColor"/>
</a>
<rect transform="translate(22.2105, 7.4690)" x="-0.0650" y="-4.3333" width="0.1300" height="9.6472" ry="0.0400" fill="currentColor"/>
<a style="color:inherit;" xlink:href="textedit:///tmp/temp.ly:19:27:28">
<path transform="translate(23.5737, 12.4690) scale(0.0040, -0.0040)" d="M218 136c55 0 108 -28 108 -89c0 -71 -55 -121 -102 -149c-35 -21 -75 -34 -116 -34c-55 0 -108 28 -108 89c0 71 55 121 102 149c35 21 75 34 116 34z" fill="currentColor"/>
</a>
<a style="color:inherit;" xlink:href="textedit:///tmp/temp.ly:19:29:30">
<path transform="translate(23.5737, 8.9690) scale(0.0040, -0.0040)" d="M218 136c55 0 108 -28 108 -89c0 -71 -55 -121 -102 -149c-35 -21 -75 -34 -116 -34c-55 0 -108 28 -108 89c0 71 55 121 102 149c35 21 75 34 116 34z" fill="currentColor"/>
</a>
<a style="color:inherit;" xlink:href="textedit:///tmp/temp.ly:19:32:33">
<path transform="translate(23.5737, 5.4690) scale(0.0040, -0.0040)" d="M218 136c55 0 108 -28 108 -89c0 -71 -55 -121 -102 -149c-35 -21 -75 -34 -116 -34c-55 0 -108 28 -108 89c0 71 55 121 102 149c35 21 75 34 116 34z" fill="currentColor"/>
</a>
<rect transform="translate(24.8129, 7.4690)" x="-0.0650" y="-4.6667" width="0.1300" height="9.4806" ry="0.0400" fill="currentColor"/>
<rect transform="translate(63.0627, 7.4690)" x="-0.0650" y="-4.0000" width="0.1300" height="9.8139" ry="0.0400" fill="currentColor"/>
<rect transform="translate(38.5442, 7.4690)" x="-0.0650" y="-4.3139" width="0.1300" height="9.3139" ry="0.0400" fill="currentColor"/>
<a style="color:inherit;" xlink:href="textedit:///tmp/temp.ly:19:155:156">
<path transform="translate(59.2211, 12.9690) scale(0.0040, -0.0040)" d="M218 136c55 0 108 -28 108 -89c0 -71 -55 -121 -102 -149c-35 -21 -75 -34 -116 -34c-55 0 -108 28 -108 89c0 71 55 121 102 149c35 21 75 34 116 34z" fill="currentColor"/>
</a>
<a style="color:inherit;" xlink:href="textedit:///tmp/temp.ly:19:157:158">
<path transform="translate(59.2211, 9.4690) scale(0.0040, -0.0040)" d="M218 136c55 0 108 -28 108 -89c0 -71 -55 -121 -102 -149c-35 -21 -75 -34 -116 -34c-55 0 -108 28 -108 89c0 71 55 121 102 149c35 21 75 34 116 34z" fill="currentColor"/>
</a>
<a style="color:inherit;" xlink:href="textedit:///tmp/temp.ly:19:160:161">
<path transform="translate(59.2211, 5.9690) scale(0.0040, -0.0040)" d="M218 136c55 0 108 -28 108 -89c0 -71 -55 -121 -102 -149c-35 -21 -75 -34 -116 -34c-55 0 -108 28 -108 89c0 71 55 121 102 149c35 21 75 34 116 34z" fill="currentColor"/>
</a>
<rect transform="translate(60.4603, 7.4690)" x="-0.0650" y="-4.3333" width="0.1300" height="9.6472" ry="0.0400" fill="currentColor"/>
<a style="color:inherit;" xlink:href="textedit:///tmp/temp.ly:19:165:166">
<path transform="translate(61.8235, 13.4690) scale(0.0040, -0.0040)" d="M218 136c55 0 108 -28 108 -89c0 -71 -55 -121 -102 -149c-35 -21 -75 -34 -116 -34c-55 0 -108 28 -108 89c0 71 55 121 102 149c35 21 75 34 116 34z" fill="currentColor"/>
</a>
<a style="color:inherit;" xlink:href="textedit:///tmp/temp.ly:19:167:168">
<path transform="translate(61.8235, 9.9690) scale(0.0040, -0.0040)" d="M218 136c55 0 108 -28 108 -89c0 -71 -55 -121 -102 -149c-35 -21 -75 -34 -116 -34c-55 0 -108 28 -108 89c0 71 55 121 102 149c35 21 75 34 116 34z" fill="currentColor"/>
</a>
<a style="color:inherit;" xlink:href="textedit:///tmp/temp.ly:19:170:171">
<path transform="translate(61.8235, 6.4690) scale(0.0040, -0.0040)" d="M218 136c55 0 108 -28 108 -89c0 -71 -55 -121 -102 -149c-35 -21 -75 -34 -116 -34c-55 0 -108 28 -108 89c0 71 55 121 102 149c35 21 75 34 116 34z" fill="currentColor"/>
</a>
<a style="color:inherit;" xlink:href="textedit:///tmp/temp.ly:19:174:175">
<path transform="translate(64.4258, 7.4690) scale(0.0040, -0.0040)" d="M-23 -116c0 28 11 42 40 42c33 0 78 -13 119 -31l-132 158c-7 9 -10 17 -10 25c0 34 50 66 87 99c25 22 37 52 37 83c0 24 -8 49 -25 69l-35 42c-3 3 -4 7 -4 10c0 9 9 15 17 15c4 0 8 -1 11 -5l151 -180c7 -9 10 -17 10 -25c0 -34 -50 -66 -87 -99
c-25 -22 -37 -52 -37 -83c0 -24 7 -49 24 -69l84 -99c3 -3 4 -7 4 -10c0 -9 -8 -16 -16 -16c-4 0 -9 2 -12 6c-18 21 -63 38 -97 38c-41 0 -53 -26 -53 -67c0 -35 11 -74 28 -94c7 -8 -5 -19 -12 -11c-45 54 -92 148 -92 202z" fill="currentColor"/>
</a>
<a style="color:inherit;" xlink:href="textedit:///tmp/temp.ly:19:77:78">
<path transform="translate(35.8768, 6.9690) scale(0.0040, -0.0040)" d="M218 136c55 0 108 -28 108 -89c0 -71 -55 -121 -102 -149c-35 -21 -75 -34 -116 -34c-55 0 -108 28 -108 89c0 71 55 121 102 149c35 21 75 34 116 34z" fill="currentColor"/>
</a>
<a style="color:inherit;" xlink:href="textedit:///tmp/temp.ly:19:61:62">
<path transform="translate(33.1266, 7.4690) scale(0.0040, -0.0040)" d="M218 136c55 0 108 -28 108 -89c0 -71 -55 -121 -102 -149c-35 -21 -75 -34 -116 -34c-55 0 -108 28 -108 89c0 71 55 121 102 149c35 21 75 34 116 34z" fill="currentColor"/>
</a>
<a style="color:inherit;" xlink:href="textedit:///tmp/temp.ly:19:66:67">
<path transform="translate(33.1266, 3.9690) scale(0.0040, -0.0040)" d="M218 136c55 0 108 -28 108 -89c0 -71 -55 -121 -102 -149c-35 -21 -75 -34 -116 -34c-55 0 -108 28 -108 89c0 71 55 121 102 149c35 21 75 34 116 34z" fill="currentColor"/>
</a>
<rect transform="translate(33.1916, 7.4690)" x="-0.0650" y="-3.3139" width="0.1300" height="9.3139" ry="0.0400" fill="currentColor"/>
<path transform="translate(32.0806, 10.9690) scale(0.0040, -0.0040)" d="M-8 375c8 4 17 7 26 7s16 -3 24 -7l-2 -183l106 20h3c10 0 18 -7 18 -17l7 -570c-8 -4 -16 -7 -25 -7s-17 3 -25 7l3 183l-106 -20h-3c-10 0 -18 7 -18 17zM131 112l-92 -17l-3 -207l92 17z" fill="currentColor"/>
<path transform="translate(32.0806, 7.4690) scale(0.0040, -0.0040)" d="M-8 375c8 4 17 7 26 7s16 -3 24 -7l-2 -183l106 20h3c10 0 18 -7 18 -17l7 -570c-8 -4 -16 -7 -25 -7s-17 3 -25 7l3 183l-106 -20h-3c-10 0 -18 7 -18 17zM131 112l-92 -17l-3 -207l92 17z" fill="currentColor"/>
<path transform="translate(32.0806, 3.9690) scale(0.0040, -0.0040)" d="M-8 375c8 4 17 7 26 7s16 -3 24 -7l-2 -183l106 20h3c10 0 18 -7 18 -17l7 -570c-8 -4 -16 -7 -25 -7s-17 3 -25 7l3 183l-106 -20h-3c-10 0 -18 7 -18 17zM131 112l-92 -17l-3 -207l92 17z" fill="currentColor"/>
<a style="color:inherit;" xlink:href="textedit:///tmp/temp.ly:19:73:74">
<path transform="translate(35.8768, 10.4690) scale(0.0040, -0.0040)" d="M218 136c55 0 108 -28 108 -89c0 -71 -55 -121 -102 -149c-35 -21 -75 -34 -116 -34c-55 0 -108 28 -108 89c0 71 55 121 102 149c35 21 75 34 116 34z" fill="currentColor"/>
</a>
<a style="color:inherit;" xlink:href="textedit:///tmp/temp.ly:19:57:58">
<path transform="translate(33.1266, 10.9690) scale(0.0040, -0.0040)" d="M218 136c55 0 108 -28 108 -89c0 -71 -55 -121 -102 -149c-35 -21 -75 -34 -116 -34c-55 0 -108 28 -108 89c0 71 55 121 102 149c35 21 75 34 116 34z" fill="currentColor"/>
</a>
<a style="color:inherit;" xlink:href="textedit:///tmp/temp.ly:19:82:83">
<path transform="translate(35.8768, 3.4690) scale(0.0040, -0.0040)" d="M218 136c55 0 108 -28 108 -89c0 -71 -55 -121 -102 -149c-35 -21 -75 -34 -116 -34c-55 0 -108 28 -108 89c0 71 55 121 102 149c35 21 75 34 116 34z" fill="currentColor"/>
</a>
<rect transform="translate(35.9418, 7.4690)" x="-0.0650" y="-3.8139" width="0.1300" height="9.3139" ry="0.0400" fill="currentColor"/>
<path transform="translate(34.8308, 6.9690) scale(0.0040, -0.0040)" d="M-8 375c8 4 17 7 26 7s16 -3 24 -7l-2 -183l106 20h3c10 0 18 -7 18 -17l7 -570c-8 -4 -16 -7 -25 -7s-17 3 -25 7l3 183l-106 -20h-3c-10 0 -18 7 -18 17zM131 112l-92 -17l-3 -207l92 17z" fill="currentColor"/>
<path transform="translate(34.8308, 3.4690) scale(0.0040, -0.0040)" d="M-8 375c8 4 17 7 26 7s16 -3 24 -7l-2 -183l106 20h3c10 0 18 -7 18 -17l7 -570c-8 -4 -16 -7 -25 -7s-17 3 -25 7l3 183l-106 -20h-3c-10 0 -18 7 -18 17zM131 112l-92 -17l-3 -207l92 17z" fill="currentColor"/>
<a style="color:inherit;" xlink:href="textedit:///tmp/temp.ly:19:89:90">
<path transform="translate(38.4792, 9.9690) scale(0.0040, -0.0040)" d="M218 136c55 0 108 -28 108 -89c0 -71 -55 -121 -102 -149c-35 -21 -75 -34 -116 -34c-55 0 -108 28 -108 89c0 71 55 121 102 149c35 21 75 34 116 34z" fill="currentColor"/>
</a>
<a style="color:inherit;" xlink:href="textedit:///tmp/temp.ly:19:91:92">
<path transform="translate(38.4792, 6.4690) scale(0.0040, -0.0040)" d="M218 136c55 0 108 -28 108 -89c0 -71 -55 -121 -102 -149c-35 -21 -75 -34 -116 -34c-55 0 -108 28 -108 89c0 71 55 121 102 149c35 21 75 34 116 34z" fill="currentColor"/>
</a>
<a style="color:inherit;" xlink:href="textedit:///tmp/temp.ly:19:94:95">
<path transform="translate(38.4792, 2.9690) scale(0.0040, -0.0040)" d="M218 136c55 0 108 -28 108 -89c0 -71 -55 -121 -102 -149c-35 -21 -75 -34 -116 -34c-55 0 -108 28 -108 89c0 71 55 121 102 149c35 21 75 34 116 34z" fill="currentColor"/>
</a>
<a style="color:inherit;" xlink:href="textedit:///tmp/temp.ly:19:42:43">
<path transform="translate(26.1760, 4.9690) scale(0.0040, -0.0040)" d="M218 136c55 0 108 -28 108 -89c0 -71 -55 -121 -102 -149c-35 -21 -75 -34 -116 -34c-55 0 -108 28 -108 89c0 71 55 121 102 149c35 21 75 34 116 34z" fill="currentColor"/>
</a>
<rect transform="translate(27.4153, 7.4690)" x="-0.0650" y="-5.0000" width="0.1300" height="9.3139" ry="0.0400" fill="currentColor"/>
<a style="color:inherit;" xlink:href="textedit:///tmp/temp.ly:19:47:48">
<path transform="translate(30.0242, 11.4690) scale(0.0040, -0.0040)" d="M218 136c55 0 108 -28 108 -89c0 -71 -55 -121 -102 -149c-35 -21 -75 -34 -116 -34c-55 0 -108 28 -108 89c0 71 55 121 102 149c35 21 75 34 116 34z" fill="currentColor"/>
</a>
<a style="color:inherit;" xlink:href="textedit:///tmp/temp.ly:19:49:50">
<path transform="translate(30.0242, 7.9690) scale(0.0040, -0.0040)" d="M218 136c55 0 108 -28 108 -89c0 -71 -55 -121 -102 -149c-35 -21 -75 -34 -116 -34c-55 0 -108 28 -108 89c0 71 55 121 102 149c35 21 75 34 116 34z" fill="currentColor"/>
</a>
<a style="color:inherit;" xlink:href="textedit:///tmp/temp.ly:19:52:53">
<path transform="translate(30.0242, 4.4690) scale(0.0040, -0.0040)" d="M218 136c55 0 108 -28 108 -89c0 -71 -55 -121 -102 -149c-35 -21 -75 -34 -116 -34c-55 0 -108 28 -108 89c0 71 55 121 102 149c35 21 75 34 116 34z" fill="currentColor"/>
</a>
<rect transform="translate(31.2634, 7.4690)" x="-0.0650" y="-5.5000" width="0.1300" height="9.3139" ry="0.0400" fill="currentColor"/>
<a style="color:inherit;" xlink:href="textedit:///tmp/temp.ly:19:39:40">
<path transform="translate(26.1760, 8.4690) scale(0.0040, -0.0040)" d="M218 136c55 0 108 -28 108 -89c0 -71 -55 -121 -102 -149c-35 -21 -75 -34 -116 -34c-55 0 -108 28 -108 89c0 71 55 121 102 149c35 21 75 34 116 34z" fill="currentColor"/>
</a>
<path transform="translate(43.0416, 10.4690) scale(0.0040, -0.0040)" d="M100 0c0 85 -11 173 -60 243c-2 2 -3 5 -3 7c0 7 6 13 13 13c4 0 7 -2 10 -6c53 -76 90 -164 90 -257s-37 -181 -90 -257c-3 -4 -6 -6 -10 -6c-7 0 -13 6 -13 13c0 2 1 5 3 7c49 70 60 158 60 243z" fill="currentColor"/>
<path transform="translate(42.1215, 10.4690) scale(0.0040, -0.0040)" d="M-100 0c0 -85 11 -173 60 -243c2 -2 3 -5 3 -7c0 -7 -6 -13 -13 -13c-4 0 -7 2 -10 6c-53 76 -90 164 -90 257s37 181 90 257c3 4 6 6 10 6c7 0 13 -6 13 -13c0 -2 -1 -5 -3 -7c-49 -70 -60 -158 -60 -243z" fill="currentColor"/>
<path transform="translate(42.2416, 10.4690) scale(0.0040, -0.0040)" d="M27 41l-1 -66v-11c0 -22 1 -44 4 -66c45 38 93 80 93 139c0 33 -14 67 -43 67c-31 0 -52 -30 -53 -63zM-15 -138l-12 595c8 5 18 8 27 8s19 -3 27 -8l-7 -345c25 21 58 34 91 34c52 0 89 -48 89 -102c0 -80 -86 -117 -147 -169c-15 -13 -24 -38 -45 -38
c-13 0 -23 11 -23 25z" fill="currentColor"/>
<a style="color:inherit;" xlink:href="textedit:///tmp/temp.ly:19:99:100">
<path transform="translate(43.9916, 10.4690) scale(0.0040, -0.0040)" d="M218 136c55 0 108 -28 108 -89c0 -71 -55 -121 -102 -149c-35 -21 -75 -34 -116 -34c-55 0 -108 28 -108 89c0 71 55 121 102 149c35 21 75 34 116 34z" fill="currentColor"/>
</a>
<a style="color:inherit;" xlink:href="textedit:///tmp/temp.ly:19:102:103">
<path transform="translate(43.9916, 6.9690) scale(0.0040, -0.0040)" d="M218 136c55 0 108 -28 108 -89c0 -71 -55 -121 -102 -149c-35 -21 -75 -34 -116 -34c-55 0 -108 28 -108 89c0 71 55 121 102 149c35 21 75 34 116 34z" fill="currentColor"/>
</a>
<a style="color:inherit;" xlink:href="textedit:///tmp/temp.ly:19:106:107">
<path transform="translate(43.9916, 3.4690) scale(0.0040, -0.0040)" d="M218 136c55 0 108 -28 108 -89c0 -71 -55 -121 -102 -149c-35 -21 -75 -34 -116 -34c-55 0 -108 28 -108 89c0 71 55 121 102 149c35 21 75 34 116 34z" fill="currentColor"/>
</a>
<rect transform="translate(44.0566, 7.4690)" x="-0.0650" y="-3.8139" width="0.1300" height="9.3139" ry="0.0400" fill="currentColor"/>
<path transform="translate(43.0416, 6.9690) scale(0.0040, -0.0040)" d="M100 0c0 85 -11 173 -60 243c-2 2 -3 5 -3 7c0 7 6 13 13 13c4 0 7 -2 10 -6c53 -76 90 -164 90 -257s-37 -181 -90 -257c-3 -4 -6 -6 -10 -6c-7 0 -13 6 -13 13c0 2 1 5 3 7c49 70 60 158 60 243z" fill="currentColor"/>
<path transform="translate(42.1215, 6.9690) scale(0.0040, -0.0040)" d="M-100 0c0 -85 11 -173 60 -243c2 -2 3 -5 3 -7c0 -7 -6 -13 -13 -13c-4 0 -7 2 -10 6c-53 76 -90 164 -90 257s37 181 90 257c3 4 6 6 10 6c7 0 13 -6 13 -13c0 -2 -1 -5 -3 -7c-49 -70 -60 -158 -60 -243z" fill="currentColor"/>
<path transform="translate(42.2416, 6.9690) scale(0.0040, -0.0040)" d="M27 41l-1 -66v-11c0 -22 1 -44 4 -66c45 38 93 80 93 139c0 33 -14 67 -43 67c-31 0 -52 -30 -53 -63zM-15 -138l-12 595c8 5 18 8 27 8s19 -3 27 -8l-7 -345c25 21 58 34 91 34c52 0 89 -48 89 -102c0 -80 -86 -117 -147 -169c-15 -13 -24 -38 -45 -38
c-13 0 -23 11 -23 25z" fill="currentColor"/>
<path transform="translate(43.0416, 3.4690) scale(0.0040, -0.0040)" d="M100 0c0 85 -11 173 -60 243c-2 2 -3 5 -3 7c0 7 6 13 13 13c4 0 7 -2 10 -6c53 -76 90 -164 90 -257s-37 -181 -90 -257c-3 -4 -6 -6 -10 -6c-7 0 -13 6 -13 13c0 2 1 5 3 7c49 70 60 158 60 243z" fill="currentColor"/>
<path transform="translate(42.1215, 3.4690) scale(0.0040, -0.0040)" d="M-100 0c0 -85 11 -173 60 -243c2 -2 3 -5 3 -7c0 -7 -6 -13 -13 -13c-4 0 -7 2 -10 6c-53 76 -90 164 -90 257s37 181 90 257c3 4 6 6 10 6c7 0 13 -6 13 -13c0 -2 -1 -5 -3 -7c-49 -70 -60 -158 -60 -243z" fill="currentColor"/>
<path transform="translate(42.2416, 3.4690) scale(0.0040, -0.0040)" d="M27 41l-1 -66v-11c0 -22 1 -44 4 -66c45 38 93 80 93 139c0 33 -14 67 -43 67c-31 0 -52 -30 -53 -63zM-15 -138l-12 595c8 5 18 8 27 8s19 -3 27 -8l-7 -345c25 21 58 34 91 34c52 0 89 -48 89 -102c0 -80 -86 -117 -147 -169c-15 -13 -24 -38 -45 -38
c-13 0 -23 11 -23 25z" fill="currentColor"/>
<a style="color:inherit;" xlink:href="textedit:///tmp/temp.ly:19:112:113">
<path transform="translate(48.0658, 10.9690) scale(0.0040, -0.0040)" d="M218 136c55 0 108 -28 108 -89c0 -71 -55 -121 -102 -149c-35 -21 -75 -34 -116 -34c-55 0 -108 28 -108 89c0 71 55 121 102 149c35 21 75 34 116 34z" fill="currentColor"/>
</a>
<a style="color:inherit;" xlink:href="textedit:///tmp/temp.ly:19:115:116">
<path transform="translate(48.0658, 7.4690) scale(0.0040, -0.0040)" d="M218 136c55 0 108 -28 108 -89c0 -71 -55 -121 -102 -149c-35 -21 -75 -34 -116 -34c-55 0 -108 28 -108 89c0 71 55 121 102 149c35 21 75 34 116 34z" fill="currentColor"/>
</a>
<rect transform="translate(19.6081, 7.4690)" x="-0.0650" y="-4.0000" width="0.1300" height="9.8139" ry="0.0400" fill="currentColor"/>
<path transform="translate(34.8308, 10.4690) scale(0.0040, -0.0040)" d="M-8 375c8 4 17 7 26 7s16 -3 24 -7l-2 -183l106 20h3c10 0 18 -7 18 -17l7 -570c-8 -4 -16 -7 -25 -7s-17 3 -25 7l3 183l-106 -20h-3c-10 0 -18 7 -18 17zM131 112l-92 -17l-3 -207l92 17z" fill="currentColor"/>
<a style="color:inherit;" xlink:href="textedit:///tmp/temp.ly:19:7:8">
<path transform="translate(18.3689, 13.4690) scale(0.0040, -0.0040)" d="M218 136c55 0 108 -28 108 -89c0 -71 -55 -121 -102 -149c-35 -21 -75 -34 -116 -34c-55 0 -108 28 -108 89c0 71 55 121 102 149c35 21 75 34 116 34z" fill="currentColor"/>
</a>
<a style="color:inherit;" xlink:href="textedit:///tmp/temp.ly:19:9:10">
<path transform="translate(18.3689, 9.9690) scale(0.0040, -0.0040)" d="M218 136c55 0 108 -28 108 -89c0 -71 -55 -121 -102 -149c-35 -21 -75 -34 -116 -34c-55 0 -108 28 -108 89c0 71 55 121 102 149c35 21 75 34 116 34z" fill="currentColor"/>
</a>
<a style="color:inherit;" xlink:href="textedit:///tmp/temp.ly:19:12:13">
<path transform="translate(18.3689, 6.4690) scale(0.0040, -0.0040)" d="M218 136c55 0 108 -28 108 -89c0 -71 -55 -121 -102 -149c-35 -21 -75 -34 -116 -34c-55 0 -108 28 -108 89c0 71 55 121 102 149c35 21 75 34 116 34z" fill="currentColor"/>
</a>
<path transform="translate(4.4989, 7.4690) scale(0.0040, -0.0040)" d="M318 0c0 -33 7 -73 45 -73c29 0 57 31 88 31c123 0 229 -89 229 -208c0 -169 -93 -250 -265 -250c-83 0 -152 61 -152 142c0 42 34 77 76 77s76 -35 76 -77c0 -39 -49 -37 -49 -76c0 -23 24 -38 49 -38c116 0 140 90 140 222c0 106 -12 180 -104 180
c-72 0 -119 -71 -119 -149c0 -9 -7 -14 -14 -14s-13 5 -13 14c0 76 -31 147 -84 200v-471c0 -6 -4 -10 -10 -10h-21c-6 0 -10 4 -10 10v980c0 6 4 10 10 10h21c6 0 10 -4 10 -10v-471c53 53 84 124 84 200c0 9 6 14 13 14s14 -5 14 -14c0 -78 47 -149 119 -149
c92 0 104 74 104 180c0 132 -24 222 -140 222c-25 0 -49 -15 -49 -38c0 -39 49 -37 49 -76c0 -42 -34 -77 -76 -77s-76 35 -76 77c0 81 69 142 152 142c172 0 265 -81 265 -250c0 -119 -106 -208 -229 -208c-31 0 -59 31 -88 31c-38 0 -45 -40 -45 -73zM129 -500h-119
c-6 0 -10 4 -10 10v980c0 6 4 10 10 10h119c6 0 10 -4 10 -10v-980c0 -6 -4 -10 -10 -10z" fill="currentColor"/>
<a style="color:inherit;" xlink:href="textedit:///tmp/temp.ly:18:4:5">
<path transform="translate(8.1189, 7.9690) scale(0.0040, -0.0040)" d="M27 41l-1 -66v-11c0 -22 1 -44 4 -66c45 38 93 80 93 139c0 33 -14 67 -43 67c-31 0 -52 -30 -53 -63zM-15 -138l-12 595c8 5 18 8 27 8s19 -3 27 -8l-7 -345c25 21 58 34 91 34c52 0 89 -48 89 -102c0 -80 -86 -117 -147 -169c-15 -13 -24 -38 -45 -38
c-13 0 -23 11 -23 25z" fill="currentColor"/>
<path transform="translate(9.0389, 6.4690) scale(0.0040, -0.0040)" d="M27 41l-1 -66v-11c0 -22 1 -44 4 -66c45 38 93 80 93 139c0 33 -14 67 -43 67c-31 0 -52 -30 -53 -63zM-15 -138l-12 595c8 5 18 8 27 8s19 -3 27 -8l-7 -345c25 21 58 34 91 34c52 0 89 -48 89 -102c0 -80 -86 -117 -147 -169c-15 -13 -24 -38 -45 -38
c-13 0 -23 11 -23 25z" fill="currentColor"/>
<path transform="translate(9.9589, 8.4690) scale(0.0040, -0.0040)" d="M27 41l-1 -66v-11c0 -22 1 -44 4 -66c45 38 93 80 93 139c0 33 -14 67 -43 67c-31 0 -52 -30 -53 -63zM-15 -138l-12 595c8 5 18 8 27 8s19 -3 27 -8l-7 -345c25 21 58 34 91 34c52 0 89 -48 89 -102c0 -80 -86 -117 -147 -169c-15 -13 -24 -38 -45 -38
c-13 0 -23 11 -23 25z" fill="currentColor"/>
<path transform="translate(10.8789, 6.9690) scale(0.0040, -0.0040)" d="M27 41l-1 -66v-11c0 -22 1 -44 4 -66c45 38 93 80 93 139c0 33 -14 67 -43 67c-31 0 -52 -30 -53 -63zM-15 -138l-12 595c8 5 18 8 27 8s19 -3 27 -8l-7 -345c25 21 58 34 91 34c52 0 89 -48 89 -102c0 -80 -86 -117 -147 -169c-15 -13 -24 -38 -45 -38
c-13 0 -23 11 -23 25z" fill="currentColor"/>
<path transform="translate(11.7989, 8.9690) scale(0.0040, -0.0040)" d="M27 41l-1 -66v-11c0 -22 1 -44 4 -66c45 38 93 80 93 139c0 33 -14 67 -43 67c-31 0 -52 -30 -53 -63zM-15 -138l-12 595c8 5 18 8 27 8s19 -3 27 -8l-7 -345c25 21 58 34 91 34c52 0 89 -48 89 -102c0 -80 -86 -117 -147 -169c-15 -13 -24 -38 -45 -38
c-13 0 -23 11 -23 25z" fill="currentColor"/>
<path transform="translate(12.7189, 7.4690) scale(0.0040, -0.0040)" d="M27 41l-1 -66v-11c0 -22 1 -44 4 -66c45 38 93 80 93 139c0 33 -14 67 -43 67c-31 0 -52 -30 -53 -63zM-15 -138l-12 595c8 5 18 8 27 8s19 -3 27 -8l-7 -345c25 21 58 34 91 34c52 0 89 -48 89 -102c0 -80 -86 -117 -147 -169c-15 -13 -24 -38 -45 -38
c-13 0 -23 11 -23 25z" fill="currentColor"/>
</a>
<path transform="translate(14.6689, 7.4690) scale(0.0040, -0.0040)" d="M359 27c-49 0 -75 42 -75 75c0 38 27 77 72 77c4 0 9 0 14 -1c-28 37 -72 59 -120 59c-106 0 -113 -73 -113 -186v-51v-51c0 -113 7 -187 113 -187c80 0 139 70 158 151c2 7 7 10 12 10c6 0 13 -4 13 -12c0 -94 -105 -174 -183 -174c-68 0 -137 21 -184 70
c-49 51 -66 122 -66 193s17 142 66 193c47 49 116 69 184 69c87 0 160 -63 175 -149c1 -5 1 -10 1 -14c0 -40 -30 -72 -67 -72z" fill="currentColor"/>
<a style="color:inherit;" xlink:href="textedit:///tmp/temp.ly:19:135:136">
<path transform="translate(52.7705, 11.9690) scale(0.0040, -0.0040)" d="M218 136c55 0 108 -28 108 -89c0 -71 -55 -121 -102 -149c-35 -21 -75 -34 -116 -34c-55 0 -108 28 -108 89c0 71 55 121 102 149c35 21 75 34 116 34z" fill="currentColor"/>
</a>
<a style="color:inherit;" xlink:href="textedit:///tmp/temp.ly:19:137:138">
<path transform="translate(52.7705, 8.4690) scale(0.0040, -0.0040)" d="M218 136c55 0 108 -28 108 -89c0 -71 -55 -121 -102 -149c-35 -21 -75 -34 -116 -34c-55 0 -108 28 -108 89c0 71 55 121 102 149c35 21 75 34 116 34z" fill="currentColor"/>
</a>
<a style="color:inherit;" xlink:href="textedit:///tmp/temp.ly:19:140:141">
<path transform="translate(52.7705, 4.9690) scale(0.0040, -0.0040)" d="M218 136c55 0 108 -28 108 -89c0 -71 -55 -121 -102 -149c-35 -21 -75 -34 -116 -34c-55 0 -108 28 -108 89c0 71 55 121 102 149c35 21 75 34 116 34z" fill="currentColor"/>
</a>
<rect transform="translate(54.0098, 7.4690)" x="-0.0650" y="-5.0000" width="0.1300" height="9.3139" ry="0.0400" fill="currentColor"/>
<rect transform="translate(57.8579, 7.4690)" x="-0.0650" y="-4.6667" width="0.1300" height="9.4806" ry="0.0400" fill="currentColor"/>
<a style="color:inherit;" xlink:href="textedit:///tmp/temp.ly:19:145:146">
<path transform="translate(56.6187, 12.4690) scale(0.0040, -0.0040)" d="M218 136c55 0 108 -28 108 -89c0 -71 -55 -121 -102 -149c-35 -21 -75 -34 -116 -34c-55 0 -108 28 -108 89c0 71 55 121 102 149c35 21 75 34 116 34z" fill="currentColor"/>
</a>
<a style="color:inherit;" xlink:href="textedit:///tmp/temp.ly:19:147:148">
<path transform="translate(56.6187, 8.9690) scale(0.0040, -0.0040)" d="M218 136c55 0 108 -28 108 -89c0 -71 -55 -121 -102 -149c-35 -21 -75 -34 -116 -34c-55 0 -108 28 -108 89c0 71 55 121 102 149c35 21 75 34 116 34z" fill="currentColor"/>
</a>
<a style="color:inherit;" xlink:href="textedit:///tmp/temp.ly:19:150:151">
<path transform="translate(56.6187, 5.4690) scale(0.0040, -0.0040)" d="M218 136c55 0 108 -28 108 -89c0 -71 -55 -121 -102 -149c-35 -21 -75 -34 -116 -34c-55 0 -108 28 -108 89c0 71 55 121 102 149c35 21 75 34 116 34z" fill="currentColor"/>
</a>
<rect transform="translate(48.1308, 7.4690)" x="-0.0650" y="-3.3139" width="0.1300" height="9.3139" ry="0.0400" fill="currentColor"/>
<a style="color:inherit;" xlink:href="textedit:///tmp/temp.ly:19:119:120">
<path transform="translate(48.0658, 3.9690) scale(0.0040, -0.0040)" d="M218 136c55 0 108 -28 108 -89c0 -71 -55 -121 -102 -149c-35 -21 -75 -34 -116 -34c-55 0 -108 28 -108 89c0 71 55 121 102 149c35 21 75 34 116 34z" fill="currentColor"/>
</a>
<path transform="translate(47.1158, 10.9690) scale(0.0040, -0.0040)" d="M100 0c0 85 -11 173 -60 243c-2 2 -3 5 -3 7c0 7 6 13 13 13c4 0 7 -2 10 -6c53 -76 90 -164 90 -257s-37 -181 -90 -257c-3 -4 -6 -6 -10 -6c-7 0 -13 6 -13 13c0 2 1 5 3 7c49 70 60 158 60 243z" fill="currentColor"/>
<path transform="translate(46.1958, 10.9690) scale(0.0040, -0.0040)" d="M-100 0c0 -85 11 -173 60 -243c2 -2 3 -5 3 -7c0 -7 -6 -13 -13 -13c-4 0 -7 2 -10 6c-53 76 -90 164 -90 257s37 181 90 257c3 4 6 6 10 6c7 0 13 -6 13 -13c0 -2 -1 -5 -3 -7c-49 -70 -60 -158 -60 -243z" fill="currentColor"/>
<path transform="translate(46.3158, 10.9690) scale(0.0040, -0.0040)" d="M27 41l-1 -66v-11c0 -22 1 -44 4 -66c45 38 93 80 93 139c0 33 -14 67 -43 67c-31 0 -52 -30 -53 -63zM-15 -138l-12 595c8 5 18 8 27 8s19 -3 27 -8l-7 -345c25 21 58 34 91 34c52 0 89 -48 89 -102c0 -80 -86 -117 -147 -169c-15 -13 -24 -38 -45 -38
c-13 0 -23 11 -23 25z" fill="currentColor"/>
<path transform="translate(47.1158, 7.4690) scale(0.0040, -0.0040)" d="M100 0c0 85 -11 173 -60 243c-2 2 -3 5 -3 7c0 7 6 13 13 13c4 0 7 -2 10 -6c53 -76 90 -164 90 -257s-37 -181 -90 -257c-3 -4 -6 -6 -10 -6c-7 0 -13 6 -13 13c0 2 1 5 3 7c49 70 60 158 60 243z" fill="currentColor"/>
<path transform="translate(46.1958, 7.4690) scale(0.0040, -0.0040)" d="M-100 0c0 -85 11 -173 60 -243c2 -2 3 -5 3 -7c0 -7 -6 -13 -13 -13c-4 0 -7 2 -10 6c-53 76 -90 164 -90 257s37 181 90 257c3 4 6 6 10 6c7 0 13 -6 13 -13c0 -2 -1 -5 -3 -7c-49 -70 -60 -158 -60 -243z" fill="currentColor"/>
<path transform="translate(46.3158, 7.4690) scale(0.0040, -0.0040)" d="M27 41l-1 -66v-11c0 -22 1 -44 4 -66c45 38 93 80 93 139c0 33 -14 67 -43 67c-31 0 -52 -30 -53 -63zM-15 -138l-12 595c8 5 18 8 27 8s19 -3 27 -8l-7 -345c25 21 58 34 91 34c52 0 89 -48 89 -102c0 -80 -86 -117 -147 -169c-15 -13 -24 -38 -45 -38
c-13 0 -23 11 -23 25z" fill="currentColor"/>
<rect transform="translate(51.4074, 7.4690)" x="-0.0650" y="-5.5000" width="0.1300" height="9.3139" ry="0.0400" fill="currentColor"/>
<path transform="translate(47.1158, 3.9690) scale(0.0040, -0.0040)" d="M100 0c0 85 -11 173 -60 243c-2 2 -3 5 -3 7c0 7 6 13 13 13c4 0 7 -2 10 -6c53 -76 90 -164 90 -257s-37 -181 -90 -257c-3 -4 -6 -6 -10 -6c-7 0 -13 6 -13 13c0 2 1 5 3 7c49 70 60 158 60 243z" fill="currentColor"/>
<path transform="translate(46.1958, 3.9690) scale(0.0040, -0.0040)" d="M-100 0c0 -85 11 -173 60 -243c2 -2 3 -5 3 -7c0 -7 -6 -13 -13 -13c-4 0 -7 2 -10 6c-53 76 -90 164 -90 257s37 181 90 257c3 4 6 6 10 6c7 0 13 -6 13 -13c0 -2 -1 -5 -3 -7c-49 -70 -60 -158 -60 -243z" fill="currentColor"/>
<path transform="translate(46.3158, 3.9690) scale(0.0040, -0.0040)" d="M27 41l-1 -66v-11c0 -22 1 -44 4 -66c45 38 93 80 93 139c0 33 -14 67 -43 67c-31 0 -52 -30 -53 -63zM-15 -138l-12 595c8 5 18 8 27 8s19 -3 27 -8l-7 -345c25 21 58 34 91 34c52 0 89 -48 89 -102c0 -80 -86 -117 -147 -169c-15 -13 -24 -38 -45 -38
c-13 0 -23 11 -23 25z" fill="currentColor"/>
<a style="color:inherit;" xlink:href="textedit:///tmp/temp.ly:19:125:126">
<path transform="translate(50.1682, 11.4690) scale(0.0040, -0.0040)" d="M218 136c55 0 108 -28 108 -89c0 -71 -55 -121 -102 -149c-35 -21 -75 -34 -116 -34c-55 0 -108 28 -108 89c0 71 55 121 102 149c35 21 75 34 116 34z" fill="currentColor"/>
</a>
<a style="color:inherit;" xlink:href="textedit:///tmp/temp.ly:19:127:128">
<path transform="translate(50.1682, 7.9690) scale(0.0040, -0.0040)" d="M218 136c55 0 108 -28 108 -89c0 -71 -55 -121 -102 -149c-35 -21 -75 -34 -116 -34c-55 0 -108 28 -108 89c0 71 55 121 102 149c35 21 75 34 116 34z" fill="currentColor"/>
</a>
<a style="color:inherit;" xlink:href="textedit:///tmp/temp.ly:19:130:131">
<path transform="translate(50.1682, 4.4690) scale(0.0040, -0.0040)" d="M218 136c55 0 108 -28 108 -89c0 -71 -55 -121 -102 -149c-35 -21 -75 -34 -116 -34c-55 0 -108 28 -108 89c0 71 55 121 102 149c35 21 75 34 116 34z" fill="currentColor"/>
</a>
<text transform="translate(34.1433, 19.3479)" font-family="serif" font-size="2.2001" text-anchor="start" fill="currentColor">
<tspan/>
</text>
</svg>
