<?xml version="1.0" encoding="UTF-8" standalone="no"?>
<svg
   xmlns:dc="http://purl.org/dc/elements/1.1/"
   xmlns:cc="http://creativecommons.org/ns#"
   xmlns:rdf="http://www.w3.org/1999/02/22-rdf-syntax-ns#"
   xmlns:svg="http://www.w3.org/2000/svg"
   xmlns="http://www.w3.org/2000/svg"
   xmlns:xlink="http://www.w3.org/1999/xlink"
   xmlns:sodipodi="http://sodipodi.sourceforge.net/DTD/sodipodi-0.dtd"
   xmlns:inkscape="http://www.inkscape.org/namespaces/inkscape"
   version="1.2"
   width="110.74689mm"
   height="12.861669mm"
   viewBox="0 0 63.021101 7.3189996"
   id="svg9532"
   sodipodi:docname="Untitled.svg"
   inkscape:version="1.0.1 (c497b03c, 2020-09-10)">
  <metadata
     id="metadata9538">
    <rdf:RDF>
      <cc:Work
         rdf:about="">
        <dc:format>image/svg+xml</dc:format>
        <dc:type
           rdf:resource="http://purl.org/dc/dcmitype/StillImage" />
      </cc:Work>
    </rdf:RDF>
  </metadata>
  <defs
     id="defs9536" />
  <sodipodi:namedview
     pagecolor="#ffffff"
     bordercolor="#666666"
     borderopacity="1"
     objecttolerance="10"
     gridtolerance="10"
     guidetolerance="10"
     inkscape:pageopacity="0"
     inkscape:pageshadow="2"
     inkscape:window-width="740"
     inkscape:window-height="480"
     id="namedview9534"
     showgrid="false"
     fit-margin-top="0"
     fit-margin-left="0"
     fit-margin-right="0"
     fit-margin-bottom="0"
     inkscape:zoom="0.78872421"
     inkscape:cx="-3.4522988"
     inkscape:cy="-72.455382"
     inkscape:window-x="0"
     inkscape:window-y="25"
     inkscape:window-maximized="0"
     inkscape:current-layer="svg9532" />
  <style
     text="style/css"
     id="style9394"><![CDATA[
tspan { white-space: pre; }
]]></style>
  <!-- Page: 1/1 -->
  <text
     font-family="serif"
     font-size="2.2001px"
     text-anchor="start"
     fill="currentColor"
     id="text9398"
     x="-8.5358"
     y="-0.98500001"><tspan
       id="tspan9396" /></text>
  <line
     stroke-linejoin="round"
     stroke-linecap="round"
     stroke-width="0.1"
     stroke="currentColor"
     x1="0.050000001"
     y1="5.7789998"
     x2="62.9711"
     y2="5.7789998"
     id="line9400" />
  <line
     stroke-linejoin="round"
     stroke-linecap="round"
     stroke-width="0.1"
     stroke="currentColor"
     x1="0.050000001"
     y1="4.7789998"
     x2="62.9711"
     y2="4.7789998"
     id="line9402" />
  <line
     stroke-linejoin="round"
     stroke-linecap="round"
     stroke-width="0.1"
     stroke="currentColor"
     x1="0.050000001"
     y1="3.779"
     x2="62.9711"
     y2="3.779"
     id="line9404" />
  <line
     stroke-linejoin="round"
     stroke-linecap="round"
     stroke-width="0.1"
     stroke="currentColor"
     x1="0.050000001"
     y1="2.779"
     x2="62.9711"
     y2="2.779"
     id="line9406" />
  <line
     stroke-linejoin="round"
     stroke-linecap="round"
     stroke-width="0.1"
     stroke="currentColor"
     x1="0.050000001"
     y1="1.779"
     x2="62.9711"
     y2="1.779"
     id="line9408" />
  <rect
     x="50.086201"
     y="1.779"
     width="0.19"
     height="4"
     ry="0.0000"
     fill="currentColor"
     id="rect9410" />
  <rect
     x="36.0942"
     y="1.779"
     width="0.19"
     height="4"
     ry="0.0000"
     fill="currentColor"
     id="rect9412" />
  <rect
     x="62.831001"
     y="1.779"
     width="0.19"
     height="4"
     ry="0.0000"
     fill="currentColor"
     id="rect9414" />
  <rect
     x="22.424299"
     y="1.779"
     width="0.19"
     height="4"
     ry="0.0000"
     fill="currentColor"
     id="rect9416" />
  <rect
     x="58.3549"
     y="2.279"
     width="0.13"
     height="3.3139"
     ry="0.039999999"
     fill="currentColor"
     id="rect9418" />
  <a
     style="color:inherit"
     xlink:href="textedit:///private/tmp/Untitled.ly:34:37:38"
     id="a9422"
     transform="translate(-14.2264,-3.8303)">
    <path
       transform="matrix(0.004,0,0,-0.004,68.4049,9.1093)"
       d="m 218,136 c 55,0 108,-28 108,-89 0,-71 -55,-121 -102,-149 -35,-21 -75,-34 -116,-34 -55,0 -108,28 -108,89 0,71 55,121 102,149 35,21 75,34 116,34 z"
       fill="currentColor"
       id="path9420" />
  </a>
  <rect
     x="55.352699"
     y="1.779"
     width="0.13"
     height="3.3139"
     ry="0.039999999"
     fill="currentColor"
     id="rect9424" />
  <a
     style="color:inherit"
     xlink:href="textedit:///private/tmp/Untitled.ly:34:39:40"
     id="a9428"
     transform="translate(-14.2264,-3.8303)">
    <path
       transform="matrix(0.004,0,0,-0.004,71.4071,9.6093)"
       d="m 218,136 c 55,0 108,-28 108,-89 0,-71 -55,-121 -102,-149 -35,-21 -75,-34 -116,-34 -55,0 -108,28 -108,89 0,71 55,121 102,149 35,21 75,34 116,34 z"
       fill="currentColor"
       id="path9426" />
  </a>
  <a
     style="color:inherit"
     xlink:href="textedit:///private/tmp/Untitled.ly:34:33:34"
     id="a9432"
     transform="translate(-14.2264,-3.8303)">
    <path
       transform="matrix(0.004,0,0,-0.004,61.1451,8.1093)"
       d="m 218,136 c 55,0 108,-28 108,-89 0,-71 -55,-121 -102,-149 -35,-21 -75,-34 -116,-34 -55,0 -108,28 -108,89 0,71 55,121 102,149 35,21 75,34 116,34 z"
       fill="currentColor"
       id="path9430" />
  </a>
  <rect
     x="48.092899"
     y="0.77899998"
     width="0.13"
     height="3.3139"
     ry="0.039999999"
     fill="currentColor"
     id="rect9434" />
  <a
     style="color:inherit"
     xlink:href="textedit:///private/tmp/Untitled.ly:34:35:36"
     id="a9438"
     transform="translate(-14.2264,-3.8303)">
    <path
       transform="matrix(0.004,0,0,-0.004,65.4026,8.6093)"
       d="m 218,136 c 55,0 108,-28 108,-89 0,-71 -55,-121 -102,-149 -35,-21 -75,-34 -116,-34 -55,0 -108,28 -108,89 0,71 55,121 102,149 35,21 75,34 116,34 z"
       fill="currentColor"
       id="path9436" />
  </a>
  <rect
     x="52.350399"
     y="1.279"
     width="0.13"
     height="3.3139"
     ry="0.039999999"
     fill="currentColor"
     id="rect9440" />
  <a
     style="color:inherit"
     xlink:href="textedit:///private/tmp/Untitled.ly:34:9:10"
     id="a9444"
     transform="translate(-14.2264,-3.8303)">
    <path
       transform="matrix(0.004,0,0,-0.004,30.4809,8.6093)"
       d="m 218,136 c 55,0 108,-28 108,-89 0,-71 -55,-121 -102,-149 -35,-21 -75,-34 -116,-34 -55,0 -108,28 -108,89 0,71 55,121 102,149 35,21 75,34 116,34 z"
       fill="currentColor"
       id="path9442" />
  </a>
  <a
     style="color:inherit"
     xlink:href="textedit:///private/tmp/Untitled.ly:34:7:8"
     id="a9448"
     transform="translate(-14.2264,-3.8303)">
    <path
       transform="matrix(0.004,0,0,-0.004,27.4786,9.1093)"
       d="m 218,136 c 55,0 108,-28 108,-89 0,-71 -55,-121 -102,-149 -35,-21 -75,-34 -116,-34 -55,0 -108,28 -108,89 0,71 55,121 102,149 35,21 75,34 116,34 z"
       fill="currentColor"
       id="path9446" />
  </a>
  <rect
     x="14.4264"
     y="1.779"
     width="0.13"
     height="3.3139"
     ry="0.039999999"
     fill="currentColor"
     id="rect9450" />
  <a
     style="color:inherit"
     xlink:href="textedit:///private/tmp/Untitled.ly:34:13:14"
     id="a9454"
     transform="translate(-14.2264,-3.8303)">
    <path
       transform="matrix(0.004,0,0,-0.004,37.8443,7.6093)"
       d="m 218,136 c 55,0 108,-28 108,-89 0,-71 -55,-121 -102,-149 -35,-21 -75,-34 -116,-34 -55,0 -108,28 -108,89 0,71 55,121 102,149 35,21 75,34 116,34 z"
       fill="currentColor"
       id="path9452" />
  </a>
  <rect
     x="17.428699"
     y="1.279"
     width="0.13"
     height="3.3139"
     ry="0.039999999"
     fill="currentColor"
     id="rect9456" />
  <a
     style="color:inherit"
     xlink:href="textedit:///private/tmp/Untitled.ly:34:11:12"
     id="a9460"
     transform="translate(-14.2264,-3.8303)">
    <path
       transform="matrix(0.004,0,0,-0.004,33.4831,8.1093)"
       d="m 218,136 c 55,0 108,-28 108,-89 0,-71 -55,-121 -102,-149 -35,-21 -75,-34 -116,-34 -55,0 -108,28 -108,89 0,71 55,121 102,149 35,21 75,34 116,34 z"
       fill="currentColor"
       id="path9458" />
  </a>
  <rect
     x="20.431"
     y="0.77899998"
     width="0.13"
     height="3.3139"
     ry="0.039999999"
     fill="currentColor"
     id="rect9462" />
  <rect
     x="23.617901"
     y="3.9651"
     width="0.13"
     height="3.1472001"
     ry="0.039999999"
     fill="currentColor"
     id="rect9464" />
  <a
     style="color:inherit"
     xlink:href="textedit:///private/tmp/Untitled.ly:34:41:42"
     id="a9468"
     transform="translate(-14.2264,-3.8303)">
    <path
       transform="matrix(0.004,0,0,-0.004,74.4094,7.6093)"
       d="m -23,-116 c 0,28 11,42 40,42 33,0 78,-13 119,-31 L 4,53 c -7,9 -10,17 -10,25 0,34 50,66 87,99 25,22 37,52 37,83 0,24 -8,49 -25,69 l -35,42 c -3,3 -4,7 -4,10 0,9 9,15 17,15 4,0 8,-1 11,-5 L 233,211 c 7,-9 10,-17 10,-25 0,-34 -50,-66 -87,-99 -25,-22 -37,-52 -37,-83 0,-24 7,-49 24,-69 l 84,-99 c 3,-3 4,-7 4,-10 0,-9 -8,-16 -16,-16 -4,0 -9,2 -12,6 -18,21 -63,38 -97,38 -41,0 -53,-26 -53,-67 0,-35 11,-74 28,-94 7,-8 -5,-19 -12,-11 -45,54 -92,148 -92,202 z"
       fill="currentColor"
       id="path9466" />
  </a>
  <a
     style="color:inherit"
     xlink:href="textedit:///private/tmp/Untitled.ly:34:15:16"
     id="a9472"
     transform="translate(-14.2264,-3.8303)">
    <path
       transform="matrix(0.004,0,0,-0.004,41.1985,7.1093)"
       d="m 218,136 c 55,0 108,-28 108,-89 0,-71 -55,-121 -102,-149 -35,-21 -75,-34 -116,-34 -55,0 -108,28 -108,89 0,71 55,121 102,149 35,21 75,34 116,34 z"
       fill="currentColor"
       id="path9470" />
  </a>
  <rect
     x="26.972099"
     y="3.4651"
     width="0.13"
     height="3.3139"
     ry="0.039999999"
     fill="currentColor"
     id="rect9474" />
  <path
     d="m 26.3861,4.527 c 0,0.04 -0.032,0.076 -0.072,0.076 -0.04,0 -0.076,-0.036 -0.076,-0.076 v -0.58 l -0.332,0.124 v 0.632 c 0,0.04 -0.036,0.076 -0.076,0.076 -0.04,0 -0.072,-0.036 -0.072,-0.076 v -0.58 l -0.128,0.048 c -0.008,0.004 -0.02,0.004 -0.028,0.004 -0.044,0 -0.08,-0.036 -0.08,-0.08 v -0.24 c 0,-0.032 0.02,-0.064 0.052,-0.076 l 0.184,-0.064 v -0.64 l -0.128,0.044 c -0.008,0.004 -0.02,0.004 -0.028,0.004 -0.044,0 -0.08,-0.036 -0.08,-0.08 v -0.24 c 0,-0.032 0.02,-0.06 0.052,-0.072 l 0.184,-0.068 V 2.031 c 0,-0.04 0.032,-0.076 0.072,-0.076 0.04,0 0.076,0.036 0.076,0.076 v 0.58 l 0.332,-0.124 V 1.855 c 0,-0.04 0.036,-0.076 0.076,-0.076 0.04,0 0.072,0.036 0.072,0.076 v 0.58 l 0.128,-0.048 c 0.008,-0.004 0.02,-0.004 0.028,-0.004 0.044,0 0.08,0.036 0.08,0.08 v 0.24 c 0,0.032 -0.02,0.064 -0.052,0.076 l -0.184,0.064 v 0.64 l 0.128,-0.044 c 0.008,-0.004 0.02,-0.004 0.028,-0.004 0.044,0 0.08,0.036 0.08,0.08 v 0.24 c 0,0.032 -0.02,0.06 -0.052,0.072 l -0.184,0.068 z m -0.48,-1.508 v 0.64 l 0.332,-0.12 v -0.64 z"
     fill="currentColor"
     id="path9476"
     style="stroke-width:0.004" />
  <a
     style="color:inherit"
     xlink:href="textedit:///private/tmp/Untitled.ly:34:19:20"
     id="a9480"
     transform="translate(-14.2264,-3.8303)">
    <path
       transform="matrix(0.004,0,0,-0.004,44.5528,6.6093)"
       d="m 218,136 c 55,0 108,-28 108,-89 0,-71 -55,-121 -102,-149 -35,-21 -75,-34 -116,-34 -55,0 -108,28 -108,89 0,71 55,121 102,149 35,21 75,34 116,34 z"
       fill="currentColor"
       id="path9478" />
  </a>
  <rect
     x="30.326401"
     y="2.9651"
     width="0.13"
     height="3.3139"
     ry="0.039999999"
     fill="currentColor"
     id="rect9482" />
  <path
     d="m 29.7404,4.027 c 0,0.04 -0.032,0.076 -0.072,0.076 -0.04,0 -0.076,-0.036 -0.076,-0.076 v -0.58 l -0.332,0.124 v 0.632 c 0,0.04 -0.036,0.076 -0.076,0.076 -0.04,0 -0.072,-0.036 -0.072,-0.076 v -0.58 l -0.128,0.048 c -0.008,0.004 -0.02,0.004 -0.028,0.004 -0.044,0 -0.08,-0.036 -0.08,-0.08 v -0.24 c 0,-0.032 0.02,-0.064 0.052,-0.076 l 0.184,-0.064 v -0.64 l -0.128,0.044 c -0.008,0.004 -0.02,0.004 -0.028,0.004 -0.044,0 -0.08,-0.036 -0.08,-0.08 v -0.24 c 0,-0.032 0.02,-0.06 0.052,-0.072 l 0.184,-0.068 V 1.531 c 0,-0.04 0.032,-0.076 0.072,-0.076 0.04,0 0.076,0.036 0.076,0.076 v 0.58 l 0.332,-0.124 V 1.355 c 0,-0.04 0.036,-0.076 0.076,-0.076 0.04,0 0.072,0.036 0.072,0.076 v 0.58 l 0.128,-0.048 c 0.008,-0.004 0.02,-0.004 0.028,-0.004 0.044,0 0.08,0.036 0.08,0.08 v 0.24 c 0,0.032 -0.02,0.064 -0.052,0.076 l -0.184,0.064 v 0.64 l 0.128,-0.044 c 0.008,-0.004 0.02,-0.004 0.028,-0.004 0.044,0 0.08,0.036 0.08,0.08 v 0.24 c 0,0.032 -0.02,0.06 -0.052,0.072 l -0.184,0.068 z m -0.48,-1.508 v 0.64 l 0.332,-0.12 v -0.64 z"
     fill="currentColor"
     id="path9484"
     style="stroke-width:0.004" />
  <path
     d="m 7.986,3.671 c -0.196,0 -0.3,-0.168 -0.3,-0.3 0,-0.152 0.108,-0.308 0.288,-0.308 0.016,0 0.036,0 0.056,0.004 C 7.918,2.919 7.742,2.831 7.55,2.831 7.126,2.831 7.098,3.123 7.098,3.575 v 0.204 0.204 c 0,0.452 0.028,0.748 0.452,0.748 0.32,0 0.556,-0.28 0.632,-0.604 0.008,-0.028 0.028,-0.04 0.048,-0.04 0.024,0 0.052,0.016 0.052,0.048 0,0.376 -0.42,0.696 -0.732,0.696 C 7.278,4.831 7.002,4.747 6.814,4.551 6.618,4.347 6.55,4.063 6.55,3.779 6.55,3.495 6.618,3.211 6.814,3.007 7.002,2.811 7.278,2.731 7.55,2.731 c 0.348,0 0.64,0.252 0.7,0.596 0.004,0.02 0.004,0.04 0.004,0.056 0,0.16 -0.12,0.288 -0.268,0.288 z"
     fill="currentColor"
     id="path9486"
     style="stroke-width:0.004" />
  <a
     style="color:inherit"
     xlink:href="textedit:///private/tmp/Untitled.ly:34:2:3"
     id="a9490"
     transform="translate(-14.2264,-3.8303)">
    <path
       transform="matrix(0.004,0,0,-0.004,24.4764,9.6093)"
       d="m 218,136 c 55,0 108,-28 108,-89 0,-71 -55,-121 -102,-149 -35,-21 -75,-34 -116,-34 -55,0 -108,28 -108,89 0,71 55,121 102,149 35,21 75,34 116,34 z"
       fill="currentColor"
       id="path9488" />
  </a>
  <path
     d="M 1.864,7.319 H 1.84 c -0.432,0 -0.78,-0.352 -0.78,-0.788 0,-0.232 0.212,-0.412 0.448,-0.412 0.216,0 0.38,0.188 0.38,0.412 0,0.208 -0.172,0.38 -0.38,0.38 -0.044,0 -0.084,-0.008 -0.124,-0.024 0.104,0.156 0.272,0.26 0.468,0.26 H 1.868 Z M 2.644,5.591 C 2.916,5.495 3.096,5.211 3.096,4.935 3.096,4.575 2.832,4.219 2.404,4.175 2.5,4.639 2.588,5.099 2.644,5.591 Z M 1.096,4.667 c 0,0.54 0.516,0.988 1.056,0.988 0.112,0 0.22,-0.008 0.328,-0.024 C 2.424,5.123 2.332,4.651 2.228,4.175 1.912,4.207 1.732,4.419 1.732,4.651 c 0,0.176 0.1,0.364 0.324,0.492 0.02,0.02 0.028,0.04 0.028,0.06 0,0.044 -0.04,0.088 -0.088,0.088 C 1.984,5.291 1.972,5.287 1.96,5.283 1.64,5.111 1.492,4.823 1.492,4.543 1.492,4.191 1.724,3.847 2.132,3.755 2.076,3.523 2.016,3.287 1.948,3.055 1.52,3.539 1.096,4.027 1.096,4.667 Z M 2.14,5.827 C 1.388,5.827 0.808,5.139 0.808,4.331 0.808,3.623 1.332,3.107 1.8,2.567 1.724,2.319 1.652,2.067 1.62,1.807 1.596,1.599 1.592,1.391 1.592,1.183 c 0,-0.46 0.22,-0.896 0.596,-1.168 0.024,-0.02 0.056,-0.02 0.08,0 0.284,0.336 0.532,0.98 0.532,1.432 0,0.572 -0.344,1.02 -0.72,1.456 0.084,0.272 0.156,0.552 0.224,0.828 0.016,0 0.036,-0.004 0.052,-0.004 0.62,0 1.024,0.512 1.024,1.044 0,0.304 -0.132,0.616 -0.428,0.84 C 2.864,5.679 2.764,5.723 2.66,5.755 2.672,5.895 2.68,6.035 2.68,6.175 2.68,6.251 2.676,6.331 2.672,6.407 2.644,6.883 2.32,7.307 1.864,7.319 L 1.868,7.147 C 2.24,7.139 2.48,6.779 2.504,6.383 2.508,6.311 2.512,6.235 2.512,6.163 2.512,6.039 2.508,5.919 2.496,5.795 2.38,5.815 2.264,5.827 2.14,5.827 Z M 2.512,1.115 c 0,-0.22 -0.016,-0.316 -0.08,-0.516 -0.396,0.192 -0.648,0.596 -0.648,1.036 0,0.296 0.072,0.532 0.144,0.776 0.32,-0.388 0.584,-0.792 0.584,-1.296 z"
     fill="currentColor"
     id="path9492"
     style="stroke-width:0.004" />
  <a
     style="color:inherit"
     xlink:href="textedit:///private/tmp/Untitled.ly:32:2:3"
     id="a9496"
     transform="translate(-14.2264,-3.8303)">
    <path
       transform="matrix(0.004,0,0,-0.004,18.5264,5.6093)"
       d="m 216,-312 c 0,-10 -8,-19 -18,-19 -10,0 -19,9 -19,19 v 145 l -83,-31 v -158 c 0,-10 -9,-19 -19,-19 -10,0 -18,9 -18,19 v 145 l -32,-12 c -2,-1 -5,-1 -7,-1 -11,0 -20,9 -20,20 v 60 c 0,8 5,16 13,19 l 46,16 V 51 L 27,40 C 25,39 22,39 20,39 9,39 0,48 0,59 v 60 c 0,8 5,15 13,18 l 46,17 v 158 c 0,10 8,19 18,19 10,0 19,-9 19,-19 V 167 l 83,31 v 158 c 0,10 9,19 19,19 10,0 18,-9 18,-19 V 211 l 32,12 c 2,1 5,1 7,1 11,0 20,-9 20,-20 v -60 c 0,-8 -5,-16 -13,-19 L 216,109 V -51 l 32,11 c 2,1 5,1 7,1 11,0 20,-9 20,-20 v -60 c 0,-8 -5,-15 -13,-18 l -46,-17 z M 96,65 V -95 l 83,30 V 95 Z"
       fill="currentColor"
       id="path9494" />
  </a>
  <rect
     x="43.9347"
     y="3.9651"
     width="0.13"
     height="3.1472001"
     ry="0.039999999"
     fill="currentColor"
     id="rect9498" />
  <rect
     x="11.4242"
     y="2.279"
     width="0.13"
     height="3.3139"
     ry="0.039999999"
     fill="currentColor"
     id="rect9500" />
  <rect
     x="40.9324"
     y="3.4651"
     width="0.13"
     height="3.3139"
     ry="0.039999999"
     fill="currentColor"
     id="rect9502" />
  <a
     style="color:inherit"
     xlink:href="textedit:///private/tmp/Untitled.ly:34:28:29"
     id="a9506"
     transform="translate(-14.2264,-3.8303)">
    <path
       transform="matrix(0.004,0,0,-0.004,55.1588,7.1093)"
       d="m 218,136 c 55,0 108,-28 108,-89 0,-71 -55,-121 -102,-149 -35,-21 -75,-34 -116,-34 -55,0 -108,28 -108,89 0,71 55,121 102,149 35,21 75,34 116,34 z"
       fill="currentColor"
       id="path9504" />
  </a>
  <a
     style="color:inherit"
     xlink:href="textedit:///private/tmp/Untitled.ly:34:23:24"
     id="a9510"
     transform="translate(-14.2264,-3.8303)">
    <path
       transform="matrix(0.004,0,0,-0.004,47.555,6.1093)"
       d="m 218,136 c 55,0 108,-28 108,-89 0,-71 -55,-121 -102,-149 -35,-21 -75,-34 -116,-34 -55,0 -108,28 -108,89 0,71 55,121 102,149 35,21 75,34 116,34 z"
       fill="currentColor"
       id="path9508" />
  </a>
  <path
     d="m 39.8544,1.779 c 0.032,-0.016 0.068,-0.028 0.104,-0.028 0.036,0 0.064,0.012 0.096,0.028 l -0.008,0.732 0.424,-0.08 h 0.012 c 0.04,0 0.072,0.028 0.072,0.068 l 0.028,2.28 c -0.032,0.016 -0.064,0.028 -0.1,0.028 -0.036,0 -0.068,-0.012 -0.1,-0.028 l 0.012,-0.732 -0.424,0.08 h -0.012 c -0.04,0 -0.072,-0.028 -0.072,-0.068 z m 0.556,1.052 -0.368,0.068 -0.012,0.828 0.368,-0.068 z"
     fill="currentColor"
     id="path9512"
     style="stroke-width:0.004" />
  <a
     style="color:inherit"
     xlink:href="textedit:///private/tmp/Untitled.ly:34:31:32"
     id="a9516"
     transform="translate(-14.2264,-3.8303)">
    <path
       transform="matrix(0.004,0,0,-0.004,58.1611,7.6093)"
       d="m 218,136 c 55,0 108,-28 108,-89 0,-71 -55,-121 -102,-149 -35,-21 -75,-34 -116,-34 -55,0 -108,28 -108,89 0,71 55,121 102,149 35,21 75,34 116,34 z"
       fill="currentColor"
       id="path9514" />
  </a>
  <path
     d="m 36.8522,1.279 c 0.032,-0.016 0.068,-0.028 0.104,-0.028 0.036,0 0.064,0.012 0.096,0.028 l -0.008,0.732 0.424,-0.08 h 0.012 c 0.04,0 0.072,0.028 0.072,0.068 l 0.028,2.28 c -0.032,0.016 -0.064,0.028 -0.1,0.028 -0.036,0 -0.068,-0.012 -0.1,-0.028 l 0.012,-0.732 -0.424,0.08 h -0.012 c -0.04,0 -0.072,-0.028 -0.072,-0.068 z m 0.556,1.052 -0.368,0.068 -0.012,0.828 0.368,-0.068 z"
     fill="currentColor"
     id="path9518"
     style="stroke-width:0.004" />
  <rect
     x="33.328602"
     y="2.4651"
     width="0.13"
     height="3.3139"
     ry="0.039999999"
     fill="currentColor"
     id="rect9520" />
  <a
     style="color:inherit"
     xlink:href="textedit:///private/tmp/Untitled.ly:34:25:26"
     id="a9524"
     transform="translate(-14.2264,-3.8303)">
    <path
       transform="matrix(0.004,0,0,-0.004,52.1566,6.6093)"
       d="m 218,136 c 55,0 108,-28 108,-89 0,-71 -55,-121 -102,-149 -35,-21 -75,-34 -116,-34 -55,0 -108,28 -108,89 0,71 55,121 102,149 35,21 75,34 116,34 z"
       fill="currentColor"
       id="path9522" />
  </a>
  <rect
     x="37.930199"
     y="2.9651"
     width="0.13"
     height="3.3139"
     ry="0.039999999"
     fill="currentColor"
     id="rect9526" />
  <text
     font-family="serif"
     font-size="2.2001px"
     text-anchor="start"
     fill="currentColor"
     id="text9530"
     x="45.524399"
     y="161.76469"><tspan
       id="tspan9528" /></text>
</svg>
