<?xml version="1.0" encoding="UTF-8" standalone="no"?>
<svg
   xmlns:dc="http://purl.org/dc/elements/1.1/"
   xmlns:cc="http://creativecommons.org/ns#"
   xmlns:rdf="http://www.w3.org/1999/02/22-rdf-syntax-ns#"
   xmlns:svg="http://www.w3.org/2000/svg"
   xmlns="http://www.w3.org/2000/svg"
   xmlns:xlink="http://www.w3.org/1999/xlink"
   xmlns:sodipodi="http://sodipodi.sourceforge.net/DTD/sodipodi-0.dtd"
   xmlns:inkscape="http://www.inkscape.org/namespaces/inkscape"
   version="1.2"
   width="110.92315mm"
   height="12.861669mm"
   viewBox="0 0 63.121399 7.3189996"
   id="svg9982"
   sodipodi:docname="Untitled.svg"
   inkscape:version="1.0.1 (c497b03c, 2020-09-10)">
  <metadata
     id="metadata9988">
    <rdf:RDF>
      <cc:Work
         rdf:about="">
        <dc:format>image/svg+xml</dc:format>
        <dc:type
           rdf:resource="http://purl.org/dc/dcmitype/StillImage" />
      </cc:Work>
    </rdf:RDF>
  </metadata>
  <defs
     id="defs9986" />
  <sodipodi:namedview
     pagecolor="#ffffff"
     bordercolor="#666666"
     borderopacity="1"
     objecttolerance="10"
     gridtolerance="10"
     guidetolerance="10"
     inkscape:pageopacity="0"
     inkscape:pageshadow="2"
     inkscape:window-width="740"
     inkscape:window-height="480"
     id="namedview9984"
     showgrid="false"
     fit-margin-top="0"
     fit-margin-left="0"
     fit-margin-right="0"
     fit-margin-bottom="0"
     inkscape:zoom="0.78872421"
     inkscape:cx="38.925418"
     inkscape:cy="-90.552761"
     inkscape:window-x="0"
     inkscape:window-y="25"
     inkscape:window-maximized="0"
     inkscape:current-layer="svg9982" />
  <style
     text="style/css"
     id="style9842"><![CDATA[
tspan { white-space: pre; }
]]></style>
  <!-- Page: 1/1 -->
  <text
     font-family="serif"
     font-size="2.2001px"
     text-anchor="start"
     fill="currentColor"
     id="text9846"
     x="-8.5358"
     y="-0.98500001"><tspan
       id="tspan9844" /></text>
  <line
     stroke-linejoin="round"
     stroke-linecap="round"
     stroke-width="0.1"
     stroke="currentColor"
     x1="0.050000001"
     y1="5.7789998"
     x2="63.0714"
     y2="5.7789998"
     id="line9848" />
  <line
     stroke-linejoin="round"
     stroke-linecap="round"
     stroke-width="0.1"
     stroke="currentColor"
     x1="0.050000001"
     y1="4.7789998"
     x2="63.0714"
     y2="4.7789998"
     id="line9850" />
  <line
     stroke-linejoin="round"
     stroke-linecap="round"
     stroke-width="0.1"
     stroke="currentColor"
     x1="0.050000001"
     y1="3.779"
     x2="63.0714"
     y2="3.779"
     id="line9852" />
  <line
     stroke-linejoin="round"
     stroke-linecap="round"
     stroke-width="0.1"
     stroke="currentColor"
     x1="0.050000001"
     y1="2.779"
     x2="63.0714"
     y2="2.779"
     id="line9854" />
  <line
     stroke-linejoin="round"
     stroke-linecap="round"
     stroke-width="0.1"
     stroke="currentColor"
     x1="0.050000001"
     y1="1.779"
     x2="63.0714"
     y2="1.779"
     id="line9856" />
  <rect
     x="50.1012"
     y="1.779"
     width="0.19"
     height="4"
     ry="0.0000"
     fill="currentColor"
     id="rect9858" />
  <rect
     x="36.2495"
     y="1.779"
     width="0.19"
     height="4"
     ry="0.0000"
     fill="currentColor"
     id="rect9860" />
  <rect
     x="62.9314"
     y="1.779"
     width="0.19"
     height="4"
     ry="0.0000"
     fill="currentColor"
     id="rect9862" />
  <rect
     x="22.851999"
     y="1.779"
     width="0.19"
     height="4"
     ry="0.0000"
     fill="currentColor"
     id="rect9864" />
  <rect
     x="58.455299"
     y="1.279"
     width="0.13"
     height="3.3139"
     ry="0.039999999"
     fill="currentColor"
     id="rect9866" />
  <a
     style="color:inherit"
     xlink:href="textedit:///private/tmp/Untitled.ly:34:37:38"
     id="a9870"
     transform="translate(-14.2264,-3.8303)">
    <path
       transform="matrix(0.004,0,0,-0.004,68.5053,8.1093)"
       d="m 218,136 c 55,0 108,-28 108,-89 0,-71 -55,-121 -102,-149 -35,-21 -75,-34 -116,-34 -55,0 -108,28 -108,89 0,71 55,121 102,149 35,21 75,34 116,34 z"
       fill="currentColor"
       id="path9868" />
  </a>
  <rect
     x="55.453098"
     y="0.77899998"
     width="0.13"
     height="3.3139"
     ry="0.039999999"
     fill="currentColor"
     id="rect9872" />
  <a
     style="color:inherit"
     xlink:href="textedit:///private/tmp/Untitled.ly:34:39:40"
     id="a9876"
     transform="translate(-14.2264,-3.8303)">
    <path
       transform="matrix(0.004,0,0,-0.004,71.5075,8.6093)"
       d="m 218,136 c 55,0 108,-28 108,-89 0,-71 -55,-121 -102,-149 -35,-21 -75,-34 -116,-34 -55,0 -108,28 -108,89 0,71 55,121 102,149 35,21 75,34 116,34 z"
       fill="currentColor"
       id="path9874" />
  </a>
  <a
     style="color:inherit"
     xlink:href="textedit:///private/tmp/Untitled.ly:34:33:34"
     id="a9880"
     transform="translate(-14.2264,-3.8303)">
    <path
       transform="matrix(0.004,0,0,-0.004,61.4906,7.1093)"
       d="m 218,136 c 55,0 108,-28 108,-89 0,-71 -55,-121 -102,-149 -35,-21 -75,-34 -116,-34 -55,0 -108,28 -108,89 0,71 55,121 102,149 35,21 75,34 116,34 z"
       fill="currentColor"
       id="path9878" />
  </a>
  <rect
     x="47.264198"
     y="3.4651"
     width="0.13"
     height="3.3139"
     ry="0.039999999"
     fill="currentColor"
     id="rect9882" />
  <a
     style="color:inherit"
     xlink:href="textedit:///private/tmp/Untitled.ly:34:35:36"
     id="a9886"
     transform="translate(-14.2264,-3.8303)">
    <path
       transform="matrix(0.004,0,0,-0.004,65.5213,7.6093)"
       d="m 218,136 c 55,0 108,-28 108,-89 0,-71 -55,-121 -102,-149 -35,-21 -75,-34 -116,-34 -55,0 -108,28 -108,89 0,71 55,121 102,149 35,21 75,34 116,34 z"
       fill="currentColor"
       id="path9884" />
  </a>
  <rect
     x="51.294899"
     y="3.9651"
     width="0.13"
     height="3.1472001"
     ry="0.039999999"
     fill="currentColor"
     id="rect9888" />
  <a
     style="color:inherit"
     xlink:href="textedit:///private/tmp/Untitled.ly:34:9:10"
     id="a9892"
     transform="translate(-14.2264,-3.8303)">
    <path
       transform="matrix(0.004,0,0,-0.004,31.2392,7.6093)"
       d="m 218,136 c 55,0 108,-28 108,-89 0,-71 -55,-121 -102,-149 -35,-21 -75,-34 -116,-34 -55,0 -108,28 -108,89 0,71 55,121 102,149 35,21 75,34 116,34 z"
       fill="currentColor"
       id="path9890" />
  </a>
  <a
     style="color:inherit"
     xlink:href="textedit:///private/tmp/Untitled.ly:34:7:8"
     id="a9896"
     transform="translate(-14.2264,-3.8303)">
    <path
       transform="matrix(0.004,0,0,-0.004,28.2187,8.1093)"
       d="m 218,136 c 55,0 108,-28 108,-89 0,-71 -55,-121 -102,-149 -35,-21 -75,-34 -116,-34 -55,0 -108,28 -108,89 0,71 55,121 102,149 35,21 75,34 116,34 z"
       fill="currentColor"
       id="path9894" />
  </a>
  <rect
     x="15.1665"
     y="0.77899998"
     width="0.13"
     height="3.3139"
     ry="0.039999999"
     fill="currentColor"
     id="rect9898" />
  <a
     style="color:inherit"
     xlink:href="textedit:///private/tmp/Untitled.ly:34:13:14"
     id="a9902"
     transform="translate(-14.2264,-3.8303)">
    <path
       transform="matrix(0.004,0,0,-0.004,38.3292,6.6093)"
       d="m 218,136 c 55,0 108,-28 108,-89 0,-71 -55,-121 -102,-149 -35,-21 -75,-34 -116,-34 -55,0 -108,28 -108,89 0,71 55,121 102,149 35,21 75,34 116,34 z"
       fill="currentColor"
       id="path9900" />
  </a>
  <rect
     x="17.0128"
     y="3.9651"
     width="0.13"
     height="3.1472001"
     ry="0.039999999"
     fill="currentColor"
     id="rect9904" />
  <a
     style="color:inherit"
     xlink:href="textedit:///private/tmp/Untitled.ly:34:11:12"
     id="a9908"
     transform="translate(-14.2264,-3.8303)">
    <path
       transform="matrix(0.004,0,0,-0.004,34.2414,7.1093)"
       d="m 218,136 c 55,0 108,-28 108,-89 0,-71 -55,-121 -102,-149 -35,-21 -75,-34 -116,-34 -55,0 -108,28 -108,89 0,71 55,121 102,149 35,21 75,34 116,34 z"
       fill="currentColor"
       id="path9906" />
  </a>
  <rect
     x="20.014999"
     y="3.4651"
     width="0.13"
     height="3.3139"
     ry="0.039999999"
     fill="currentColor"
     id="rect9910" />
  <rect
     x="24.1028"
     y="2.9651"
     width="0.13"
     height="3.3139"
     ry="0.039999999"
     fill="currentColor"
     id="rect9912" />
  <a
     style="color:inherit"
     xlink:href="textedit:///private/tmp/Untitled.ly:34:41:42"
     id="a9916"
     transform="translate(-14.2264,-3.8303)">
    <path
       transform="matrix(0.004,0,0,-0.004,74.5098,7.6093)"
       d="m -23,-116 c 0,28 11,42 40,42 33,0 78,-13 119,-31 L 4,53 c -7,9 -10,17 -10,25 0,34 50,66 87,99 25,22 37,52 37,83 0,24 -8,49 -25,69 l -35,42 c -3,3 -4,7 -4,10 0,9 9,15 17,15 4,0 8,-1 11,-5 L 233,211 c 7,-9 10,-17 10,-25 0,-34 -50,-66 -87,-99 -25,-22 -37,-52 -37,-83 0,-24 7,-49 24,-69 l 84,-99 c 3,-3 4,-7 4,-10 0,-9 -8,-16 -16,-16 -4,0 -9,2 -12,6 -18,21 -63,38 -97,38 -41,0 -53,-26 -53,-67 0,-35 11,-74 28,-94 7,-8 -5,-19 -12,-11 -45,54 -92,148 -92,202 z"
       fill="currentColor"
       id="path9914" />
  </a>
  <a
     style="color:inherit"
     xlink:href="textedit:///private/tmp/Untitled.ly:34:15:16"
     id="a9920"
     transform="translate(-14.2264,-3.8303)">
    <path
       transform="matrix(0.004,0,0,-0.004,41.3315,6.1093)"
       d="m 218,136 c 55,0 108,-28 108,-89 0,-71 -55,-121 -102,-149 -35,-21 -75,-34 -116,-34 -55,0 -108,28 -108,89 0,71 55,121 102,149 35,21 75,34 116,34 z"
       fill="currentColor"
       id="path9918" />
  </a>
  <rect
     x="27.105101"
     y="2.4651"
     width="0.13"
     height="3.3139"
     ry="0.039999999"
     fill="currentColor"
     id="rect9922" />
  <path
     d="m 26.0271,0.779 c 0.032,-0.016 0.068,-0.028 0.104,-0.028 0.036,0 0.064,0.012 0.096,0.028 l -0.008,0.732 0.424,-0.08 h 0.012 c 0.04,0 0.072,0.028 0.072,0.068 l 0.028,2.28 c -0.032,0.016 -0.064,0.028 -0.1,0.028 -0.036,0 -0.068,-0.012 -0.1,-0.028 l 0.012,-0.732 -0.424,0.08 h -0.012 c -0.04,0 -0.072,-0.028 -0.072,-0.068 z m 0.556,1.052 -0.368,0.068 -0.012,0.828 0.368,-0.068 z"
     fill="currentColor"
     id="path9924"
     style="stroke-width:0.004" />
  <a
     style="color:inherit"
     xlink:href="textedit:///private/tmp/Untitled.ly:34:19:20"
     id="a9928"
     transform="translate(-14.2264,-3.8303)">
    <path
       transform="matrix(0.004,0,0,-0.004,44.6857,5.6093)"
       d="m 218,136 c 55,0 108,-28 108,-89 0,-71 -55,-121 -102,-149 -35,-21 -75,-34 -116,-34 -55,0 -108,28 -108,89 0,71 55,121 102,149 35,21 75,34 116,34 z"
       fill="currentColor"
       id="path9926" />
  </a>
  <rect
     x="30.459299"
     y="1.9651"
     width="0.13"
     height="3.3139"
     ry="0.039999999"
     fill="currentColor"
     id="rect9930" />
  <path
     d="m 29.8733,3.027 c 0,0.04 -0.032,0.076 -0.072,0.076 -0.04,0 -0.076,-0.036 -0.076,-0.076 v -0.58 l -0.332,0.124 v 0.632 c 0,0.04 -0.036,0.076 -0.076,0.076 -0.04,0 -0.072,-0.036 -0.072,-0.076 v -0.58 l -0.128,0.048 c -0.008,0.004 -0.02,0.004 -0.028,0.004 -0.044,0 -0.08,-0.036 -0.08,-0.08 v -0.24 c 0,-0.032 0.02,-0.064 0.052,-0.076 l 0.184,-0.064 v -0.64 l -0.128,0.044 c -0.008,0.004 -0.02,0.004 -0.028,0.004 -0.044,0 -0.08,-0.036 -0.08,-0.08 v -0.24 c 0,-0.032 0.02,-0.06 0.052,-0.072 l 0.184,-0.068 V 0.531 c 0,-0.04 0.032,-0.076 0.072,-0.076 0.04,0 0.076,0.036 0.076,0.076 v 0.58 l 0.332,-0.124 V 0.355 c 0,-0.04 0.036,-0.076 0.076,-0.076 0.04,0 0.072,0.036 0.072,0.076 v 0.58 l 0.128,-0.048 c 0.008,-0.004 0.02,-0.004 0.028,-0.004 0.044,0 0.08,0.036 0.08,0.08 v 0.24 c 0,0.032 -0.02,0.064 -0.052,0.076 l -0.184,0.064 v 0.64 l 0.128,-0.044 c 0.008,-0.004 0.02,-0.004 0.028,-0.004 0.044,0 0.08,0.036 0.08,0.08 v 0.24 c 0,0.032 -0.02,0.06 -0.052,0.072 l -0.184,0.068 z m -0.48,-1.508 v 0.64 l 0.332,-0.12 v -0.64 z"
     fill="currentColor"
     id="path9932"
     style="stroke-width:0.004" />
  <path
     d="m 8.726,3.671 c -0.196,0 -0.3,-0.168 -0.3,-0.3 0,-0.152 0.108,-0.308 0.288,-0.308 0.016,0 0.036,0 0.056,0.004 C 8.658,2.919 8.482,2.831 8.29,2.831 7.866,2.831 7.838,3.123 7.838,3.575 v 0.204 0.204 c 0,0.452 0.028,0.748 0.452,0.748 0.32,0 0.556,-0.28 0.632,-0.604 0.008,-0.028 0.028,-0.04 0.048,-0.04 0.024,0 0.052,0.016 0.052,0.048 0,0.376 -0.42,0.696 -0.732,0.696 C 8.018,4.831 7.742,4.747 7.554,4.551 7.358,4.347 7.29,4.063 7.29,3.779 7.29,3.495 7.358,3.211 7.554,3.007 7.742,2.811 8.018,2.731 8.29,2.731 c 0.348,0 0.64,0.252 0.7,0.596 0.004,0.02 0.004,0.04 0.004,0.056 0,0.16 -0.12,0.288 -0.268,0.288 z"
     fill="currentColor"
     id="path9934"
     style="stroke-width:0.004" />
  <a
     style="color:inherit"
     xlink:href="textedit:///private/tmp/Untitled.ly:34:2:3"
     id="a9938"
     transform="translate(-14.2264,-3.8303)">
    <path
       transform="matrix(0.004,0,0,-0.004,25.2164,8.6093)"
       d="m 218,136 c 55,0 108,-28 108,-89 0,-71 -55,-121 -102,-149 -35,-21 -75,-34 -116,-34 -55,0 -108,28 -108,89 0,71 55,121 102,149 35,21 75,34 116,34 z"
       fill="currentColor"
       id="path9936" />
  </a>
  <path
     d="M 1.864,7.319 H 1.84 c -0.432,0 -0.78,-0.352 -0.78,-0.788 0,-0.232 0.212,-0.412 0.448,-0.412 0.216,0 0.38,0.188 0.38,0.412 0,0.208 -0.172,0.38 -0.38,0.38 -0.044,0 -0.084,-0.008 -0.124,-0.024 0.104,0.156 0.272,0.26 0.468,0.26 H 1.868 Z M 2.644,5.591 C 2.916,5.495 3.096,5.211 3.096,4.935 3.096,4.575 2.832,4.219 2.404,4.175 2.5,4.639 2.588,5.099 2.644,5.591 Z M 1.096,4.667 c 0,0.54 0.516,0.988 1.056,0.988 0.112,0 0.22,-0.008 0.328,-0.024 C 2.424,5.123 2.332,4.651 2.228,4.175 1.912,4.207 1.732,4.419 1.732,4.651 c 0,0.176 0.1,0.364 0.324,0.492 0.02,0.02 0.028,0.04 0.028,0.06 0,0.044 -0.04,0.088 -0.088,0.088 C 1.984,5.291 1.972,5.287 1.96,5.283 1.64,5.111 1.492,4.823 1.492,4.543 1.492,4.191 1.724,3.847 2.132,3.755 2.076,3.523 2.016,3.287 1.948,3.055 1.52,3.539 1.096,4.027 1.096,4.667 Z M 2.14,5.827 C 1.388,5.827 0.808,5.139 0.808,4.331 0.808,3.623 1.332,3.107 1.8,2.567 1.724,2.319 1.652,2.067 1.62,1.807 1.596,1.599 1.592,1.391 1.592,1.183 c 0,-0.46 0.22,-0.896 0.596,-1.168 0.024,-0.02 0.056,-0.02 0.08,0 0.284,0.336 0.532,0.98 0.532,1.432 0,0.572 -0.344,1.02 -0.72,1.456 0.084,0.272 0.156,0.552 0.224,0.828 0.016,0 0.036,-0.004 0.052,-0.004 0.62,0 1.024,0.512 1.024,1.044 0,0.304 -0.132,0.616 -0.428,0.84 C 2.864,5.679 2.764,5.723 2.66,5.755 2.672,5.895 2.68,6.035 2.68,6.175 2.68,6.251 2.676,6.331 2.672,6.407 2.644,6.883 2.32,7.307 1.864,7.319 L 1.868,7.147 C 2.24,7.139 2.48,6.779 2.504,6.383 2.508,6.311 2.512,6.235 2.512,6.163 2.512,6.039 2.508,5.919 2.496,5.795 2.38,5.815 2.264,5.827 2.14,5.827 Z M 2.512,1.115 c 0,-0.22 -0.016,-0.316 -0.08,-0.516 -0.396,0.192 -0.648,0.596 -0.648,1.036 0,0.296 0.072,0.532 0.144,0.776 0.32,-0.388 0.584,-0.792 0.584,-1.296 z"
     fill="currentColor"
     id="path9940"
     style="stroke-width:0.004" />
  <a
     style="color:inherit"
     xlink:href="textedit:///private/tmp/Untitled.ly:32:2:3"
     id="a9946"
     transform="translate(-14.2264,-3.8303)">
    <path
       transform="matrix(0.004,0,0,-0.004,18.6464,7.6093)"
       d="m 27,41 -1,-66 v -11 c 0,-22 1,-44 4,-66 45,38 93,80 93,139 0,33 -14,67 -43,67 C 49,104 28,74 27,41 Z m -42,-179 -12,595 c 8,5 18,8 27,8 9,0 19,-3 27,-8 L 20,112 c 25,21 58,34 91,34 52,0 89,-48 89,-102 0,-80 -86,-117 -147,-169 -15,-13 -24,-38 -45,-38 -13,0 -23,11 -23,25 z"
       fill="currentColor"
       id="path9942" />
    <path
       transform="matrix(0.004,0,0,-0.004,19.5664,6.1093)"
       d="m 27,41 -1,-66 v -11 c 0,-22 1,-44 4,-66 45,38 93,80 93,139 0,33 -14,67 -43,67 C 49,104 28,74 27,41 Z m -42,-179 -12,595 c 8,5 18,8 27,8 9,0 19,-3 27,-8 L 20,112 c 25,21 58,34 91,34 52,0 89,-48 89,-102 0,-80 -86,-117 -147,-169 -15,-13 -24,-38 -45,-38 -13,0 -23,11 -23,25 z"
       fill="currentColor"
       id="path9944" />
  </a>
  <rect
     x="44.262001"
     y="2.9651"
     width="0.13"
     height="3.3139"
     ry="0.039999999"
     fill="currentColor"
     id="rect9948" />
  <rect
     x="12.1642"
     y="1.279"
     width="0.13"
     height="3.3139"
     ry="0.039999999"
     fill="currentColor"
     id="rect9950" />
  <rect
     x="41.259701"
     y="2.4651"
     width="0.13"
     height="3.3139"
     ry="0.039999999"
     fill="currentColor"
     id="rect9952" />
  <a
     style="color:inherit"
     xlink:href="textedit:///private/tmp/Untitled.ly:34:28:29"
     id="a9956"
     transform="translate(-14.2264,-3.8303)">
    <path
       transform="matrix(0.004,0,0,-0.004,55.4861,6.1093)"
       d="m 218,136 c 55,0 108,-28 108,-89 0,-71 -55,-121 -102,-149 -35,-21 -75,-34 -116,-34 -55,0 -108,28 -108,89 0,71 55,121 102,149 35,21 75,34 116,34 z"
       fill="currentColor"
       id="path9954" />
  </a>
  <a
     style="color:inherit"
     xlink:href="textedit:///private/tmp/Untitled.ly:34:23:24"
     id="a9960"
     transform="translate(-14.2264,-3.8303)">
    <path
       transform="matrix(0.004,0,0,-0.004,47.6879,5.1093)"
       d="m 218,136 c 55,0 108,-28 108,-89 0,-71 -55,-121 -102,-149 -35,-21 -75,-34 -116,-34 -55,0 -108,28 -108,89 0,71 55,121 102,149 35,21 75,34 116,34 z"
       fill="currentColor"
       id="path9958" />
  </a>
  <path
     d="m 40.2177,2.115 -0.004,0.264 v 0.044 c 0,0.088 0.004,0.176 0.016,0.264 0.18,-0.152 0.372,-0.32 0.372,-0.556 0,-0.132 -0.056,-0.268 -0.172,-0.268 -0.124,0 -0.208,0.12 -0.212,0.252 z m -0.168,0.716 -0.048,-2.38 c 0.032,-0.02 0.072,-0.032 0.108,-0.032 0.036,0 0.076,0.012 0.108,0.032 l -0.028,1.38 c 0.1,-0.084 0.232,-0.136 0.364,-0.136 0.208,0 0.356,0.192 0.356,0.408 0,0.32 -0.344,0.468 -0.588,0.676 -0.06,0.052 -0.096,0.152 -0.18,0.152 -0.052,0 -0.092,-0.044 -0.092,-0.1 z"
     fill="currentColor"
     id="path9962"
     style="stroke-width:0.004" />
  <a
     style="color:inherit"
     xlink:href="textedit:///private/tmp/Untitled.ly:34:31:32"
     id="a9966"
     transform="translate(-14.2264,-3.8303)">
    <path
       transform="matrix(0.004,0,0,-0.004,58.4884,6.6093)"
       d="m 218,136 c 55,0 108,-28 108,-89 0,-71 -55,-121 -102,-149 -35,-21 -75,-34 -116,-34 -55,0 -108,28 -108,89 0,71 55,121 102,149 35,21 75,34 116,34 z"
       fill="currentColor"
       id="path9964" />
  </a>
  <path
     d="m 37.0075,0.279 c 0.032,-0.016 0.068,-0.028 0.104,-0.028 0.036,0 0.064,0.012 0.096,0.028 l -0.008,0.732 0.424,-0.08 h 0.012 c 0.04,0 0.072,0.028 0.072,0.068 l 0.028,2.28 c -0.032,0.016 -0.064,0.028 -0.1,0.028 -0.036,0 -0.068,-0.012 -0.1,-0.028 l 0.012,-0.732 -0.424,0.08 h -0.012 c -0.04,0 -0.072,-0.028 -0.072,-0.068 z m 0.556,1.052 -0.368,0.068 -0.012,0.828 0.368,-0.068 z"
     fill="currentColor"
     id="path9968"
     style="stroke-width:0.004" />
  <rect
     x="33.461498"
     y="1.4651"
     width="0.13"
     height="3.3139"
     ry="0.039999999"
     fill="currentColor"
     id="rect9970" />
  <a
     style="color:inherit"
     xlink:href="textedit:///private/tmp/Untitled.ly:34:25:26"
     id="a9974"
     transform="translate(-14.2264,-3.8303)">
    <path
       transform="matrix(0.004,0,0,-0.004,52.3119,5.6093)"
       d="m 218,136 c 55,0 108,-28 108,-89 0,-71 -55,-121 -102,-149 -35,-21 -75,-34 -116,-34 -55,0 -108,28 -108,89 0,71 55,121 102,149 35,21 75,34 116,34 z"
       fill="currentColor"
       id="path9972" />
  </a>
  <rect
     x="38.085499"
     y="1.9651"
     width="0.13"
     height="3.3139"
     ry="0.039999999"
     fill="currentColor"
     id="rect9976" />
  <text
     font-family="serif"
     font-size="2.2001px"
     text-anchor="start"
     fill="currentColor"
     id="text9980"
     x="45.524399"
     y="161.76469"><tspan
       id="tspan9978" /></text>
</svg>
