<?xml version="1.0" encoding="UTF-8" standalone="no"?>
<svg
   xmlns:dc="http://purl.org/dc/elements/1.1/"
   xmlns:cc="http://creativecommons.org/ns#"
   xmlns:rdf="http://www.w3.org/1999/02/22-rdf-syntax-ns#"
   xmlns:svg="http://www.w3.org/2000/svg"
   xmlns="http://www.w3.org/2000/svg"
   xmlns:xlink="http://www.w3.org/1999/xlink"
   xmlns:sodipodi="http://sodipodi.sourceforge.net/DTD/sodipodi-0.dtd"
   xmlns:inkscape="http://www.inkscape.org/namespaces/inkscape"
   version="1.2"
   width="118.28922mm"
   height="13.250032mm"
   viewBox="0 0 67.313102 7.5400001"
   id="svg10136"
   sodipodi:docname="Untitled.svg"
   inkscape:version="1.0.1 (c497b03c, 2020-09-10)">
  <metadata
     id="metadata10142">
    <rdf:RDF>
      <cc:Work
         rdf:about="">
        <dc:format>image/svg+xml</dc:format>
        <dc:type
           rdf:resource="http://purl.org/dc/dcmitype/StillImage" />
      </cc:Work>
    </rdf:RDF>
  </metadata>
  <defs
     id="defs10140" />
  <sodipodi:namedview
     pagecolor="#ffffff"
     bordercolor="#666666"
     borderopacity="1"
     objecttolerance="10"
     gridtolerance="10"
     guidetolerance="10"
     inkscape:pageopacity="0"
     inkscape:pageshadow="2"
     inkscape:window-width="740"
     inkscape:window-height="480"
     id="namedview10138"
     showgrid="false"
     fit-margin-top="0"
     fit-margin-left="0"
     fit-margin-right="0"
     fit-margin-bottom="0"
     inkscape:zoom="0.78872421"
     inkscape:cx="143.49274"
     inkscape:cy="-18.466302"
     inkscape:window-x="0"
     inkscape:window-y="25"
     inkscape:window-maximized="0"
     inkscape:current-layer="svg10136" />
  <style
     text="style/css"
     id="style9990"><![CDATA[
tspan { white-space: pre; }
]]></style>
  <!-- Page: 1/1 -->
  <text
     font-family="serif"
     font-size="2.2001px"
     text-anchor="start"
     fill="currentColor"
     id="text9994"
     x="-8.5358"
     y="-1"><tspan
       id="tspan9992" /></text>
  <line
     stroke-linejoin="round"
     stroke-linecap="round"
     stroke-width="0.1"
     stroke="currentColor"
     x1="0.050000001"
     y1="6"
     x2="67.2631"
     y2="6"
     id="line9996" />
  <line
     stroke-linejoin="round"
     stroke-linecap="round"
     stroke-width="0.1"
     stroke="currentColor"
     x1="0.050000001"
     y1="5"
     x2="67.2631"
     y2="5"
     id="line9998" />
  <line
     stroke-linejoin="round"
     stroke-linecap="round"
     stroke-width="0.1"
     stroke="currentColor"
     x1="0.050000001"
     y1="4"
     x2="67.2631"
     y2="4"
     id="line10000" />
  <line
     stroke-linejoin="round"
     stroke-linecap="round"
     stroke-width="0.1"
     stroke="currentColor"
     x1="0.050000001"
     y1="3"
     x2="67.2631"
     y2="3"
     id="line10002" />
  <line
     stroke-linejoin="round"
     stroke-linecap="round"
     stroke-width="0.1"
     stroke="currentColor"
     x1="0.050000001"
     y1="2"
     x2="67.2631"
     y2="2"
     id="line10004" />
  <rect
     x="54.2929"
     y="2"
     width="0.19"
     height="4"
     ry="0.0000"
     fill="currentColor"
     id="rect10006" />
  <rect
     x="40.209202"
     y="2"
     width="0.19"
     height="4"
     ry="0.0000"
     fill="currentColor"
     id="rect10008" />
  <rect
     x="67.1231"
     y="2"
     width="0.19"
     height="4"
     ry="0.0000"
     fill="currentColor"
     id="rect10010" />
  <rect
     x="26.511999"
     y="2"
     width="0.19"
     height="4"
     ry="0.0000"
     fill="currentColor"
     id="rect10012" />
  <rect
     x="62.646999"
     y="1.5"
     width="0.13"
     height="3.3139"
     ry="0.039999999"
     fill="currentColor"
     id="rect10014" />
  <a
     style="color:inherit"
     xlink:href="textedit:///private/tmp/Untitled.ly:34:37:38"
     id="a10018"
     transform="translate(-14.2264,-3.8453)">
    <path
       transform="matrix(0.004,0,0,-0.004,72.697,8.3453)"
       d="m 218,136 c 55,0 108,-28 108,-89 0,-71 -55,-121 -102,-149 -35,-21 -75,-34 -116,-34 -55,0 -108,28 -108,89 0,71 55,121 102,149 35,21 75,34 116,34 z"
       fill="currentColor"
       id="path10016" />
  </a>
  <rect
     x="59.644798"
     y="1"
     width="0.13"
     height="3.3139"
     ry="0.039999999"
     fill="currentColor"
     id="rect10020" />
  <a
     style="color:inherit"
     xlink:href="textedit:///private/tmp/Untitled.ly:34:39:40"
     id="a10024"
     transform="translate(-14.2264,-3.8453)">
    <path
       transform="matrix(0.004,0,0,-0.004,75.6992,8.8453)"
       d="m 218,136 c 55,0 108,-28 108,-89 0,-71 -55,-121 -102,-149 -35,-21 -75,-34 -116,-34 -55,0 -108,28 -108,89 0,71 55,121 102,149 35,21 75,34 116,34 z"
       fill="currentColor"
       id="path10022" />
  </a>
  <a
     style="color:inherit"
     xlink:href="textedit:///private/tmp/Untitled.ly:34:33:34"
     id="a10028"
     transform="translate(-14.2264,-3.8453)">
    <path
       transform="matrix(0.004,0,0,-0.004,65.6823,7.3453)"
       d="m 218,136 c 55,0 108,-28 108,-89 0,-71 -55,-121 -102,-149 -35,-21 -75,-34 -116,-34 -55,0 -108,28 -108,89 0,71 55,121 102,149 35,21 75,34 116,34 z"
       fill="currentColor"
       id="path10026" />
  </a>
  <rect
     x="51.455898"
     y="3.6861"
     width="0.13"
     height="3.3139"
     ry="0.039999999"
     fill="currentColor"
     id="rect10030" />
  <a
     style="color:inherit"
     xlink:href="textedit:///private/tmp/Untitled.ly:34:35:36"
     id="a10034"
     transform="translate(-14.2264,-3.8453)">
    <path
       transform="matrix(0.004,0,0,-0.004,69.713,7.8453)"
       d="m 218,136 c 55,0 108,-28 108,-89 0,-71 -55,-121 -102,-149 -35,-21 -75,-34 -116,-34 -55,0 -108,28 -108,89 0,71 55,121 102,149 35,21 75,34 116,34 z"
       fill="currentColor"
       id="path10032" />
  </a>
  <rect
     x="55.486599"
     y="4.1861"
     width="0.13"
     height="3.1472001"
     ry="0.039999999"
     fill="currentColor"
     id="rect10036" />
  <a
     style="color:inherit"
     xlink:href="textedit:///private/tmp/Untitled.ly:34:9:10"
     id="a10040"
     transform="translate(-14.2264,-3.8453)">
    <path
       transform="matrix(0.004,0,0,-0.004,34.8992,7.8453)"
       d="m 218,136 c 55,0 108,-28 108,-89 0,-71 -55,-121 -102,-149 -35,-21 -75,-34 -116,-34 -55,0 -108,28 -108,89 0,71 55,121 102,149 35,21 75,34 116,34 z"
       fill="currentColor"
       id="path10038" />
  </a>
  <a
     style="color:inherit"
     xlink:href="textedit:///private/tmp/Untitled.ly:34:7:8"
     id="a10044"
     transform="translate(-14.2264,-3.8453)">
    <path
       transform="matrix(0.004,0,0,-0.004,31.8787,8.3453)"
       d="m 218,136 c 55,0 108,-28 108,-89 0,-71 -55,-121 -102,-149 -35,-21 -75,-34 -116,-34 -55,0 -108,28 -108,89 0,71 55,121 102,149 35,21 75,34 116,34 z"
       fill="currentColor"
       id="path10042" />
  </a>
  <rect
     x="18.8265"
     y="1"
     width="0.13"
     height="3.3139"
     ry="0.039999999"
     fill="currentColor"
     id="rect10046" />
  <a
     style="color:inherit"
     xlink:href="textedit:///private/tmp/Untitled.ly:34:13:14"
     id="a10050"
     transform="translate(-14.2264,-3.8453)">
    <path
       transform="matrix(0.004,0,0,-0.004,41.9892,6.8453)"
       d="m 218,136 c 55,0 108,-28 108,-89 0,-71 -55,-121 -102,-149 -35,-21 -75,-34 -116,-34 -55,0 -108,28 -108,89 0,71 55,121 102,149 35,21 75,34 116,34 z"
       fill="currentColor"
       id="path10048" />
  </a>
  <rect
     x="20.6728"
     y="4.1861"
     width="0.13"
     height="3.1472001"
     ry="0.039999999"
     fill="currentColor"
     id="rect10052" />
  <a
     style="color:inherit"
     xlink:href="textedit:///private/tmp/Untitled.ly:34:11:12"
     id="a10056"
     transform="translate(-14.2264,-3.8453)">
    <path
       transform="matrix(0.004,0,0,-0.004,37.9014,7.3453)"
       d="m 218,136 c 55,0 108,-28 108,-89 0,-71 -55,-121 -102,-149 -35,-21 -75,-34 -116,-34 -55,0 -108,28 -108,89 0,71 55,121 102,149 35,21 75,34 116,34 z"
       fill="currentColor"
       id="path10054" />
  </a>
  <rect
     x="23.674999"
     y="3.6861"
     width="0.13"
     height="3.3139"
     ry="0.039999999"
     fill="currentColor"
     id="rect10058" />
  <rect
     x="27.7628"
     y="3.1861"
     width="0.13"
     height="3.3139"
     ry="0.039999999"
     fill="currentColor"
     id="rect10060" />
  <a
     style="color:inherit"
     xlink:href="textedit:///private/tmp/Untitled.ly:34:41:42"
     id="a10064"
     transform="translate(-14.2264,-3.8453)">
    <path
       transform="matrix(0.004,0,0,-0.004,78.7015,7.8453)"
       d="m -23,-116 c 0,28 11,42 40,42 33,0 78,-13 119,-31 L 4,53 c -7,9 -10,17 -10,25 0,34 50,66 87,99 25,22 37,52 37,83 0,24 -8,49 -25,69 l -35,42 c -3,3 -4,7 -4,10 0,9 9,15 17,15 4,0 8,-1 11,-5 L 233,211 c 7,-9 10,-17 10,-25 0,-34 -50,-66 -87,-99 -25,-22 -37,-52 -37,-83 0,-24 7,-49 24,-69 l 84,-99 c 3,-3 4,-7 4,-10 0,-9 -8,-16 -16,-16 -4,0 -9,2 -12,6 -18,21 -63,38 -97,38 -41,0 -53,-26 -53,-67 0,-35 11,-74 28,-94 7,-8 -5,-19 -12,-11 -45,54 -92,148 -92,202 z"
       fill="currentColor"
       id="path10062" />
  </a>
  <a
     style="color:inherit"
     xlink:href="textedit:///private/tmp/Untitled.ly:34:15:16"
     id="a10068"
     transform="translate(-14.2264,-3.8453)">
    <path
       transform="matrix(0.004,0,0,-0.004,45.3434,6.3453)"
       d="m 218,136 c 55,0 108,-28 108,-89 0,-71 -55,-121 -102,-149 -35,-21 -75,-34 -116,-34 -55,0 -108,28 -108,89 0,71 55,121 102,149 35,21 75,34 116,34 z"
       fill="currentColor"
       id="path10066" />
  </a>
  <rect
     x="31.117001"
     y="2.6861"
     width="0.13"
     height="3.3139"
     ry="0.039999999"
     fill="currentColor"
     id="rect10070" />
  <path
     d="m 30.531,3.748 c 0,0.04 -0.032,0.076 -0.072,0.076 -0.04,0 -0.076,-0.036 -0.076,-0.076 V 3.168 L 30.051,3.292 V 3.924 C 30.051,3.964 30.015,4 29.975,4 29.935,4 29.903,3.964 29.903,3.924 v -0.58 l -0.128,0.048 c -0.008,0.004 -0.02,0.004 -0.028,0.004 -0.044,0 -0.08,-0.036 -0.08,-0.08 v -0.24 c 0,-0.032 0.02,-0.064 0.052,-0.076 L 29.903,2.936 V 2.296 L 29.775,2.34 c -0.008,0.004 -0.02,0.004 -0.028,0.004 -0.044,0 -0.08,-0.036 -0.08,-0.08 v -0.24 c 0,-0.032 0.02,-0.06 0.052,-0.072 L 29.903,1.884 V 1.252 c 0,-0.04 0.032,-0.076 0.072,-0.076 0.04,0 0.076,0.036 0.076,0.076 v 0.58 L 30.383,1.708 V 1.076 C 30.383,1.036 30.419,1 30.459,1 c 0.04,0 0.072,0.036 0.072,0.076 v 0.58 l 0.128,-0.048 c 0.008,-0.004 0.02,-0.004 0.028,-0.004 0.044,0 0.08,0.036 0.08,0.08 v 0.24 c 0,0.032 -0.02,0.064 -0.052,0.076 l -0.184,0.064 v 0.64 L 30.659,2.66 c 0.008,-0.004 0.02,-0.004 0.028,-0.004 0.044,0 0.08,0.036 0.08,0.08 v 0.24 c 0,0.032 -0.02,0.06 -0.052,0.072 L 30.531,3.116 Z M 30.051,2.24 V 2.88 L 30.383,2.76 V 2.12 Z"
     fill="currentColor"
     id="path10072"
     style="stroke-width:0.004" />
  <a
     style="color:inherit"
     xlink:href="textedit:///private/tmp/Untitled.ly:34:19:20"
     id="a10076"
     transform="translate(-14.2264,-3.8453)">
    <path
       transform="matrix(0.004,0,0,-0.004,48.6453,5.8453)"
       d="m 218,136 c 55,0 108,-28 108,-89 0,-71 -55,-121 -102,-149 -35,-21 -75,-34 -116,-34 -55,0 -108,28 -108,89 0,71 55,121 102,149 35,21 75,34 116,34 z"
       fill="currentColor"
       id="path10074" />
  </a>
  <rect
     x="34.4189"
     y="2.1861"
     width="0.13"
     height="3.3139"
     ry="0.039999999"
     fill="currentColor"
     id="rect10078" />
  <path
     d="m 33.6292,2 c 0.092,0.092 0.224,0.112 0.356,0.112 0.024,0 0.04,0.016 0.04,0.04 l 0.036,0.348 c 0.004,0.024 -0.016,0.044 -0.04,0.04 l -0.348,-0.036 c -0.02,-0.004 -0.04,-0.02 -0.04,-0.04 0,-0.132 -0.02,-0.264 -0.112,-0.356 -0.092,0.092 -0.108,0.224 -0.108,0.356 0,0.02 -0.02,0.036 -0.04,0.04 l -0.352,0.036 c -0.024,0.004 -0.044,-0.016 -0.04,-0.04 l 0.036,-0.348 c 0,-0.024 0.016,-0.04 0.04,-0.04 0.132,0 0.264,-0.02 0.356,-0.112 -0.092,-0.092 -0.224,-0.112 -0.356,-0.112 -0.024,0 -0.04,-0.016 -0.04,-0.04 L 32.9812,1.5 c -0.004,-0.024 0.016,-0.044 0.04,-0.04 l 0.352,0.036 c 0.02,0.004 0.036,0.02 0.036,0.04 0,0.132 0.02,0.264 0.112,0.356 0.092,-0.092 0.112,-0.224 0.112,-0.356 0,-0.02 0.02,-0.036 0.04,-0.04 l 0.348,-0.036 c 0.024,-0.004 0.044,0.016 0.04,0.04 l -0.036,0.348 c 0,0.024 -0.016,0.04 -0.04,0.04 -0.132,0 -0.264,0.02 -0.356,0.112 z"
     fill="currentColor"
     id="path10080"
     style="stroke-width:0.004" />
  <path
     d="m 12.386,3.892 c -0.196,0 -0.3,-0.168 -0.3,-0.3 0,-0.152 0.108,-0.308 0.288,-0.308 0.016,0 0.036,0 0.056,0.004 -0.112,-0.148 -0.288,-0.236 -0.48,-0.236 -0.424,0 -0.452,0.292 -0.452,0.744 V 4 4.204 c 0,0.452 0.028,0.748 0.452,0.748 0.32,0 0.556,-0.28 0.632,-0.604 0.008,-0.028 0.028,-0.04 0.048,-0.04 0.024,0 0.052,0.016 0.052,0.048 0,0.376 -0.42,0.696 -0.732,0.696 -0.272,0 -0.548,-0.084 -0.736,-0.28 C 11.018,4.568 10.95,4.284 10.95,4 c 0,-0.284 0.068,-0.568 0.264,-0.772 0.188,-0.196 0.464,-0.276 0.736,-0.276 0.348,0 0.64,0.252 0.7,0.596 0.004,0.02 0.004,0.04 0.004,0.056 0,0.16 -0.12,0.288 -0.268,0.288 z"
     fill="currentColor"
     id="path10082"
     style="stroke-width:0.004" />
  <a
     style="color:inherit"
     xlink:href="textedit:///private/tmp/Untitled.ly:34:2:3"
     id="a10086"
     transform="translate(-14.2264,-3.8453)">
    <path
       transform="matrix(0.004,0,0,-0.004,28.8764,8.8453)"
       d="m 218,136 c 55,0 108,-28 108,-89 0,-71 -55,-121 -102,-149 -35,-21 -75,-34 -116,-34 -55,0 -108,28 -108,89 0,71 55,121 102,149 35,21 75,34 116,34 z"
       fill="currentColor"
       id="path10084" />
  </a>
  <path
     d="M 1.864,7.54 H 1.84 C 1.408,7.54 1.06,7.188 1.06,6.752 1.06,6.52 1.272,6.34 1.508,6.34 c 0.216,0 0.38,0.188 0.38,0.412 0,0.208 -0.172,0.38 -0.38,0.38 -0.044,0 -0.084,-0.008 -0.124,-0.024 0.104,0.156 0.272,0.26 0.468,0.26 H 1.868 Z M 2.644,5.812 C 2.916,5.716 3.096,5.432 3.096,5.156 3.096,4.796 2.832,4.44 2.404,4.396 2.5,4.86 2.588,5.32 2.644,5.812 Z M 1.096,4.888 c 0,0.54 0.516,0.988 1.056,0.988 0.112,0 0.22,-0.008 0.328,-0.024 C 2.424,5.344 2.332,4.872 2.228,4.396 1.912,4.428 1.732,4.64 1.732,4.872 c 0,0.176 0.1,0.364 0.324,0.492 0.02,0.02 0.028,0.04 0.028,0.06 0,0.044 -0.04,0.088 -0.088,0.088 C 1.984,5.512 1.972,5.508 1.96,5.504 1.64,5.332 1.492,5.044 1.492,4.764 1.492,4.412 1.724,4.068 2.132,3.976 2.076,3.744 2.016,3.508 1.948,3.276 1.52,3.76 1.096,4.248 1.096,4.888 Z M 2.14,6.048 C 1.388,6.048 0.808,5.36 0.808,4.552 0.808,3.844 1.332,3.328 1.8,2.788 1.724,2.54 1.652,2.288 1.62,2.028 1.596,1.82 1.592,1.612 1.592,1.404 c 0,-0.46 0.22,-0.896 0.596,-1.168 0.024,-0.02 0.056,-0.02 0.08,0 0.284,0.336 0.532,0.98 0.532,1.432 0,0.572 -0.344,1.02 -0.72,1.456 0.084,0.272 0.156,0.552 0.224,0.828 0.016,0 0.036,-0.004 0.052,-0.004 0.62,0 1.024,0.512 1.024,1.044 0,0.304 -0.132,0.616 -0.428,0.84 C 2.864,5.9 2.764,5.944 2.66,5.976 2.672,6.116 2.68,6.256 2.68,6.396 2.68,6.472 2.676,6.552 2.672,6.628 2.644,7.104 2.32,7.528 1.864,7.54 L 1.868,7.368 C 2.24,7.36 2.48,7 2.504,6.604 2.508,6.532 2.512,6.456 2.512,6.384 2.512,6.26 2.508,6.14 2.496,6.016 2.38,6.036 2.264,6.048 2.14,6.048 Z M 2.512,1.336 C 2.512,1.116 2.496,1.02 2.432,0.82 2.036,1.012 1.784,1.416 1.784,1.856 1.784,2.152 1.856,2.388 1.928,2.632 2.248,2.244 2.512,1.84 2.512,1.336 Z"
     fill="currentColor"
     id="path10088"
     style="stroke-width:0.004" />
  <a
     style="color:inherit"
     xlink:href="textedit:///private/tmp/Untitled.ly:32:2:3"
     id="a10100"
     transform="translate(-14.2264,-3.8453)">
    <path
       transform="matrix(0.004,0,0,-0.004,18.5264,5.8453)"
       d="m 216,-312 c 0,-10 -8,-19 -18,-19 -10,0 -19,9 -19,19 v 145 l -83,-31 v -158 c 0,-10 -9,-19 -19,-19 -10,0 -18,9 -18,19 v 145 l -32,-12 c -2,-1 -5,-1 -7,-1 -11,0 -20,9 -20,20 v 60 c 0,8 5,16 13,19 l 46,16 V 51 L 27,40 C 25,39 22,39 20,39 9,39 0,48 0,59 v 60 c 0,8 5,15 13,18 l 46,17 v 158 c 0,10 8,19 18,19 10,0 19,-9 19,-19 V 167 l 83,31 v 158 c 0,10 9,19 19,19 10,0 18,-9 18,-19 V 211 l 32,12 c 2,1 5,1 7,1 11,0 20,-9 20,-20 v -60 c 0,-8 -5,-16 -13,-19 L 216,109 V -51 l 32,11 c 2,1 5,1 7,1 11,0 20,-9 20,-20 v -60 c 0,-8 -5,-15 -13,-18 l -46,-17 z M 96,65 V -95 l 83,30 V 95 Z"
       fill="currentColor"
       id="path10090" />
    <path
       transform="matrix(0.004,0,0,-0.004,19.6264,7.3453)"
       d="m 216,-312 c 0,-10 -8,-19 -18,-19 -10,0 -19,9 -19,19 v 145 l -83,-31 v -158 c 0,-10 -9,-19 -19,-19 -10,0 -18,9 -18,19 v 145 l -32,-12 c -2,-1 -5,-1 -7,-1 -11,0 -20,9 -20,20 v 60 c 0,8 5,16 13,19 l 46,16 V 51 L 27,40 C 25,39 22,39 20,39 9,39 0,48 0,59 v 60 c 0,8 5,15 13,18 l 46,17 v 158 c 0,10 8,19 18,19 10,0 19,-9 19,-19 V 167 l 83,31 v 158 c 0,10 9,19 19,19 10,0 18,-9 18,-19 V 211 l 32,12 c 2,1 5,1 7,1 11,0 20,-9 20,-20 v -60 c 0,-8 -5,-16 -13,-19 L 216,109 V -51 l 32,11 c 2,1 5,1 7,1 11,0 20,-9 20,-20 v -60 c 0,-8 -5,-15 -13,-18 l -46,-17 z M 96,65 V -95 l 83,30 V 95 Z"
       fill="currentColor"
       id="path10092" />
    <path
       transform="matrix(0.004,0,0,-0.004,20.7264,5.3453)"
       d="m 216,-312 c 0,-10 -8,-19 -18,-19 -10,0 -19,9 -19,19 v 145 l -83,-31 v -158 c 0,-10 -9,-19 -19,-19 -10,0 -18,9 -18,19 v 145 l -32,-12 c -2,-1 -5,-1 -7,-1 -11,0 -20,9 -20,20 v 60 c 0,8 5,16 13,19 l 46,16 V 51 L 27,40 C 25,39 22,39 20,39 9,39 0,48 0,59 v 60 c 0,8 5,15 13,18 l 46,17 v 158 c 0,10 8,19 18,19 10,0 19,-9 19,-19 V 167 l 83,31 v 158 c 0,10 9,19 19,19 10,0 18,-9 18,-19 V 211 l 32,12 c 2,1 5,1 7,1 11,0 20,-9 20,-20 v -60 c 0,-8 -5,-16 -13,-19 L 216,109 V -51 l 32,11 c 2,1 5,1 7,1 11,0 20,-9 20,-20 v -60 c 0,-8 -5,-15 -13,-18 l -46,-17 z M 96,65 V -95 l 83,30 V 95 Z"
       fill="currentColor"
       id="path10094" />
    <path
       transform="matrix(0.004,0,0,-0.004,21.8264,6.8453)"
       d="m 216,-312 c 0,-10 -8,-19 -18,-19 -10,0 -19,9 -19,19 v 145 l -83,-31 v -158 c 0,-10 -9,-19 -19,-19 -10,0 -18,9 -18,19 v 145 l -32,-12 c -2,-1 -5,-1 -7,-1 -11,0 -20,9 -20,20 v 60 c 0,8 5,16 13,19 l 46,16 V 51 L 27,40 C 25,39 22,39 20,39 9,39 0,48 0,59 v 60 c 0,8 5,15 13,18 l 46,17 v 158 c 0,10 8,19 18,19 10,0 19,-9 19,-19 V 167 l 83,31 v 158 c 0,10 9,19 19,19 10,0 18,-9 18,-19 V 211 l 32,12 c 2,1 5,1 7,1 11,0 20,-9 20,-20 v -60 c 0,-8 -5,-16 -13,-19 L 216,109 V -51 l 32,11 c 2,1 5,1 7,1 11,0 20,-9 20,-20 v -60 c 0,-8 -5,-15 -13,-18 l -46,-17 z M 96,65 V -95 l 83,30 V 95 Z"
       fill="currentColor"
       id="path10096" />
    <path
       transform="matrix(0.004,0,0,-0.004,22.9264,8.3453)"
       d="m 216,-312 c 0,-10 -8,-19 -18,-19 -10,0 -19,9 -19,19 v 145 l -83,-31 v -158 c 0,-10 -9,-19 -19,-19 -10,0 -18,9 -18,19 v 145 l -32,-12 c -2,-1 -5,-1 -7,-1 -11,0 -20,9 -20,20 v 60 c 0,8 5,16 13,19 l 46,16 V 51 L 27,40 C 25,39 22,39 20,39 9,39 0,48 0,59 v 60 c 0,8 5,15 13,18 l 46,17 v 158 c 0,10 8,19 18,19 10,0 19,-9 19,-19 V 167 l 83,31 v 158 c 0,10 9,19 19,19 10,0 18,-9 18,-19 V 211 l 32,12 c 2,1 5,1 7,1 11,0 20,-9 20,-20 v -60 c 0,-8 -5,-16 -13,-19 L 216,109 V -51 l 32,11 c 2,1 5,1 7,1 11,0 20,-9 20,-20 v -60 c 0,-8 -5,-15 -13,-18 l -46,-17 z M 96,65 V -95 l 83,30 V 95 Z"
       fill="currentColor"
       id="path10098" />
  </a>
  <rect
     x="48.453701"
     y="3.1861"
     width="0.13"
     height="3.3139"
     ry="0.039999999"
     fill="currentColor"
     id="rect10102" />
  <rect
     x="15.8242"
     y="1.5"
     width="0.13"
     height="3.3139"
     ry="0.039999999"
     fill="currentColor"
     id="rect10104" />
  <rect
     x="45.451401"
     y="2.6861"
     width="0.13"
     height="3.3139"
     ry="0.039999999"
     fill="currentColor"
     id="rect10106" />
  <a
     style="color:inherit"
     xlink:href="textedit:///private/tmp/Untitled.ly:34:28:29"
     id="a10110"
     transform="translate(-14.2264,-3.8453)">
    <path
       transform="matrix(0.004,0,0,-0.004,59.6778,6.3453)"
       d="m 218,136 c 55,0 108,-28 108,-89 0,-71 -55,-121 -102,-149 -35,-21 -75,-34 -116,-34 -55,0 -108,28 -108,89 0,71 55,121 102,149 35,21 75,34 116,34 z"
       fill="currentColor"
       id="path10108" />
  </a>
  <a
     style="color:inherit"
     xlink:href="textedit:///private/tmp/Untitled.ly:34:23:24"
     id="a10114"
     transform="translate(-14.2264,-3.8453)">
    <path
       transform="matrix(0.004,0,0,-0.004,51.6476,5.3453)"
       d="m 218,136 c 55,0 108,-28 108,-89 0,-71 -55,-121 -102,-149 -35,-21 -75,-34 -116,-34 -55,0 -108,28 -108,89 0,71 55,121 102,149 35,21 75,34 116,34 z"
       fill="currentColor"
       id="path10112" />
  </a>
  <path
     d="m 44.3734,1 c 0.032,-0.016 0.068,-0.028 0.104,-0.028 0.036,0 0.064,0.012 0.096,0.028 l -0.008,0.732 0.424,-0.08 h 0.012 c 0.04,0 0.072,0.028 0.072,0.068 L 45.1014,4 c -0.032,0.016 -0.064,0.028 -0.1,0.028 -0.036,0 -0.068,-0.012 -0.1,-0.028 l 0.012,-0.732 -0.424,0.08 h -0.012 c -0.04,0 -0.072,-0.028 -0.072,-0.068 z m 0.556,1.052 -0.368,0.068 -0.012,0.828 0.368,-0.068 z"
     fill="currentColor"
     id="path10116"
     style="stroke-width:0.004" />
  <a
     style="color:inherit"
     xlink:href="textedit:///private/tmp/Untitled.ly:34:31:32"
     id="a10120"
     transform="translate(-14.2264,-3.8453)">
    <path
       transform="matrix(0.004,0,0,-0.004,62.6801,6.8453)"
       d="m 218,136 c 55,0 108,-28 108,-89 0,-71 -55,-121 -102,-149 -35,-21 -75,-34 -116,-34 -55,0 -108,28 -108,89 0,71 55,121 102,149 35,21 75,34 116,34 z"
       fill="currentColor"
       id="path10118" />
  </a>
  <path
     d="m 41.8632,3.248 c 0,0.04 -0.032,0.076 -0.072,0.076 -0.04,0 -0.076,-0.036 -0.076,-0.076 v -0.58 l -0.332,0.124 v 0.632 c 0,0.04 -0.036,0.076 -0.076,0.076 -0.04,0 -0.072,-0.036 -0.072,-0.076 v -0.58 l -0.128,0.048 c -0.008,0.004 -0.02,0.004 -0.028,0.004 -0.044,0 -0.08,-0.036 -0.08,-0.08 v -0.24 c 0,-0.032 0.02,-0.064 0.052,-0.076 l 0.184,-0.064 v -0.64 l -0.128,0.044 c -0.008,0.004 -0.02,0.004 -0.028,0.004 -0.044,0 -0.08,-0.036 -0.08,-0.08 v -0.24 c 0,-0.032 0.02,-0.06 0.052,-0.072 l 0.184,-0.068 V 0.752 c 0,-0.04 0.032,-0.076 0.072,-0.076 0.04,0 0.076,0.036 0.076,0.076 v 0.58 l 0.332,-0.124 V 0.576 c 0,-0.04 0.036,-0.076 0.076,-0.076 0.04,0 0.072,0.036 0.072,0.076 v 0.58 l 0.128,-0.048 c 0.008,-0.004 0.02,-0.004 0.028,-0.004 0.044,0 0.08,0.036 0.08,0.08 v 0.24 c 0,0.032 -0.02,0.064 -0.052,0.076 l -0.184,0.064 v 0.64 l 0.128,-0.044 c 0.008,-0.004 0.02,-0.004 0.028,-0.004 0.044,0 0.08,0.036 0.08,0.08 v 0.24 c 0,0.032 -0.02,0.06 -0.052,0.072 l -0.184,0.068 z m -0.48,-1.508 v 0.64 l 0.332,-0.12 V 1.62 Z"
     fill="currentColor"
     id="path10122"
     style="stroke-width:0.004" />
  <rect
     x="37.4212"
     y="1.6861"
     width="0.13"
     height="3.3139"
     ry="0.039999999"
     fill="currentColor"
     id="rect10124" />
  <a
     style="color:inherit"
     xlink:href="textedit:///private/tmp/Untitled.ly:34:25:26"
     id="a10128"
     transform="translate(-14.2264,-3.8453)">
    <path
       transform="matrix(0.004,0,0,-0.004,56.6756,5.8453)"
       d="m 218,136 c 55,0 108,-28 108,-89 0,-71 -55,-121 -102,-149 -35,-21 -75,-34 -116,-34 -55,0 -108,28 -108,89 0,71 55,121 102,149 35,21 75,34 116,34 z"
       fill="currentColor"
       id="path10126" />
  </a>
  <rect
     x="42.4492"
     y="2.1861"
     width="0.13"
     height="3.3139"
     ry="0.039999999"
     fill="currentColor"
     id="rect10130" />
  <text
     font-family="serif"
     font-size="2.2001px"
     text-anchor="start"
     fill="currentColor"
     id="text10134"
     x="45.524399"
     y="161.74969"><tspan
       id="tspan10132" /></text>
</svg>
